<svg width="22" height="20" viewBox="0 0 22 20" fill="none" xmlns="http://www.w3.org/2000/svg">
<path d="M6.39854 6.76971L0 8.54484L4.33297 12.4791L6.39854 10.9983V6.76971V6.76971Z" fill="#0D0D0D"/>
<path d="M4.49731 12.866L6.39847 18.9387V11.4473L4.49731 12.866V12.866Z" fill="#0D0D0D"/>
<path d="M18.5381 9.47229C19.8338 8.535 20.6096 7.07788 20.6214 5.39923C20.6411 2.40918 18.161 0 15.171 0H8.06354C7.14398 0 6.39868 0.745299 6.39868 1.66486V6.76972L14.9032 4.41075C15.1267 4.34873 15.2674 4.64409 15.0794 4.77897L6.39868 10.9983V11.4473L15.102 5.21217C15.2891 5.07827 15.5234 5.30373 15.3954 5.49572L6.39967 18.9387V18.9387C6.39967 19.5245 6.8752 20 7.461 20H15.4476C18.6671 20 21.3204 17.3821 21.2604 14.1626C21.2229 12.1581 20.202 10.4805 18.5391 9.47229H18.5381Z" fill="#0D0D0D"/>
</svg>
