<?xml version="1.0" encoding="UTF-8"?>
<svg width="20px" height="24px" viewBox="0 0 20 24" version="1.1" xmlns="http://www.w3.org/2000/svg" xmlns:xlink="http://www.w3.org/1999/xlink">
    <title>blitz_v1-02</title>
    <defs>
        <linearGradient x1="63.4403839%" y1="1.09952872%" x2="37.8320267%" y2="97.5578129%" id="linearGradient-1">
            <stop stop-color="#000000" offset="0%"></stop>
            <stop stop-color="#000000" stop-opacity="0.2032" offset="100%"></stop>
        </linearGradient>
        <radialGradient cx="89.1390897%" cy="6.70284545%" fx="89.1390897%" fy="6.70284545%" r="146.250245%" gradientTransform="translate(0.891391,0.067028),scale(1.000000,0.784656),rotate(127.308469),translate(-0.891391,-0.067028)" id="radialGradient-2">
            <stop stop-color="#FFEF00" offset="0%"></stop>
            <stop stop-color="#FFC40C" offset="33.09%"></stop>
            <stop stop-color="#FF8F3E" offset="69.42%"></stop>
            <stop stop-color="#DC3811" offset="100%"></stop>
        </radialGradient>
    </defs>
    <g id="Updated" stroke="none" stroke-width="1" fill="none" fill-rule="evenodd">
        <g id="Artboard-Copy-3" transform="translate(-939.000000, -450.000000)">
            <g id="blitz_v1-02" transform="translate(939.000000, 450.000000)">
                <path d="M11.0340077,0.743865691 L12.9143349,1.92165303 L12.9143349,1.92165303 L15.8484718,3.73999139 L18.5966423,5.43435213 C19.2578562,5.84761085 19.6711149,6.5708136 19.6711149,7.35600517 L19.6711149,17.0469221 C19.6711149,17.8321136 19.2578562,18.5553164 18.5966423,18.9685751 L11.0340077,23.6590616 C10.2901421,24.1136461 9.36030994,24.1136461 8.63710719,23.6590616 L1.07447266,18.9685751 C0.413258717,18.5553164 0,17.8321136 0,17.0469221 L0,7.35600517 C0,6.5708136 0.413258717,5.84761085 1.07447266,5.43435213 L8.63710719,0.743865691 C9.36030994,0.289281102 10.2901421,0.289281102 11.0340077,0.743865691 Z" id="Polygon-Copy-15" fill="#0066FF"></path>
                <polygon id="Fill-1-Copy-9" fill="url(#linearGradient-1)" opacity="0.4" points="12.5010762 1.65303487 5.7649591 8.63710719 8.55445545 8.32716315 4.77313818 12.9143349 8.4718037 12.3357727 3.49203616 20.3529918 4.48385708 20.9935428 15.6625054 12.7490314 11.9845028 12.4597503 17.2122256 7.72793801 12.8523461 7.33534223 16.736978 4.27722772"></polygon>
                <polygon id="Fill-1-Copy-9_00000150066579118985234760000017978924003230887327_" fill="url(#radialGradient-2)" points="19.2165303 1.36375377 12.6870426 7.19070168 16.6336634 7.56263452 11.3852777 12.563065 15.145932 12.5010762 0.619888076 23.7003874 8.34782609 12.232458 4.69048644 12.873009 8.38915196 8.22384847 5.59965562 8.57511838 12.7077056 0"></polygon>
            </g>
        </g>
    </g>
</svg>