<svg width="55" height="20" viewBox="0 0 55 20" fill="none" xmlns="http://www.w3.org/2000/svg">
<path d="M6.39854 6.76971L0 8.54484L4.33297 12.4791L6.39854 10.9983V6.76971V6.76971Z" fill="#0D0D0D"/>
<path d="M4.49731 12.866L6.39847 18.9387V11.4473L4.49731 12.866V12.866Z" fill="#0D0D0D"/>
<path d="M18.5381 9.47229C19.8338 8.535 20.6096 7.07788 20.6214 5.39923C20.6411 2.40918 18.161 0 15.171 0H8.06354C7.14398 0 6.39868 0.745299 6.39868 1.66486V6.76972L14.9032 4.41075C15.1267 4.34873 15.2674 4.64409 15.0794 4.77897L6.39868 10.9983V11.4473L15.102 5.21217C15.2891 5.07827 15.5234 5.30373 15.3954 5.49572L6.39967 18.9387V18.9387C6.39967 19.5245 6.8752 20 7.461 20H15.4476C18.6671 20 21.3204 17.3821 21.2604 14.1626C21.2229 12.1581 20.202 10.4805 18.5391 9.47229H18.5381Z" fill="#0D0D0D"/>
<path fill-rule="evenodd" clip-rule="evenodd" d="M29.8288 7.41948C30.9797 7.41948 32.0568 7.8576 32.8641 8.65213C33.7463 9.5205 34.2317 10.7138 34.2317 12.0124C34.2317 14.5732 32.3827 16.5039 29.9322 16.5039C29.1219 16.5039 28.3008 16.1967 27.6608 15.6759V16.3404H25.1375V3.98737H27.6598V8.17266C28.2063 7.7562 28.9585 7.41948 29.8288 7.41948ZM29.7362 9.93302C28.6119 9.93302 27.6608 10.8851 27.6608 12.0124C27.6608 12.549 27.8695 13.0511 28.2496 13.4252C28.6198 13.7895 29.111 13.9903 29.6328 13.9903C30.7582 13.9903 31.7083 13.0383 31.7083 11.911C31.7083 11.3734 31.4995 10.8723 31.1195 10.4982C30.7493 10.1339 30.258 9.93302 29.7362 9.93302Z" fill="#0D0D0D"/>
<rect x="34.4551" y="3.49609" width="2.5224" height="12.8434" fill="#0D0D0D"/>
<rect x="37.6912" y="7.58295" width="2.5224" height="8.75751" fill="#0D0D0D"/>
<path d="M39.0045 6.71263C39.7833 6.71263 40.3937 6.09631 40.3947 5.31064C40.3947 4.92175 40.2313 4.53778 39.9457 4.2562C39.6622 3.97659 39.291 3.823 38.9021 3.823C38.1362 3.823 37.5129 4.44424 37.5129 5.20923C37.5129 5.60699 37.6783 5.99785 37.9668 6.2814C38.2494 6.56003 38.6186 6.71263 39.0065 6.71263H39.0045Z" fill="#0D0D0D"/>
<path d="M44.4345 12.7843L46.5326 7.58294H44.6452V5.39233H42.1218V7.58294H40.6184V10.0965H42.1218V13.251C42.1218 14.4442 42.3748 15.2486 42.9173 15.7832C43.4096 16.2676 44.1293 16.5029 45.1188 16.5029C45.546 16.5029 46.0501 16.4458 46.441 16.3552L46.5847 13.4577H44.9858C44.6393 13.4577 44.3449 13.0993 44.4335 12.7833L44.4345 12.7843Z" fill="#0D0D0D"/>
<path d="M54.2454 7.58295H47.5269L47.2099 10.4273H49.3414C49.7284 10.4273 50.0306 10.8644 49.8623 11.1795L46.5237 16.3395H54.1903V13.9569H51.1087L54.2445 9.43685V7.58197L54.2454 7.58295Z" fill="#0D0D0D"/>
</svg>
