<svg width="114" height="42" viewBox="0 0 114 42" fill="none" xmlns="http://www.w3.org/2000/svg">
<path d="M13.4369 14.2155L0 17.9432L9.09924 26.2051L13.4369 23.0955V14.2155Z" fill="#231F20"/>
<path d="M9.44336 27.0188L13.4358 39.7714V24.0395L9.44336 27.0188Z" fill="#231F20"/>
<path d="M38.9303 19.8918C41.6511 17.9235 43.2804 14.8635 43.3052 11.3384C43.3465 5.05927 38.1384 0 31.8593 0H16.9337C15.0026 0 13.4375 1.56513 13.4375 3.49621V14.2164L31.2969 9.26258C31.7662 9.13232 32.0619 9.75258 31.667 10.0358L13.4375 23.0965V24.0393L31.7146 10.9456C32.1074 10.6644 32.5995 11.1378 32.3307 11.541L13.4396 39.7712C13.4396 41.0014 14.4382 42 15.6684 42H32.4403C39.2011 42 44.7731 36.5024 44.647 29.7416C44.5684 25.532 42.4244 22.009 38.9323 19.8918H38.9303Z" fill="#231F20"/>
<path d="M69.0151 18.1717C67.3197 16.5032 65.0578 15.5831 62.6409 15.5831C60.8132 15.5831 59.2336 16.2902 58.0861 17.1648V8.37567H52.7891V34.3171H58.0882V32.9215C59.4321 34.0152 61.1564 34.6603 62.858 34.6603C68.0041 34.6603 71.8869 30.6059 71.8869 25.2282C71.8869 22.5011 70.8676 19.9952 69.0151 18.1717ZM58.0882 25.2282C58.0882 22.8609 60.0854 20.8615 62.4465 20.8615C63.5423 20.8615 64.574 21.2833 65.3514 22.0483C66.1495 22.834 66.5878 23.8864 66.5878 25.0152C66.5878 27.3826 64.5926 29.3819 62.2294 29.3819C61.1337 29.3819 60.1019 28.9601 59.3246 28.1951C58.5265 27.4094 58.0882 26.355 58.0882 25.2282Z" fill="#231F20"/>
<path d="M77.6505 7.3418H72.3535V34.3129H77.6505V7.3418Z" fill="#231F20"/>
<path d="M84.4494 15.9225H79.1523V34.3133H84.4494V15.9225Z" fill="#231F20"/>
<path d="M81.9077 14.0988C83.5431 14.0988 84.825 12.8045 84.8271 11.1546C84.8271 10.338 84.4839 9.53161 83.8843 8.9403C83.2888 8.35311 82.5094 8.03058 81.6927 8.03058C80.0841 8.03058 78.7754 9.3352 78.7754 10.9417C78.7754 11.777 79.1227 12.5978 79.7285 13.1932C80.3219 13.7783 81.0972 14.0988 81.9119 14.0988H81.9077Z" fill="#231F20"/>
<path d="M93.3107 26.8477L97.7166 15.9249H93.7531V11.3246H88.454V15.9249H85.2969V21.2034H88.454V27.8277C88.454 30.3336 88.9854 32.0228 90.1246 33.1455C91.1584 34.1627 92.6697 34.6568 94.7476 34.6568C95.6449 34.6568 96.7035 34.5369 97.5243 34.3467L97.8262 28.2619H94.4685C93.7407 28.2619 93.1225 27.5093 93.3086 26.8457L93.3107 26.8477Z" fill="#231F20"/>
<path d="M113.915 15.9246H99.806L99.1403 21.8977H103.617C104.429 21.8977 105.064 22.8157 104.71 23.4773L97.6992 34.3133H113.799V29.3099H107.328L113.913 19.8178V15.9225L113.915 15.9246Z" fill="#231F20"/>
</svg>
