<svg width="106" height="21" viewBox="0 0 106 21" fill="none" xmlns="http://www.w3.org/2000/svg">
<path d="M24.6093 6.278V9.54H28.1653V10.59H24.6093V13.95H28.5853V15H23.3353V5.228H28.5853V6.278H24.6093ZM29.897 11.136C29.897 10.352 30.0557 9.666 30.373 9.078C30.6904 8.48067 31.1244 8.01867 31.675 7.692C32.235 7.36533 32.8604 7.202 33.551 7.202C34.1484 7.202 34.7037 7.342 35.217 7.622C35.7304 7.89267 36.1224 8.252 36.393 8.7V4.64H37.681V15H36.393V13.558C36.141 14.0153 35.7677 14.3933 35.273 14.692C34.7784 14.9813 34.1997 15.126 33.537 15.126C32.8557 15.126 32.235 14.958 31.675 14.622C31.1244 14.286 30.6904 13.8147 30.373 13.208C30.0557 12.6013 29.897 11.9107 29.897 11.136ZM36.393 11.15C36.393 10.5713 36.2764 10.0673 36.043 9.638C35.8097 9.20867 35.4924 8.882 35.091 8.658C34.699 8.42467 34.265 8.308 33.789 8.308C33.313 8.308 32.879 8.42 32.487 8.644C32.095 8.868 31.7824 9.19467 31.549 9.624C31.3157 10.0533 31.199 10.5573 31.199 11.136C31.199 11.724 31.3157 12.2373 31.549 12.676C31.7824 13.1053 32.095 13.4367 32.487 13.67C32.879 13.894 33.313 14.006 33.789 14.006C34.265 14.006 34.699 13.894 35.091 13.67C35.4924 13.4367 35.8097 13.1053 36.043 12.676C36.2764 12.2373 36.393 11.7287 36.393 11.15ZM40.352 6.082C40.1093 6.082 39.904 5.998 39.736 5.83C39.568 5.662 39.484 5.45667 39.484 5.214C39.484 4.97133 39.568 4.766 39.736 4.598C39.904 4.43 40.1093 4.346 40.352 4.346C40.5853 4.346 40.7813 4.43 40.94 4.598C41.108 4.766 41.192 4.97133 41.192 5.214C41.192 5.45667 41.108 5.662 40.94 5.83C40.7813 5.998 40.5853 6.082 40.352 6.082ZM40.968 7.328V15H39.694V7.328H40.968ZM44.5533 8.378V12.9C44.5533 13.2733 44.6326 13.5393 44.7913 13.698C44.95 13.8473 45.2253 13.922 45.6173 13.922H46.5553V15H45.4073C44.698 15 44.166 14.8367 43.8113 14.51C43.4566 14.1833 43.2793 13.6467 43.2793 12.9V8.378H42.2853V7.328H43.2793V5.396H44.5533V7.328H46.5553V8.378H44.5533ZM58.0753 8.098C58.0753 8.91 57.7953 9.58667 57.2353 10.128C56.6847 10.66 55.84 10.926 54.7013 10.926H52.8253V15H51.5513V5.242H54.7013C55.8027 5.242 56.638 5.508 57.2073 6.04C57.786 6.572 58.0753 7.258 58.0753 8.098ZM54.7013 9.876C55.4107 9.876 55.9333 9.722 56.2693 9.414C56.6053 9.106 56.7733 8.66733 56.7733 8.098C56.7733 6.894 56.0827 6.292 54.7013 6.292H52.8253V9.876H54.7013ZM60.1767 6.082C59.9341 6.082 59.7287 5.998 59.5607 5.83C59.3927 5.662 59.3087 5.45667 59.3087 5.214C59.3087 4.97133 59.3927 4.766 59.5607 4.598C59.7287 4.43 59.9341 4.346 60.1767 4.346C60.4101 4.346 60.6061 4.43 60.7647 4.598C60.9327 4.766 61.0167 4.97133 61.0167 5.214C61.0167 5.45667 60.9327 5.662 60.7647 5.83C60.6061 5.998 60.4101 6.082 60.1767 6.082ZM60.7927 7.328V15H59.5187V7.328H60.7927ZM66.5621 7.188C67.4954 7.188 68.2514 7.47267 68.8301 8.042C69.4087 8.602 69.6981 9.414 69.6981 10.478V15H68.4381V10.66C68.4381 9.89467 68.2467 9.31133 67.8641 8.91C67.4814 8.49933 66.9587 8.294 66.2961 8.294C65.6241 8.294 65.0874 8.504 64.6861 8.924C64.2941 9.344 64.0981 9.95533 64.0981 10.758V15H62.8241V7.328H64.0981V8.42C64.3501 8.028 64.6907 7.72467 65.1201 7.51C65.5587 7.29533 66.0394 7.188 66.5621 7.188ZM71.1631 11.15C71.1631 10.3567 71.3218 9.666 71.6391 9.078C71.9565 8.48067 72.3951 8.01867 72.9551 7.692C73.5245 7.36533 74.1731 7.202 74.9011 7.202C75.8438 7.202 76.6185 7.43067 77.2251 7.888C77.8411 8.34533 78.2471 8.98 78.4431 9.792H77.0711C76.9405 9.32533 76.6838 8.95667 76.3011 8.686C75.9278 8.41533 75.4611 8.28 74.9011 8.28C74.1731 8.28 73.5851 8.532 73.1371 9.036C72.6891 9.53067 72.4651 10.2353 72.4651 11.15C72.4651 12.074 72.6891 12.788 73.1371 13.292C73.5851 13.796 74.1731 14.048 74.9011 14.048C75.4611 14.048 75.9278 13.9173 76.3011 13.656C76.6745 13.3947 76.9311 13.0213 77.0711 12.536H78.4431C78.2378 13.32 77.8271 13.95 77.2111 14.426C76.5951 14.8927 75.8251 15.126 74.9011 15.126C74.1731 15.126 73.5245 14.9627 72.9551 14.636C72.3951 14.3093 71.9565 13.8473 71.6391 13.25C71.3218 12.6527 71.1631 11.9527 71.1631 11.15ZM83.349 15.126C82.6304 15.126 81.977 14.9627 81.389 14.636C80.8104 14.3093 80.353 13.8473 80.017 13.25C79.6904 12.6433 79.527 11.9433 79.527 11.15C79.527 10.366 79.695 9.67533 80.031 9.078C80.3764 8.47133 80.843 8.00933 81.431 7.692C82.019 7.36533 82.677 7.202 83.405 7.202C84.133 7.202 84.791 7.36533 85.379 7.692C85.967 8.00933 86.429 8.46667 86.765 9.064C87.1104 9.66133 87.283 10.3567 87.283 11.15C87.283 11.9433 87.1057 12.6433 86.751 13.25C86.4057 13.8473 85.9344 14.3093 85.337 14.636C84.7397 14.9627 84.077 15.126 83.349 15.126ZM83.349 14.006C83.8064 14.006 84.2357 13.8987 84.637 13.684C85.0384 13.4693 85.3604 13.1473 85.603 12.718C85.855 12.2887 85.981 11.766 85.981 11.15C85.981 10.534 85.8597 10.0113 85.617 9.582C85.3744 9.15267 85.057 8.83533 84.665 8.63C84.273 8.41533 83.8484 8.308 83.391 8.308C82.9244 8.308 82.495 8.41533 82.103 8.63C81.7204 8.83533 81.4124 9.15267 81.179 9.582C80.9457 10.0113 80.829 10.534 80.829 11.15C80.829 11.7753 80.941 12.3027 81.165 12.732C81.3984 13.1613 81.7064 13.4833 82.089 13.698C82.4717 13.9033 82.8917 14.006 83.349 14.006ZM88.3421 11.136C88.3421 10.352 88.5008 9.666 88.8181 9.078C89.1354 8.48067 89.5694 8.01867 90.1201 7.692C90.6801 7.36533 91.3054 7.202 91.9961 7.202C92.5934 7.202 93.1488 7.342 93.6621 7.622C94.1754 7.89267 94.5674 8.252 94.8381 8.7V4.64H96.1261V15H94.8381V13.558C94.5861 14.0153 94.2128 14.3933 93.7181 14.692C93.2234 14.9813 92.6448 15.126 91.9821 15.126C91.3008 15.126 90.6801 14.958 90.1201 14.622C89.5694 14.286 89.1354 13.8147 88.8181 13.208C88.5008 12.6013 88.3421 11.9107 88.3421 11.136ZM94.8381 11.15C94.8381 10.5713 94.7214 10.0673 94.4881 9.638C94.2548 9.20867 93.9374 8.882 93.5361 8.658C93.1441 8.42467 92.7101 8.308 92.2341 8.308C91.7581 8.308 91.3241 8.42 90.9321 8.644C90.5401 8.868 90.2274 9.19467 89.9941 9.624C89.7608 10.0533 89.6441 10.5573 89.6441 11.136C89.6441 11.724 89.7608 12.2373 89.9941 12.676C90.2274 13.1053 90.5401 13.4367 90.9321 13.67C91.3241 13.894 91.7581 14.006 92.2341 14.006C92.7101 14.006 93.1441 13.894 93.5361 13.67C93.9374 13.4367 94.2548 13.1053 94.4881 12.676C94.7214 12.2373 94.8381 11.7287 94.8381 11.15ZM105.139 10.87C105.139 11.1127 105.125 11.3693 105.097 11.64H98.9651C99.0117 12.396 99.2684 12.9887 99.7351 13.418C100.211 13.838 100.785 14.048 101.457 14.048C102.008 14.048 102.465 13.922 102.829 13.67C103.202 13.4087 103.464 13.0633 103.613 12.634H104.985C104.78 13.3713 104.369 13.9733 103.753 14.44C103.137 14.8973 102.372 15.126 101.457 15.126C100.729 15.126 100.076 14.9627 99.4971 14.636C98.9277 14.3093 98.4797 13.8473 98.1531 13.25C97.8264 12.6433 97.6631 11.9433 97.6631 11.15C97.6631 10.3567 97.8217 9.66133 98.1391 9.064C98.4564 8.46667 98.8997 8.00933 99.4691 7.692C100.048 7.36533 100.71 7.202 101.457 7.202C102.185 7.202 102.829 7.36067 103.389 7.678C103.949 7.99533 104.378 8.434 104.677 8.994C104.985 9.54467 105.139 10.17 105.139 10.87ZM103.823 10.604C103.823 10.1187 103.716 9.70333 103.501 9.358C103.286 9.00333 102.992 8.73733 102.619 8.56C102.255 8.37333 101.849 8.28 101.401 8.28C100.757 8.28 100.206 8.48533 99.7491 8.896C99.3011 9.30667 99.0444 9.876 98.9791 10.604H103.823Z" fill="#0066FF"/>
<path d="M5.64894 17H1.66414C1.488 17 1.31907 16.93 1.19452 16.8055C1.06998 16.6809 1 16.512 1 16.3359V12.625C0.999702 12.5388 1.01641 12.4533 1.04917 12.3736C1.08194 12.2938 1.13011 12.2213 1.19094 12.1601L11.1529 2.19813C11.2147 2.13538 11.2884 2.08555 11.3696 2.05153C11.4509 2.01752 11.5381 2 11.6261 2C11.7142 2 11.8014 2.01752 11.8826 2.05153C11.9639 2.08555 12.0375 2.13538 12.0993 2.19813L15.8019 5.90067C15.8646 5.96247 15.9145 6.03613 15.9485 6.11737C15.9825 6.19861 16 6.2858 16 6.37387C16 6.46194 15.9825 6.54913 15.9485 6.63037C15.9145 6.7116 15.8646 6.78527 15.8019 6.84706L5.64894 17Z" stroke="#0066FF" stroke-linecap="round" stroke-linejoin="round"/>
<path d="M16 17H1" stroke="#0066FF" stroke-linecap="round" stroke-linejoin="round"/>
</svg>
