<svg width="17" height="17" viewBox="0 0 17 17" fill="none" xmlns="http://www.w3.org/2000/svg">
<path d="M5.64894 16H1.66414C1.488 16 1.31907 15.93 1.19452 15.8055C1.06998 15.6809 1 15.512 1 15.3359V11.625C0.999702 11.5388 1.01641 11.4533 1.04917 11.3736C1.08194 11.2938 1.13011 11.2213 1.19094 11.1601L11.1529 1.19813C11.2147 1.13538 11.2884 1.08555 11.3696 1.05153C11.4509 1.01752 11.5381 1 11.6261 1C11.7142 1 11.8014 1.01752 11.8826 1.05153C11.9639 1.08555 12.0375 1.13538 12.0993 1.19813L15.8019 4.90067C15.8646 4.96247 15.9145 5.03613 15.9485 5.11737C15.9825 5.19861 16 5.2858 16 5.37387C16 5.46194 15.9825 5.54913 15.9485 5.63037C15.9145 5.7116 15.8646 5.78527 15.8019 5.84706L5.64894 16Z" stroke="#0066FF" stroke-linecap="round" stroke-linejoin="round"/>
<path d="M16 16H1" stroke="#0066FF" stroke-linecap="round" stroke-linejoin="round"/>
</svg>
