<svg width="109" height="40" viewBox="0 0 109 40" fill="none" xmlns="http://www.w3.org/2000/svg">
<path d="M12.7971 13.5394L0 17.0897L8.66595 24.9582L12.7971 21.9966V13.5394Z" fill="#231F20"/>
<path d="M8.99498 25.732L12.7973 37.8773V22.8946L8.99498 25.732Z" fill="#231F20"/>
<path d="M37.076 18.9446C39.6673 17.07 41.2189 14.1558 41.2426 10.7985C41.2819 4.81835 36.3218 0 30.3417 0H16.1269C14.2877 0 12.7971 1.4906 12.7971 3.32972V13.5394L29.8061 8.8215C30.2531 8.69745 30.5347 9.28818 30.1586 9.55794L12.7971 21.9967V22.8946L30.2039 10.4243C30.578 10.1565 31.0466 10.6075 30.7907 10.9914L12.7991 37.8773C12.7991 39.0489 13.7502 40 14.9218 40H30.895C37.3339 40 42.6406 34.7642 42.5205 28.3253C42.4457 24.3162 40.4037 20.9609 37.0779 18.9446H37.076Z" fill="#231F20"/>
<path fill-rule="evenodd" clip-rule="evenodd" d="M59.6572 14.839C61.9591 14.839 64.1133 15.7153 65.7279 17.3043C67.4922 19.0411 68.463 21.4276 68.463 24.0248C68.463 29.1464 64.7651 33.0078 59.864 33.0078C58.2434 33.0078 56.6012 32.3934 55.3213 31.3518V32.6809H50.2746V7.97481H55.3193V16.3454C56.4122 15.5125 57.9166 14.839 59.6572 14.839ZM59.4722 19.8661C57.2235 19.8661 55.3214 21.7702 55.3214 24.0248C55.3214 25.098 55.7388 26.1022 56.4989 26.8505C57.2393 27.579 58.2218 27.9807 59.2655 27.9807C61.5161 27.9807 63.4163 26.0766 63.4163 23.822C63.4163 22.7469 62.9988 21.7446 62.2388 20.9964C61.4984 20.2678 60.5158 19.8661 59.4722 19.8661Z" fill="#231F20"/>
<rect x="68.9102" y="6.99222" width="5.0448" height="25.6867" fill="#231F20"/>
<rect x="75.3825" y="15.1659" width="5.0448" height="17.515" fill="#231F20"/>
<path d="M78.0094 13.4252C79.5669 13.4252 80.7878 12.1926 80.7897 10.6213C80.7897 9.84346 80.4629 9.07552 79.8918 8.51236C79.3247 7.95314 78.5824 7.64597 77.8046 7.64597C76.2727 7.64597 75.0262 8.88846 75.0262 10.4184C75.0262 11.2139 75.357 11.9957 75.934 12.5628C76.4991 13.12 77.2375 13.4252 78.0133 13.4252H78.0094Z" fill="#231F20"/>
<path d="M88.8688 25.5686L93.0649 15.1659H89.2902V10.7847H84.2434V15.1659H81.2366V20.193H84.2434V26.5019C84.2434 28.8885 84.7495 30.4972 85.8344 31.5664C86.819 32.5352 88.2584 33.0058 90.2373 33.0058C91.0919 33.0058 92.1 32.8916 92.8818 32.7105L93.1693 26.9154H89.9715C89.2783 26.9154 88.6896 26.1987 88.8668 25.5666L88.8688 25.5686Z" fill="#231F20"/>
<path d="M108.491 15.1659H95.0536L94.4196 20.8546H98.6827C99.4565 20.8546 100.061 21.7288 99.7243 22.3589L93.0471 32.6789H108.38V27.9137H102.217L108.489 18.8737V15.1639L108.491 15.1659Z" fill="#231F20"/>
</svg>
