<svg width="47" height="20" viewBox="0 0 47 20" fill="none" xmlns="http://www.w3.org/2000/svg">
<path d="M0 4C0 1.79086 1.79086 0 4 0H43C45.2091 0 47 1.79086 47 4V16C47 18.2091 45.2091 20 43 20H4C1.79086 20 0 18.2091 0 16V4Z" fill="url(#paint0_linear_1366_2960)"/>
<path d="M14.6556 6.28519C14.5902 6.25547 14.5175 6.24519 14.4464 6.25558C14.3753 6.26597 14.3086 6.29659 14.2544 6.34379C12.9419 7.4791 11.83 6.92879 10.5414 6.29082C9.20641 5.62941 7.69281 4.88082 6.00437 6.34379C5.96403 6.37876 5.93162 6.42194 5.90931 6.47044C5.887 6.51894 5.8753 6.57165 5.875 6.62504V14.5C5.875 14.5995 5.91451 14.6949 5.98484 14.7652C6.05516 14.8355 6.15054 14.875 6.25 14.875C6.34946 14.875 6.44484 14.8355 6.51517 14.7652C6.58549 14.6949 6.625 14.5995 6.625 14.5V12.4268C7.88078 11.4349 8.96266 11.9697 10.2086 12.5866C10.9773 12.9668 11.8052 13.3764 12.693 13.3764C13.3459 13.3764 14.0308 13.1538 14.747 12.5327C14.7874 12.4977 14.8198 12.4545 14.8421 12.406C14.8644 12.3575 14.8761 12.3048 14.8764 12.2514V6.62504C14.876 6.55319 14.855 6.48297 14.8159 6.42272C14.7767 6.36248 14.7211 6.31474 14.6556 6.28519ZM6.625 11.5207V9.15066C7.41484 8.62191 8.155 8.60738 8.875 8.8066V11.2319C8.16578 11.0533 7.41578 11.0646 6.625 11.5207ZM8.875 6.38457C9.30859 6.51723 9.74734 6.73379 10.2086 6.96207C10.7364 7.22316 11.2919 7.49785 11.875 7.64457V10.0699C12.5945 10.2691 13.3347 10.2546 14.125 9.72535V12.0743C13.3342 12.6986 12.6123 12.7174 11.875 12.4919V10.0699C10.8616 9.78863 9.88844 9.08551 8.875 8.8066V6.38457Z" fill="white"/>
<path d="M34.3496 11.22C34.3496 10.6666 34.4629 10.1766 34.6896 9.74998C34.9229 9.32331 35.2363 8.99331 35.6296 8.75997C36.0296 8.51998 36.4729 8.39998 36.9596 8.39998C37.3196 8.39998 37.6729 8.47998 38.0196 8.63998C38.3729 8.79331 38.6529 8.99998 38.8596 9.25998V6.59998H40.0096V14H38.8596V13.17C38.6729 13.4366 38.4129 13.6566 38.0796 13.83C37.7529 14.0033 37.3763 14.09 36.9496 14.09C36.4696 14.09 36.0296 13.97 35.6296 13.73C35.2363 13.4833 34.9229 13.1433 34.6896 12.71C34.4629 12.27 34.3496 11.7733 34.3496 11.22ZM38.8596 11.24C38.8596 10.86 38.7796 10.53 38.6196 10.25C38.4663 9.96998 38.2629 9.75664 38.0096 9.60998C37.7563 9.46331 37.4829 9.38998 37.1896 9.38998C36.8963 9.38998 36.6229 9.46331 36.3696 9.60998C36.1163 9.74998 35.9096 9.95998 35.7496 10.24C35.5963 10.5133 35.5196 10.84 35.5196 11.22C35.5196 11.6 35.5963 11.9333 35.7496 12.22C35.9096 12.5066 36.1163 12.7266 36.3696 12.88C36.6296 13.0266 36.9029 13.1 37.1896 13.1C37.4829 13.1 37.7563 13.0266 38.0096 12.88C38.2629 12.7333 38.4663 12.52 38.6196 12.24C38.7796 11.9533 38.8596 11.62 38.8596 11.24Z" fill="black"/>
<path d="M31.0163 8.39996C31.4497 8.39996 31.8363 8.48996 32.1763 8.66996C32.523 8.84996 32.793 9.11663 32.9863 9.46996C33.1797 9.8233 33.2763 10.25 33.2763 10.75V14H32.1463V10.92C32.1463 10.4266 32.023 10.05 31.7763 9.78996C31.5297 9.5233 31.193 9.38996 30.7663 9.38996C30.3397 9.38996 29.9997 9.5233 29.7463 9.78996C29.4997 10.05 29.3763 10.4266 29.3763 10.92V14H28.2363V8.48996H29.3763V9.11996C29.563 8.8933 29.7997 8.71663 30.0863 8.58996C30.3797 8.4633 30.6897 8.39996 31.0163 8.39996Z" fill="black"/>
<path d="M24.1322 7.96998V10.01H26.5322V10.94H24.1322V13.07H26.8322V14H22.9922V7.03998H26.8322V7.96998H24.1322Z" fill="black"/>
<defs>
<linearGradient id="paint0_linear_1366_2960" x1="47" y1="10" x2="0" y2="10" gradientUnits="userSpaceOnUse">
<stop stop-color="white"/>
<stop offset="0.53" stop-color="white"/>
<stop offset="0.665" stop-color="#38B58B"/>
<stop offset="1" stop-color="#38B58B"/>
</linearGradient>
</defs>
</svg>
