<svg width="210" height="84" viewBox="0 0 210 84" fill="none" xmlns="http://www.w3.org/2000/svg">
<g filter="url(#filter0_ddd_119_7317)">
<rect x="13" y="2" width="184" height="62" rx="31" fill="#692BE0"/>
<rect x="13.5" y="2.5" width="183" height="61" rx="30.5" stroke="#692BE0"/>
</g>
<path d="M102.994 48C102.36 48 101.8 47.8896 101.313 47.6689C100.836 47.4482 100.459 47.1401 100.184 46.7447C99.9082 46.3491 99.7613 45.9077 99.7429 45.4203H100.762C100.808 45.8893 101.015 46.3032 101.382 46.6619C101.75 47.0113 102.287 47.1861 102.994 47.1861C103.646 47.1861 104.161 47.0205 104.537 46.6894C104.923 46.3491 105.116 45.9215 105.116 45.4065C105.116 44.9926 105.01 44.6615 104.799 44.4133C104.588 44.1557 104.326 43.9671 104.014 43.8476C103.701 43.7189 103.27 43.5809 102.719 43.4338C102.076 43.259 101.566 43.0889 101.189 42.9233C100.813 42.7578 100.491 42.5003 100.225 42.1508C99.9588 41.8013 99.8256 41.3277 99.8256 40.7298C99.8256 40.2332 99.9542 39.7918 100.211 39.4055C100.468 39.01 100.831 38.702 101.3 38.4812C101.768 38.2605 102.305 38.1501 102.912 38.1501C103.802 38.1501 104.519 38.3709 105.061 38.8123C105.612 39.2445 105.929 39.8056 106.011 40.4953H104.964C104.9 40.0999 104.684 39.7503 104.317 39.4469C103.949 39.1342 103.453 38.9778 102.829 38.9778C102.25 38.9778 101.768 39.1342 101.382 39.4469C100.997 39.7503 100.804 40.1688 100.804 40.7023C100.804 41.1069 100.909 41.4335 101.121 41.6817C101.332 41.93 101.594 42.1185 101.906 42.2473C102.227 42.3761 102.659 42.5141 103.201 42.6612C103.825 42.8359 104.331 43.0107 104.716 43.1854C105.102 43.351 105.428 43.6085 105.694 43.9579C105.961 44.3075 106.094 44.7765 106.094 45.3651C106.094 45.8157 105.975 46.2434 105.736 46.6481C105.497 47.0527 105.143 47.3792 104.675 47.6276C104.207 47.8759 103.646 48 102.994 48Z" fill="white"/>
<path d="M116.693 38.1501V47.793H115.729V43.2819H110.508V47.793H109.543V38.1501H110.508V42.4818H115.729V38.1501H116.693Z" fill="white"/>
<path d="M121.118 38.1501V47.793H120.154V38.1501H121.118Z" fill="white"/>
<path d="M130.736 40.923C130.736 41.7506 130.465 42.4175 129.924 42.9233C129.382 43.4291 128.569 43.682 127.485 43.682H125.543V47.793H124.578V38.1501H127.485C128.56 38.1501 129.368 38.403 129.91 38.9089C130.461 39.4147 130.736 40.0861 130.736 40.923ZM127.485 42.8543C128.991 42.8543 129.744 42.2105 129.744 40.923C129.744 40.2791 129.565 39.7918 129.207 39.4607C128.849 39.1296 128.275 38.964 127.485 38.964H125.543V42.8543H127.485Z" fill="white"/>
<path d="M140.344 40.923C140.344 41.7506 140.073 42.4175 139.531 42.9233C138.989 43.4291 138.176 43.682 137.092 43.682H135.15V47.793H134.186V38.1501H137.092C138.167 38.1501 138.975 38.403 139.517 38.9089C140.068 39.4147 140.344 40.0861 140.344 40.923ZM137.092 42.8543C138.599 42.8543 139.352 42.2105 139.352 40.923C139.352 40.2791 139.173 39.7918 138.814 39.4607C138.456 39.1296 137.882 38.964 137.092 38.964H135.15V42.8543H137.092Z" fill="white"/>
<path d="M144.768 38.1501V47.793H143.804V38.1501H144.768Z" fill="white"/>
<path d="M155.489 47.793H154.525L149.193 39.6814V47.793H148.229V38.1501H149.193L154.525 46.2479V38.1501H155.489V47.793Z" fill="white"/>
<path d="M166.956 41.0747C166.681 40.4402 166.258 39.9435 165.689 39.5849C165.129 39.217 164.467 39.033 163.705 39.033C162.989 39.033 162.346 39.1985 161.776 39.5296C161.207 39.8607 160.757 40.3344 160.426 40.9506C160.096 41.5576 159.93 42.2657 159.93 43.075C159.93 43.8843 160.096 44.5972 160.426 45.2134C160.757 45.8295 161.207 46.3032 161.776 46.6343C162.346 46.9654 162.989 47.1309 163.705 47.1309C164.375 47.1309 164.977 46.9883 165.51 46.7032C166.052 46.4089 166.483 45.995 166.805 45.4617C167.135 44.9191 167.324 44.289 167.37 43.5717H163.319V42.7854H168.389V43.4889C168.343 44.335 168.114 45.103 167.7 45.7927C167.287 46.4733 166.731 47.0113 166.033 47.4068C165.344 47.8023 164.568 48 163.705 48C162.814 48 162.006 47.7931 161.28 47.3792C160.555 46.9562 159.981 46.3721 159.558 45.6272C159.145 44.8731 158.938 44.0224 158.938 43.075C158.938 42.1278 159.145 41.2816 159.558 40.5367C159.981 39.7826 160.555 39.1985 161.28 38.7847C162.006 38.3616 162.814 38.1501 163.705 38.1501C164.734 38.1501 165.634 38.4076 166.405 38.9227C167.177 39.4377 167.737 40.155 168.086 41.0747H166.956Z" fill="white"/>
<path d="M104.751 20.3974L104.307 22.9902H108.374L107.965 25.281H103.898L103.401 28.0691H108.001L107.574 30.4665H99.9382L102.14 18H109.777L109.35 20.3974H104.751Z" fill="white"/>
<path d="M116.099 25.5652L118.638 30.4665H115.229L113.808 27.7317L111.73 30.4665H108.445L112.6 25.4054L110.097 20.5573H113.506L114.927 23.3098L117.005 20.5573H120.29L116.099 25.5652Z" fill="white"/>
<path d="M124.159 21.9602C124.538 21.4984 125.012 21.1255 125.58 20.8414C126.16 20.5572 126.799 20.4152 127.498 20.4152C128.563 20.4152 129.422 20.7644 130.073 21.4629C130.736 22.1614 131.067 23.1086 131.067 24.3043C131.067 24.6713 131.032 25.0679 130.961 25.4941C130.783 26.5123 130.434 27.4121 129.913 28.1934C129.392 28.963 128.765 29.5608 128.031 29.987C127.297 30.4014 126.521 30.6086 125.704 30.6086C125.018 30.6086 124.438 30.4665 123.964 30.1824C123.49 29.8982 123.141 29.5312 122.916 29.0814L121.833 35.1903H118.796L121.371 20.5572H124.408L124.159 21.9602ZM127.889 25.4941C127.924 25.2929 127.942 25.1094 127.942 24.9436C127.942 24.3517 127.77 23.8899 127.427 23.5584C127.095 23.2269 126.669 23.0612 126.148 23.0612C125.544 23.0612 124.994 23.2802 124.497 23.7183C123.999 24.1563 123.68 24.7542 123.538 25.5119C123.502 25.725 123.484 25.9203 123.484 26.0979C123.484 26.678 123.65 27.1338 123.982 27.4653C124.313 27.7968 124.739 27.9626 125.26 27.9626C125.864 27.9626 126.415 27.7435 126.912 27.3055C127.421 26.8556 127.747 26.2518 127.889 25.4941Z" fill="white"/>
<path d="M135.964 22.3509C136.425 21.7589 136.952 21.2972 137.544 20.9657C138.148 20.6224 138.775 20.4507 139.427 20.4507L138.858 23.665H138.024C137.266 23.665 136.668 23.8307 136.23 24.1622C135.792 24.4819 135.502 25.0502 135.36 25.8671L134.543 30.4665H131.506L133.247 20.5572H136.283L135.964 22.3509Z" fill="white"/>
<path d="M145.105 20.4152C146.383 20.4152 147.395 20.7644 148.141 21.4629C148.899 22.1496 149.278 23.0908 149.278 24.2865C149.278 24.6772 149.248 25.0265 149.189 25.3343C149.142 25.6066 149.071 25.8967 148.976 26.2045H142.103C142.092 26.2755 142.086 26.388 142.086 26.5419C142.086 27.0628 142.228 27.4594 142.512 27.7317C142.796 28.004 143.175 28.1401 143.648 28.1401C144.406 28.1401 144.986 27.8205 145.389 27.1812H148.621C148.195 28.1875 147.502 29.0103 146.543 29.6496C145.584 30.2889 144.507 30.6086 143.311 30.6086C142.032 30.6086 141.008 30.2534 140.239 29.5431C139.481 28.8327 139.102 27.8678 139.102 26.6484C139.102 26.2814 139.138 25.9026 139.209 25.5119C139.386 24.4819 139.753 23.5821 140.31 22.8126C140.866 22.043 141.559 21.4511 142.388 21.0367C143.216 20.6223 144.122 20.4152 145.105 20.4152ZM146.206 24.6595C146.229 24.4937 146.241 24.3813 146.241 24.3221C146.241 23.8485 146.093 23.4874 145.797 23.2388C145.501 22.9783 145.111 22.8481 144.625 22.8481C144.104 22.8481 143.642 23.0079 143.24 23.3276C142.849 23.6354 142.565 24.0794 142.388 24.6595H146.206Z" fill="white"/>
<path d="M153.81 30.6086C153.029 30.6086 152.324 30.4843 151.697 30.2357C151.081 29.987 150.596 29.6437 150.241 29.2057C149.885 28.7558 149.708 28.2408 149.708 27.6607C149.708 27.5778 149.72 27.4298 149.743 27.2167H152.673C152.65 27.5837 152.756 27.8797 152.993 28.1046C153.242 28.3177 153.591 28.4243 154.041 28.4243C154.42 28.4243 154.733 28.3532 154.982 28.2112C155.231 28.0691 155.355 27.8678 155.355 27.6074C155.355 27.3588 155.219 27.1634 154.947 27.0214C154.686 26.8675 154.248 26.6839 153.632 26.4708C152.993 26.2577 152.454 26.0506 152.016 25.8493C151.59 25.6362 151.223 25.3343 150.915 24.9436C150.608 24.5529 150.454 24.0616 150.454 23.4696C150.454 22.8895 150.625 22.3686 150.969 21.9069C151.312 21.4333 151.791 21.0663 152.407 20.8059C153.035 20.5454 153.757 20.4152 154.574 20.4152C155.391 20.4152 156.101 20.5513 156.705 20.8236C157.308 21.0841 157.776 21.4511 158.108 21.9246C158.439 22.3982 158.605 22.931 158.605 23.5229L158.587 23.7893H155.834C155.858 23.4341 155.752 23.15 155.515 22.9369C155.278 22.7238 154.941 22.6172 154.503 22.6172C154.159 22.6172 153.875 22.6883 153.65 22.8303C153.437 22.9724 153.331 23.1677 153.331 23.4164C153.331 23.6768 153.473 23.8958 153.757 24.0734C154.053 24.2392 154.509 24.4286 155.124 24.6417C155.763 24.8548 156.29 25.0679 156.705 25.281C157.131 25.4823 157.492 25.7723 157.788 26.1512C158.096 26.5182 158.25 26.9799 158.25 27.5364C158.25 28.1757 158.054 28.7262 157.664 29.1879C157.285 29.6496 156.758 30.0048 156.083 30.2534C155.42 30.4902 154.662 30.6086 153.81 30.6086Z" fill="white"/>
<path d="M163.535 30.6086C162.754 30.6086 162.049 30.4843 161.422 30.2357C160.806 29.987 160.321 29.6437 159.966 29.2057C159.61 28.7558 159.433 28.2408 159.433 27.6607C159.433 27.5778 159.445 27.4298 159.468 27.2167H162.398C162.375 27.5837 162.481 27.8797 162.718 28.1046C162.967 28.3177 163.316 28.4243 163.766 28.4243C164.145 28.4243 164.458 28.3532 164.707 28.2112C164.956 28.0691 165.08 27.8678 165.08 27.6074C165.08 27.3588 164.944 27.1634 164.672 27.0214C164.411 26.8675 163.973 26.6839 163.357 26.4708C162.718 26.2577 162.179 26.0506 161.741 25.8493C161.315 25.6362 160.948 25.3343 160.64 24.9436C160.333 24.5529 160.179 24.0616 160.179 23.4696C160.179 22.8895 160.35 22.3686 160.694 21.9069C161.037 21.4333 161.516 21.0663 162.132 20.8059C162.76 20.5454 163.482 20.4152 164.299 20.4152C165.116 20.4152 165.826 20.5513 166.43 20.8236C167.033 21.0841 167.501 21.4511 167.833 21.9246C168.164 22.3982 168.33 22.931 168.33 23.5229L168.312 23.7893H165.56C165.583 23.4341 165.477 23.15 165.24 22.9369C165.003 22.7238 164.666 22.6172 164.228 22.6172C163.884 22.6172 163.6 22.6883 163.375 22.8303C163.162 22.9724 163.056 23.1677 163.056 23.4164C163.056 23.6768 163.198 23.8958 163.482 24.0734C163.778 24.2392 164.234 24.4286 164.849 24.6417C165.488 24.8548 166.015 25.0679 166.43 25.281C166.856 25.4823 167.217 25.7723 167.513 26.1512C167.821 26.5182 167.975 26.9799 167.975 27.5364C167.975 28.1757 167.779 28.7262 167.389 29.1879C167.01 29.6496 166.483 30.0048 165.808 30.2534C165.145 30.4902 164.387 30.6086 163.535 30.6086Z" fill="white"/>
<path d="M89.7613 21.8571C87.8531 18.6 84.7863 16.3029 81.1744 15.4114C80.0499 15.1371 78.9254 15 77.8009 15C75.2794 15 72.7919 15.6857 70.577 17.0571C67.374 19.0114 65.091 22.1314 64.1709 25.8C63.3531 29.0914 63.6598 32.9657 65.091 37.32C65.8065 39.5486 66.8288 41.88 68.0896 44.2457C68.737 45.48 69.4526 46.68 70.2022 47.88C70.577 48.4971 70.9859 49.08 71.3948 49.6629C71.6334 50.0057 71.8378 50.28 71.9741 50.4857C72.0763 50.6229 72.1786 50.76 72.383 51L72.5534 50.8971C73.3371 50.4857 77.5624 48.2914 81.8218 44.9314C87.0353 40.8171 90.3064 36.5657 91.2605 32.6229C92.2487 28.92 91.7035 25.1143 89.7613 21.8571ZM84.6841 29.7086C84.2411 31.4914 83.1507 33 81.5833 33.9257C80.4929 34.5771 79.3002 34.92 78.0735 34.92C77.5283 34.92 76.9491 34.8514 76.4039 34.7143C74.632 34.2686 73.1327 33.1714 72.2126 31.5943C71.2585 30.0171 70.9859 28.1657 71.4289 26.4171C71.8719 24.6343 72.9623 23.1257 74.5297 22.2C76.0972 21.24 77.9372 20.9657 79.6751 21.4114C81.447 21.8571 82.9463 22.9543 83.8663 24.5314C84.8204 26.1086 85.093 27.9257 84.6841 29.7086Z" fill="white"/>
<path fill-rule="evenodd" clip-rule="evenodd" d="M52.9262 27.5486C52.347 27.5486 51.904 27.9943 51.904 28.5772C51.904 29.16 52.347 29.6057 52.9262 29.6057H61.7176C61.7176 28.92 61.7517 28.2343 61.8198 27.5486H52.9262Z" fill="white"/>
<path fill-rule="evenodd" clip-rule="evenodd" d="M47.4742 29.6057H49.8595C50.4388 29.6057 50.8817 29.16 50.8817 28.5772C50.8817 27.9943 50.4388 27.5486 49.8595 27.5486H47.4742C46.895 27.5486 46.452 27.9943 46.452 28.5772C46.452 29.16 46.895 29.6057 47.4742 29.6057Z" fill="white"/>
<path fill-rule="evenodd" clip-rule="evenodd" d="M44.4075 36.12H42.0222C41.443 36.12 41 36.5657 41 37.1486C41 37.7314 41.443 38.1771 42.0222 38.1771H44.4075C44.9868 38.1771 45.4297 37.7314 45.4297 37.1486C45.4297 36.6 44.9868 36.12 44.4075 36.12Z" fill="white"/>
<path fill-rule="evenodd" clip-rule="evenodd" d="M62.6376 36.12H47.4742C46.895 36.12 46.452 36.5657 46.452 37.1486C46.452 37.7314 46.895 38.1771 47.4742 38.1771H63.2509C63.2169 38.1086 63.1828 38.04 63.1828 37.9714C62.9783 37.3543 62.808 36.7371 62.6376 36.12Z" fill="white"/>
<path fill-rule="evenodd" clip-rule="evenodd" d="M62.808 23.4343H42.0222C41.443 23.4343 41 23.88 41 24.4629C41 25.0457 41.443 25.4914 42.0222 25.4914H62.1946C62.1946 25.4229 62.2287 25.3543 62.2287 25.32C62.3991 24.6686 62.6035 24.0514 62.808 23.4343Z" fill="white"/>
<path fill-rule="evenodd" clip-rule="evenodd" d="M55.3115 40.5771H52.9262C52.347 40.5771 51.904 41.0228 51.904 41.6057C51.904 42.1885 52.347 42.6343 52.9262 42.6343H55.3115C55.8908 42.6343 56.3337 42.1885 56.3337 41.6057C56.3337 41.0571 55.8908 40.5771 55.3115 40.5771Z" fill="white"/>
<path fill-rule="evenodd" clip-rule="evenodd" d="M58.3782 40.5771C57.7989 40.5771 57.3559 41.0228 57.3559 41.6057C57.3559 42.1885 57.7989 42.6343 58.3782 42.6343H65.0228C64.7161 41.9485 64.4094 41.2628 64.1368 40.5771H58.3782Z" fill="white"/>
<path fill-rule="evenodd" clip-rule="evenodd" d="M55.6523 32.0057C55.073 32.0057 54.63 32.4514 54.63 33.0343C54.63 33.6171 55.073 34.0629 55.6523 34.0629H62.1606C62.0243 33.3771 61.9221 32.6914 61.8539 32.0057H55.6523Z" fill="white"/>
<defs>
<filter id="filter0_ddd_119_7317" x="0" y="0.703704" width="210" height="96.2963" filterUnits="userSpaceOnUse" color-interpolation-filters="sRGB">
<feFlood flood-opacity="0" result="BackgroundImageFix"/>
<feColorMatrix in="SourceAlpha" type="matrix" values="0 0 0 0 0 0 0 0 0 0 0 0 0 0 0 0 0 0 127 0" result="hardAlpha"/>
<feOffset dy="1.85185"/>
<feGaussianBlur stdDeviation="1.57407"/>
<feColorMatrix type="matrix" values="0 0 0 0 0.219608 0 0 0 0 0.219608 0 0 0 0 0.219608 0 0 0 0.0240741 0"/>
<feBlend mode="normal" in2="BackgroundImageFix" result="effect1_dropShadow_119_7317"/>
<feColorMatrix in="SourceAlpha" type="matrix" values="0 0 0 0 0 0 0 0 0 0 0 0 0 0 0 0 0 0 127 0" result="hardAlpha"/>
<feOffset dy="8.14815"/>
<feGaussianBlur stdDeviation="3.25926"/>
<feColorMatrix type="matrix" values="0 0 0 0 0.219608 0 0 0 0 0.219608 0 0 0 0 0.219608 0 0 0 0.0392593 0"/>
<feBlend mode="normal" in2="effect1_dropShadow_119_7317" result="effect2_dropShadow_119_7317"/>
<feColorMatrix in="SourceAlpha" type="matrix" values="0 0 0 0 0 0 0 0 0 0 0 0 0 0 0 0 0 0 127 0" result="hardAlpha"/>
<feOffset dy="20"/>
<feGaussianBlur stdDeviation="6.5"/>
<feColorMatrix type="matrix" values="0 0 0 0 0.219608 0 0 0 0 0.219608 0 0 0 0 0.219608 0 0 0 0.05 0"/>
<feBlend mode="normal" in2="effect2_dropShadow_119_7317" result="effect3_dropShadow_119_7317"/>
<feBlend mode="normal" in="SourceGraphic" in2="effect3_dropShadow_119_7317" result="shape"/>
</filter>
</defs>
</svg>
