<svg width="82" height="30" viewBox="0 0 82 30" fill="none" xmlns="http://www.w3.org/2000/svg">
<path d="M9.59781 10.1543L0 12.817L6.49946 18.7183L9.59781 16.4972V10.1543Z" fill="#231F20"/>
<path d="M6.74609 19.299L9.59782 28.408V17.1709L6.74609 19.299Z" fill="#231F20"/>
<path d="M27.8068 14.2084C29.7503 12.8025 30.914 10.6168 30.9317 8.09885C30.9612 3.61376 27.2412 0 22.7561 0H12.0949C10.7156 0 9.59766 1.11795 9.59766 2.49729V10.1546L22.3544 6.61613C22.6896 6.52309 22.9008 6.96613 22.6187 7.16846L9.59766 16.4975V17.1709L22.6527 7.81825C22.9333 7.61741 23.2848 7.9556 23.0928 8.24358L9.59913 28.408C9.59913 29.2867 10.3124 30 11.1911 30H23.1711C28.0002 30 31.9803 26.0732 31.8902 21.244C31.834 18.2372 30.3026 15.7207 27.8083 14.2084H27.8068Z" fill="#231F20"/>
<path d="M49.2951 16.7335C48.0841 15.5417 46.4685 14.8845 44.7421 14.8845C43.4366 14.8845 42.3083 15.3896 41.4887 16.0143V9.73633H37.7051V28.2659H41.4902V27.2691C42.4501 28.0503 43.6817 28.5111 44.8972 28.5111C48.5729 28.5111 51.3464 25.615 51.3464 21.7738C51.3464 19.8259 50.6183 18.036 49.2951 16.7335ZM41.4902 21.7738C41.4902 20.0829 42.9168 18.6548 44.6033 18.6548C45.386 18.6548 46.1229 18.9561 46.6782 19.5025C47.2482 20.0637 47.5613 20.8154 47.5613 21.6217C47.5613 23.3127 46.1362 24.7408 44.4482 24.7408C43.6655 24.7408 42.9286 24.4395 42.3733 23.8931C41.8032 23.3319 41.4902 22.5787 41.4902 21.7738Z" fill="#231F20"/>
<path d="M55.4652 9H51.6816V28.265H55.4652V9Z" fill="#231F20"/>
<path d="M60.3188 15.1309H56.5352V28.2671H60.3188V15.1309Z" fill="#231F20"/>
<path d="M58.5069 13.8247C59.6751 13.8247 60.5907 12.9002 60.5922 11.7217C60.5922 11.1384 60.347 10.5624 59.9187 10.14C59.4934 9.72062 58.9367 9.49023 58.3533 9.49023C57.2044 9.49023 56.2695 10.4221 56.2695 11.5696C56.2695 12.1662 56.5176 12.7525 56.9503 13.1778C57.3742 13.5958 57.928 13.8247 58.5099 13.8247H58.5069Z" fill="#231F20"/>
<path d="M66.6499 22.9326L69.797 15.1306H66.966V11.8447H63.1809V15.1306H60.9258V18.9009H63.1809V23.6327C63.1809 25.4226 63.5604 26.6291 64.3741 27.431C65.1126 28.1576 66.1921 28.5106 67.6763 28.5106C68.3172 28.5106 69.0734 28.4249 69.6597 28.289L69.8753 23.9428H67.4769C66.9571 23.9428 66.5155 23.4052 66.6484 22.9312L66.6499 22.9326Z" fill="#231F20"/>
<path d="M81.3678 15.1304H71.29L70.8145 19.3969H74.0118C74.5922 19.3969 75.0456 20.0526 74.793 20.5252L69.7852 28.2652H81.2851V24.6913H76.6627L81.3663 17.9112V15.1289L81.3678 15.1304Z" fill="#231F20"/>
<path d="M38 4.15314V0.0700684H39.3433C39.6626 0.0700684 39.9254 0.122565 40.1318 0.227558C40.3382 0.332552 40.491 0.474487 40.5903 0.653365C40.6896 0.832242 40.7392 1.03445 40.7392 1.25999C40.7392 1.48165 40.6906 1.68191 40.5932 1.86079C40.4959 2.03967 40.344 2.18257 40.1376 2.28951C39.9313 2.39645 39.6665 2.44992 39.3433 2.44992H38.4906V4.15314H38ZM38.4906 2.03578H39.3316C39.6587 2.03578 39.8914 1.96675 40.0296 1.82871C40.1678 1.69066 40.2369 1.50109 40.2369 1.25999C40.2369 1.01501 40.1678 0.823493 40.0296 0.685446C39.8914 0.547399 39.6587 0.478376 39.3316 0.478376H38.4906V2.03578Z" fill="#0D0D0D"/>
<path d="M43.2396 4.22306C42.8386 4.22306 42.4871 4.1346 42.1854 3.95766C41.8836 3.78073 41.648 3.53283 41.4787 3.21396C41.3093 2.89509 41.2246 2.52762 41.2246 2.11153C41.2246 1.69545 41.3093 1.32894 41.4787 1.01202C41.648 0.695095 41.8836 0.447194 42.1854 0.268316C42.4871 0.0894388 42.8386 0 43.2396 0C43.6445 0 43.9979 0.0894388 44.2997 0.268316C44.6014 0.447194 44.836 0.695095 45.0035 1.01202C45.1709 1.32894 45.2546 1.69545 45.2546 2.11153C45.2546 2.52762 45.1709 2.89509 45.0035 3.21396C44.836 3.53283 44.6014 3.78073 44.2997 3.95766C43.9979 4.1346 43.6445 4.22306 43.2396 4.22306ZM43.2396 3.79143C43.5394 3.79143 43.8032 3.72435 44.031 3.59019C44.2588 3.45603 44.4359 3.26354 44.5625 3.01273C44.689 2.76191 44.7523 2.46151 44.7523 2.11153C44.7523 1.76155 44.689 1.46213 44.5625 1.21326C44.4359 0.964383 44.2588 0.772868 44.031 0.638709C43.8032 0.504551 43.5394 0.437472 43.2396 0.437472C42.9398 0.437472 42.676 0.504551 42.4482 0.638709C42.2204 0.772868 42.0433 0.964383 41.9167 1.21326C41.7902 1.46213 41.7269 1.76155 41.7269 2.11153C41.7269 2.46151 41.7902 2.76191 41.9167 3.01273C42.0433 3.26354 42.2204 3.45603 42.4482 3.59019C42.676 3.72435 42.9398 3.79143 43.2396 3.79143Z" fill="#0D0D0D"/>
<path d="M46.8011 4.15898L45.6797 0.0700684H46.2053L47.0873 3.57568L48.0918 0.0700684H48.635L49.6104 3.57568L50.504 0.0700684H51.0296L49.8849 4.15314H49.3242L48.3488 0.78169L47.3501 4.15314L46.8011 4.15898Z" fill="#0D0D0D"/>
<path d="M51.6094 4.15314V0.0700684H54.1383V0.472543H52.1V1.89579H53.9631V2.29243H52.1V3.75067H54.1383V4.15314H51.6094Z" fill="#0D0D0D"/>
<path d="M54.9023 4.15314V0.0700684H56.2223C56.5416 0.0700684 56.8025 0.122565 57.0049 0.227558C57.2074 0.332552 57.3573 0.476431 57.4547 0.659198C57.552 0.841964 57.6007 1.04417 57.6007 1.26583C57.6007 1.52248 57.5316 1.75385 57.3933 1.95995C57.2551 2.16605 57.04 2.31187 56.748 2.39742L57.6416 4.15314H57.0634L56.234 2.46742H56.1989H55.393V4.15314H54.9023ZM55.393 2.08244H56.1873C56.5027 2.08244 56.7324 2.00661 56.8765 1.85495C57.0205 1.7033 57.0926 1.50887 57.0926 1.27166C57.0926 1.03056 57.0215 0.839047 56.8794 0.697112C56.7373 0.555176 56.5046 0.484209 56.1814 0.484209H55.393V2.08244Z" fill="#0D0D0D"/>
<path d="M58.3652 4.15314V0.0700684H60.8942V0.472543H58.8558V1.89579H60.719V2.29243H58.8558V3.75067H60.8942V4.15314H58.3652Z" fill="#0D0D0D"/>
<path d="M61.6602 4.15314V0.0700684H62.9159C63.6362 0.0700684 64.1667 0.252835 64.5074 0.618367C64.8481 0.983899 65.0185 1.48553 65.0185 2.12327C65.0185 2.74934 64.8481 3.24417 64.5074 3.60776C64.1667 3.97135 63.6362 4.15314 62.9159 4.15314H61.6602ZM62.1508 3.74483H62.9042C63.3014 3.74483 63.6177 3.6797 63.8533 3.54943C64.0889 3.41916 64.2573 3.23251 64.3585 2.98947C64.4597 2.74643 64.5103 2.45769 64.5103 2.12327C64.5103 1.78107 64.4597 1.48748 64.3585 1.24249C64.2573 0.997509 64.0889 0.80891 63.8533 0.676696C63.6177 0.544483 63.3014 0.478376 62.9042 0.478376H62.1508V3.74483Z" fill="#0D0D0D"/>
<path d="M67.2734 4.15314V0.0700684H68.7102C68.9983 0.0700684 69.2368 0.11576 69.4257 0.207143C69.6145 0.298526 69.7557 0.422963 69.8491 0.580453C69.9426 0.737943 69.9893 0.913904 69.9893 1.10834C69.9893 1.37276 69.9182 1.58081 69.7761 1.73246C69.634 1.88412 69.4636 1.98911 69.2651 2.04744C69.4169 2.07466 69.5552 2.13494 69.6797 2.22826C69.8043 2.32159 69.9027 2.43825 69.9747 2.57824C70.0467 2.71823 70.0827 2.87183 70.0827 3.03905C70.0827 3.24514 70.0321 3.43277 69.9309 3.60193C69.8297 3.77108 69.6797 3.90524 69.4812 4.0044C69.2826 4.10356 69.0412 4.15314 68.7569 4.15314H67.2734ZM67.764 1.85495H68.6752C68.936 1.85495 69.1366 1.79371 69.2767 1.67122C69.4169 1.54872 69.487 1.3786 69.487 1.16083C69.487 0.954734 69.4179 0.789467 69.2797 0.665031C69.1414 0.540594 68.9341 0.478376 68.6577 0.478376H67.764V1.85495ZM67.764 3.74483H68.7044C68.9847 3.74483 69.2008 3.6797 69.3527 3.54943C69.5045 3.41916 69.5805 3.23737 69.5805 3.00405C69.5805 2.77462 69.5006 2.59088 69.341 2.45283C69.1814 2.31479 68.9653 2.24576 68.6927 2.24576H67.764V3.74483Z" fill="#0D0D0D"/>
<path d="M71.8043 4.15314V2.60157L70.4727 0.0700684H71.0275L72.0496 2.13494L73.0717 0.0700684H73.6207L72.2949 2.60157V4.15314H71.8043Z" fill="#0D0D0D"/>
</svg>
