<?xml version="1.0" encoding="UTF-8"?>
<svg width="90px" height="20px" viewBox="0 0 90 20" version="1.1" xmlns="http://www.w3.org/2000/svg" xmlns:xlink="http://www.w3.org/1999/xlink">
    <title>Group 6</title>
    <g id="Updated" stroke="none" stroke-width="1" fill="none" fill-rule="evenodd">
        <g id="Artboard-Copy-3" transform="translate(-1052.000000, -355.000000)" fill-rule="nonzero">
            <g id="Group-6" transform="translate(1052.000000, 355.000000)">
                <g id="Group-36" transform="translate(19.000000, 2.000000)" fill="#0D0D0D">
                    <g id="POWERED-BY" transform="translate(0.475341, 0.000000)">
                        <path d="M0,2.97034111 L0,0.0500619289 L0.959520303,0.0500619289 C1.1875802,0.0500619289 1.37531243,0.0876083755 1.522717,0.162701269 C1.67012157,0.237794162 1.77928439,0.339308629 1.85020545,0.46724467 C1.92112652,0.59518071 1.95658705,0.73980406 1.95658705,0.90111472 C1.95658705,1.05964416 1.92182183,1.2028769 1.85229137,1.33081294 C1.78276091,1.45874898 1.6742934,1.56095875 1.52688883,1.63744226 C1.37948426,1.71392576 1.19036142,1.75216751 0.959520303,1.75216751 L0.350433502,1.75216751 L0.350433502,2.97034111 L0,2.97034111 Z M0.350433502,1.45596776 L0.951176649,1.45596776 C1.18479898,1.45596776 1.35097678,1.40660114 1.44971002,1.30786789 C1.54844327,1.20913464 1.5978099,1.07355025 1.5978099,0.90111472 C1.5978099,0.725897969 1.54844327,0.588922969 1.44971002,0.49018972 C1.35097678,0.391456472 1.18479898,0.342089847 0.951176649,0.342089847 L0.350433502,0.342089847 L0.350433502,1.45596776 Z" id="Shape"></path>
                        <path d="M3.74212918,3.02040304 C3.4556637,3.02040304 3.20465875,2.95713033 2.98911434,2.8305849 C2.77356992,2.70403946 2.60530622,2.5267368 2.48432322,2.2986769 C2.36334023,2.070617 2.30284873,1.80779188 2.30284873,1.51020152 C2.30284873,1.21261117 2.36334023,0.950481344 2.48432322,0.723812055 C2.60530622,0.497142766 2.77356992,0.319840101 2.98911434,0.191904061 C3.20465875,0.0639680202 3.4556637,0 3.74212918,0 C4.03137588,0 4.28377144,0.0639680202 4.49931586,0.191904061 C4.71486027,0.319840101 4.88242867,0.497142766 5.00202106,0.723812055 C5.12161345,0.950481344 5.18140964,1.21261117 5.18140964,1.51020152 C5.18140964,1.80779188 5.12161345,2.070617 5.00202106,2.2986769 C4.88242867,2.5267368 4.71486027,2.70403946 4.49931586,2.8305849 C4.28377144,2.95713033 4.03137588,3.02040304 3.74212918,3.02040304 Z M3.74212918,2.71168781 C3.95628299,2.71168781 4.14471053,2.6637118 4.3074118,2.56775977 C4.47011307,2.47180774 4.5966585,2.33413743 4.68704809,2.15474886 C4.77743768,1.97536028 4.82263248,1.76051117 4.82263248,1.51020152 C4.82263248,1.25989188 4.77743768,1.04573807 4.68704809,0.867740101 C4.5966585,0.689742131 4.47011307,0.552767131 4.3074118,0.456815101 C4.14471053,0.360863071 3.95628299,0.312887055 3.74212918,0.312887055 C3.52797538,0.312887055 3.33954784,0.360863071 3.17684657,0.456815101 C3.0141453,0.552767131 2.88759987,0.689742131 2.79721028,0.867740101 C2.70682068,1.04573807 2.66162589,1.25989188 2.66162589,1.51020152 C2.66162589,1.76051117 2.70682068,1.97536028 2.79721028,2.15474886 C2.88759987,2.33413743 3.0141453,2.47180774 3.17684657,2.56775977 C3.33954784,2.6637118 3.52797538,2.71168781 3.74212918,2.71168781 Z" id="Shape"></path>
                        <polygon id="Path" points="6.2869439 2.97451294 5.48595304 0.0500619289 5.86141751 0.0500619289 6.49136344 2.5573302 7.20891776 0.0500619289 7.59689771 0.0500619289 8.29359288 2.5573302 8.93188248 0.0500619289 9.30734694 0.0500619289 8.48966877 2.97034111 8.08917334 2.97034111 7.39247816 0.559024872 6.67909568 2.97034111"></polygon>
                        <polygon id="Path" points="9.72035786 2.97034111 9.72035786 0.0500619289 11.5267591 0.0500619289 11.5267591 0.33791802 10.0707914 0.33791802 10.0707914 1.35584391 11.4016043 1.35584391 11.4016043 1.63952817 10.0707914 1.63952817 10.0707914 2.68248502 11.5267591 2.68248502 11.5267591 2.97034111"></polygon>
                        <path d="M12.0732685,2.97034111 L12.0732685,0.0500619289 L13.0161015,0.0500619289 C13.2441614,0.0500619289 13.430503,0.0876083755 13.5751264,0.162701269 C13.7197497,0.237794162 13.8268266,0.340699238 13.8963571,0.471416497 C13.9658875,0.602133756 14.0006528,0.746757106 14.0006528,0.905286547 C14.0006528,1.08884695 13.9512862,1.25432944 13.8525529,1.40173401 C13.7538197,1.54913858 13.6001573,1.65343426 13.391566,1.71462106 L14.0298556,2.97034111 L13.6168447,2.97034111 L13.0244452,1.76468299 L12.9994142,1.76468299 L12.423702,1.76468299 L12.423702,2.97034111 L12.0732685,2.97034111 Z M12.423702,1.48934238 L12.9910705,1.48934238 C13.2163492,1.48934238 13.3804411,1.43510863 13.4833462,1.32664112 C13.5862513,1.2181736 13.6377038,1.07911269 13.6377038,0.909458375 C13.6377038,0.737022842 13.5869466,0.600047842 13.4854321,0.498533375 C13.3839176,0.397018908 13.2177398,0.346261675 12.9868987,0.346261675 L12.423702,0.346261675 L12.423702,1.48934238 Z" id="Shape"></path>
                        <polygon id="Path" points="14.5471622 2.97034111 14.5471622 0.0500619289 16.3535634 0.0500619289 16.3535634 0.33791802 14.8975957 0.33791802 14.8975957 1.35584391 16.2284086 1.35584391 16.2284086 1.63952817 14.8975957 1.63952817 14.8975957 2.68248502 16.3535634 2.68248502 16.3535634 2.97034111"></polygon>
                        <path d="M16.9000728,2.97034111 L16.9000728,0.0500619289 L17.7970157,0.0500619289 C18.3115411,0.0500619289 18.6904821,0.180779188 18.9338387,0.442213705 C19.1771953,0.703648223 19.2988736,1.06242538 19.2988736,1.51854518 C19.2988736,1.96632132 19.1771953,2.32023134 18.9338387,2.58027525 C18.6904821,2.84031916 18.3115411,2.97034111 17.7970157,2.97034111 L16.9000728,2.97034111 Z M17.2505063,2.67831319 L17.7886721,2.67831319 C18.0723563,2.67831319 18.2983303,2.63172779 18.466594,2.53855698 C18.6348577,2.44538616 18.7551454,2.31188769 18.8274571,2.13806155 C18.8997688,1.9642354 18.9359246,1.75772995 18.9359246,1.51854518 C18.9359246,1.27379797 18.8997688,1.06381599 18.8274571,0.888599238 C18.7551454,0.713382487 18.6348577,0.5784934 18.466594,0.483931979 C18.2983303,0.389370558 18.0723563,0.342089847 17.7886721,0.342089847 L17.2505063,0.342089847 L17.2505063,2.67831319 Z" id="Shape"></path>
                        <path d="M20.909199,2.97034111 L20.909199,0.0500619289 L21.9354685,0.0500619289 C22.1412787,0.0500619289 22.3116283,0.0827412436 22.4465174,0.148099873 C22.5814064,0.213458502 22.6822256,0.302457487 22.7489748,0.415096827 C22.8157241,0.527736167 22.8490987,0.653586294 22.8490987,0.792647207 C22.8490987,0.98177005 22.7983415,1.13056523 22.696827,1.23903274 C22.5953125,1.34750025 22.4736342,1.42259315 22.3317921,1.46431142 C22.4402596,1.48377995 22.5389929,1.52688883 22.6279919,1.59363807 C22.7169908,1.66038731 22.7872166,1.74382386 22.8386691,1.84394771 C22.8901217,1.94407157 22.9158479,2.05392969 22.9158479,2.17352208 C22.9158479,2.32092665 22.8796921,2.45512043 22.8073804,2.57610342 C22.7350688,2.69708642 22.6279919,2.79303845 22.4861497,2.86395951 C22.3443076,2.93488058 22.1718721,2.97034111 21.9688431,2.97034111 L20.909199,2.97034111 Z M21.2596325,1.32664112 L21.9104375,1.32664112 C22.0967792,1.32664112 22.2400119,1.28283693 22.3401358,1.19522855 C22.4402596,1.10762018 22.4903215,0.985941877 22.4903215,0.830193654 C22.4903215,0.682789086 22.4409549,0.564587309 22.3422217,0.475588324 C22.2434884,0.38658934 22.0953886,0.342089847 21.8979221,0.342089847 L21.2596325,0.342089847 L21.2596325,1.32664112 Z M21.2596325,2.67831319 L21.9312967,2.67831319 C22.1315444,2.67831319 22.285902,2.63172779 22.3943695,2.53855698 C22.502837,2.44538616 22.5570708,2.31536421 22.5570708,2.14849111 C22.5570708,1.98439924 22.5000558,1.85298667 22.3860259,1.75425342 C22.2719959,1.65552018 22.1176383,1.60615355 21.922953,1.60615355 L21.2596325,1.60615355 L21.2596325,2.67831319 Z" id="Shape"></path>
                        <polygon id="Path" points="24.146537 2.97034111 24.146537 1.86063502 23.1953604 0.0500619289 23.591684 0.0500619289 24.3217538 1.52688883 25.0518236 0.0500619289 25.4439754 0.0500619289 24.4969705 1.86063502 24.4969705 2.97034111"></polygon>
                    </g>
                    <g id="Group-4" transform="translate(0.000000, 5.079769)">
                        <path d="M3.85213731,8.45768873 C4.515626,8.45768873 5.05422271,8.34086982 5.46792743,8.10723201 C5.88163214,7.87359421 6.22508511,7.54260731 6.49828634,7.11427132 L6.60366396,8.45535235 L7.73940048,8.45535235 L7.73940048,3.87838765 L4.26193915,3.87838765 L4.26193915,4.83630267 L6.48657771,4.83630267 C6.41632597,5.59951952 6.17629918,6.21087179 5.76649734,6.67035949 C5.3566955,7.12984717 4.74589561,7.35959102 3.93409768,7.35959102 C3.13010549,7.35959102 2.48613117,7.08701358 2.00217471,6.54185869 C1.51821825,5.9967038 1.27624002,5.23738092 1.27624002,4.26389003 C1.27624002,3.29039916 1.52212112,2.52718231 2.01388333,1.9742395 C2.50564554,1.42129668 3.18084286,1.14482527 4.0394753,1.14482527 C4.61710074,1.14482527 5.08934859,1.2694321 5.4562188,1.51864576 C5.82308902,1.76785943 6.06897013,2.11052822 6.19386211,2.54665214 L7.598897,2.54665214 C7.41155901,1.75228358 7.00566005,1.12924941 6.3812001,0.67754965 C5.75674015,0.225849883 4.97616522,0 4.0394753,0 C3.21206586,0 2.49588836,0.181069303 1.89094279,0.543207909 C1.28599721,0.905346514 0.819603682,1.40572082 0.49176221,2.04433084 C0.163920736,2.68294085 0,3.41889996 0,4.25220815 C0,5.09330426 0.160017862,5.82926337 0.480053586,6.46008545 C0.80008931,7.09090754 1.24891989,7.58154694 1.82654535,7.93200366 C2.4041708,8.28246037 3.07936812,8.45768873 3.85213731,8.45768873 Z" id="Path"></path>
                        <path d="M9.9160337,8.45535235 L9.9160337,5.5699254 C9.9160337,5.09486185 9.99604262,4.72298833 10.1560605,4.45430485 C10.3160784,4.18562137 10.5307365,3.99481716 10.8000348,3.88189221 C11.0693332,3.76896727 11.3757088,3.7125048 11.7191618,3.7125048 L12.0587119,3.7125048 L12.0587119,2.41581496 C11.5435325,2.41581496 11.104459,2.52679292 10.7414917,2.74874884 C10.3785243,2.97070476 10.0955659,3.27248692 9.89261644,3.65409535 L9.78723883,2.41581496 L8.67491954,2.41581496 L8.67491954,8.45535235 L9.9160337,8.45535235 Z" id="Path"></path>
                        <g id="Group-2" transform="translate(12.675054, 2.415815)">
                            <path d="M2.92190964,0 C3.4729205,0 3.96766615,0.125823695 4.40614661,0.377471087 C4.84462708,0.629118479 5.19385931,0.981424826 5.4538433,1.43439013 C5.71382729,1.88735544 5.84381928,2.41581496 5.84381928,3.0197687 C5.84381928,3.62372244 5.71382729,4.15218196 5.4538433,4.60514726 C5.19385931,5.05811257 4.8426869,5.41041891 4.40032607,5.66206631 C3.95796526,5.9137137 3.46127941,6.03953739 2.91026857,6.03953739 C2.35925772,6.03953739 1.86451206,5.9137137 1.4260316,5.66206631 C0.987551135,5.41041891 0.640259085,5.05811257 0.384155452,4.60514726 C0.128051817,4.15218196 0,3.62372244 0,3.0197687 C0,2.41581496 0.129991996,1.88735544 0.389975988,1.43439013 C0.649959981,0.981424826 1.00113239,0.629118479 1.44349321,0.377471087 C1.88585404,0.125823695 2.37865951,0 2.92190964,0 Z M2.92190964,1.05691904 C2.62700242,1.05691904 2.35343718,1.13047751 2.10121391,1.27759445 C1.84899063,1.42471139 1.64527183,1.64345105 1.4900575,1.93381341 C1.33484318,2.22417579 1.25723602,2.58616089 1.25723602,3.0197687 C1.25723602,3.4533765 1.33484318,3.8153616 1.4900575,4.10572398 C1.64527183,4.39608635 1.84705045,4.61482601 2.09539337,4.76194294 C2.34373629,4.90905988 2.61536135,4.98261835 2.91026857,4.98261835 C3.20517579,4.98261835 3.47874103,4.90905988 3.73096431,4.76194294 C3.98318758,4.61482601 4.18690639,4.39608635 4.34212071,4.10572398 C4.49733503,3.8153616 4.57494219,3.4533765 4.57494219,3.0197687 C4.57494219,2.58616089 4.49927521,2.22417579 4.34794124,1.93381341 C4.19660728,1.64345105 3.99482866,1.42471139 3.74260538,1.27759445 C3.4903821,1.13047751 3.21681686,1.05691904 2.92190964,1.05691904 Z" id="Combined-Shape"></path>
                            <polygon id="Path" points="9.44586039 6.03953739 10.7806435 1.23828039 12.1154267 6.03953739 13.3916667 6.03953739 15.1011258 0 13.8600116 0 12.7359837 4.61434675 11.4714524 0 10.0898347 0 8.82530331 4.61434675 7.70127541 0 6.46016125 0 8.16962036 6.03953739"></polygon>
                        </g>
                        <g id="Group-3" transform="translate(29.647218, 0.000000)">
                            <path d="M3.03253363,8.45768873 C3.64918783,8.45768873 4.16827015,8.34671077 4.58978063,8.12475485 C5.01129109,7.90279893 5.32742393,7.61464563 5.53817916,7.26029495 C5.74893441,6.90594427 5.85431202,6.52238887 5.85431202,6.10962874 C5.85431202,5.64235311 5.75869158,5.25685073 5.56745073,4.95312158 C5.37620987,4.64939242 5.12057158,4.40407272 4.80053586,4.21716247 C4.48050014,4.03025223 4.11753278,3.87059973 3.71163382,3.73820496 C3.29012335,3.59023435 2.91544738,3.45978657 2.58760591,3.34686163 C2.25976444,3.23393669 2.00217471,3.09180702 1.81483673,2.92047263 C1.62749874,2.74913823 1.53382975,2.50381853 1.53382975,2.18451352 C1.53382975,1.82626889 1.66067318,1.54590351 1.91436003,1.34341741 C2.16804689,1.1409313 2.49003405,1.04358222 2.88032152,1.05137015 C3.18474574,1.05137015 3.44233546,1.11367357 3.6530907,1.23828039 C3.86384593,1.36288722 4.02386379,1.52059274 4.13314429,1.71139696 C4.24242478,1.90220117 4.29706502,2.10274029 4.29706502,2.31301432 L4.29706502,2.31301432 L5.60843091,2.31301432 C5.60062516,1.85352662 5.48353892,1.45050141 5.25717219,1.10393865 C5.03080547,0.757375901 4.71662405,0.486745438 4.31462796,0.292047263 C3.91263187,0.0973490876 3.44623834,0 2.91544738,0 C2.37685068,0 1.90655428,0.0954021058 1.50455819,0.286206318 C1.1025621,0.477010529 0.790332122,0.74374703 0.567868266,1.08641582 C0.345404409,1.42908461 0.238075356,1.83016285 0.245881104,2.28965054 C0.245881104,2.83480543 0.40394753,3.2748233 0.720080378,3.60970416 C1.03621323,3.94458503 1.51041251,4.21716247 2.1426782,4.4274365 C2.46271392,4.53646748 2.76713815,4.63771054 3.05595087,4.73116566 C3.3447636,4.82462078 3.6004019,4.92975779 3.82286575,5.0465767 C4.0453296,5.16339561 4.22095896,5.31136622 4.34975383,5.49048854 C4.4785487,5.66961086 4.54294612,5.90324867 4.54294612,6.19140197 C4.54294612,6.54964662 4.40829695,6.84364085 4.1389986,7.0733847 C3.86970025,7.30312855 3.49697571,7.41800047 3.020825,7.41800047 C2.4822283,7.41800047 2.0646207,7.2661359 1.76800223,6.96240674 C1.47138375,6.65867759 1.31917164,6.28875105 1.31136589,5.85262714 L1.31136589,5.85262714 L0,5.85262714 C0.00780574936,6.38999411 0.138552051,6.85337576 0.392238905,7.24277211 C0.64592576,7.63216847 0.999135917,7.93200366 1.45186938,8.14227769 C1.90460284,8.35255172 2.43149093,8.45768873 3.03253363,8.45768873 Z" id="Path"></path>
                            <g id="Group" transform="translate(6.789831, 0.000000)">
                                <path d="M0.620744412,1.23865421 C0.800670328,1.23865421 0.949109209,1.17989754 1.06606106,1.06238419 C1.18301291,0.944870843 1.24148882,0.797185149 1.24148882,0.619327107 C1.24148882,0.441469066 1.18301291,0.293783372 1.06606106,0.176270023 C0.949109209,0.0587566743 0.800670328,0 0.620744412,0 C0.440818495,0 0.292379614,0.0587566743 0.175427768,0.176270023 C0.0584759229,0.293783372 0,0.441469066 0,0.619327107 C0,0.797185149 0.0584759229,0.944870843 0.175427768,1.06238419 C0.292379614,1.17989754 0.440818495,1.23865421 0.620744412,1.23865421 Z" id="Path"></path>
                                <polygon id="Path" points="1.24111414 8.45535235 1.24111414 2.41581496 0 2.41581496 0 8.45535235"></polygon>
                            </g>
                            <path d="M10.2079531,8.45535235 L10.2079531,5.35965136 C10.2079531,4.75219305 10.3465052,4.28491744 10.6236093,3.95782451 C10.9007134,3.63073157 11.2539235,3.4671851 11.6832397,3.4671851 C12.5496779,3.4671851 12.982897,4.02791585 12.982897,5.14937733 L12.982897,8.45535235 L14.2240112,8.45535235 L14.2240112,5.35965136 C14.2240112,4.75219305 14.3625632,4.28491744 14.6396674,3.95782451 C14.9167714,3.63073157 15.2738845,3.4671851 15.7110064,3.4671851 C16.5696389,3.4671851 16.9989551,4.02791585 16.9989551,5.14937733 L16.9989551,8.45535235 L18.2400693,8.45535235 L18.2400693,5.02087655 C18.2400693,4.15641664 18.0332169,3.50612474 17.6195122,3.07000082 C17.2058074,2.63387691 16.6359877,2.41581496 15.910053,2.41581496 C15.4963482,2.41581496 15.1119152,2.51316404 14.7567535,2.70786222 C14.401592,2.90256039 14.1186335,3.16734991 13.9078783,3.50223077 C13.5488138,2.77795356 12.9087424,2.41581496 11.987664,2.41581496 C11.581765,2.41581496 11.224652,2.50148215 10.9163249,2.67281655 C10.6079978,2.84415094 10.3601652,3.07778875 10.1728272,3.37372998 L10.0674496,2.41581496 L8.96683897,2.41581496 L8.96683897,8.45535235 L10.2079531,8.45535235 Z" id="Path"></path>
                            <path d="M20.2879075,2.41581496 L20.4167024,3.45550321 C20.6040404,3.18292577 20.8616301,2.94150003 21.1894716,2.731226 C21.517313,2.52095197 21.9388235,2.41581496 22.454003,2.41581496 C23.016017,2.41581496 23.5116821,2.54820972 23.9409983,2.81299924 C24.3703144,3.07778875 24.7079131,3.43992735 24.9537943,3.89941505 C25.1996753,4.35890275 25.3226158,4.88069385 25.3226158,5.46478838 C25.3226158,6.04888291 25.1996753,6.56872703 24.9537943,7.02432076 C24.7079131,7.4799145 24.3703144,7.83815913 23.9409983,8.09905468 C23.5116821,8.35995025 23.0121141,8.49039802 22.4422944,8.49039802 C21.9895609,8.49039802 21.5895163,8.40083686 21.2421604,8.22171454 C20.8948046,8.04259222 20.6196519,7.78948459 20.4167024,7.46239166 L20.4167024,7.46239166 L20.4167024,10.9202312 L19.1755883,10.9202312 L19.1755883,2.41581496 L20.2879075,2.41581496 Z M22.2315391,3.49054888 C21.7007482,3.49054888 21.2655776,3.67356517 20.9260276,4.03959773 C20.5864774,4.40563031 20.4167024,4.87679989 20.4167024,5.45310649 C20.4167024,6.03720101 20.5864774,6.51031758 20.9260276,6.87245619 C21.2655776,7.23459479 21.7007482,7.4156641 22.2315391,7.4156641 C22.7623301,7.4156641 23.199452,7.23459479 23.5429051,6.87245619 C23.886358,6.51031758 24.0580845,6.03720101 24.0580845,5.45310649 C24.0580845,5.07149807 23.980027,4.73272324 23.823912,4.43678201 C23.667797,4.14084079 23.4531389,3.90914996 23.1799377,3.74170953 C22.9067365,3.5742691 22.5906036,3.49054888 22.2315391,3.49054888 Z" id="Combined-Shape"></path>
                            <polygon id="Path" points="27.4992491 8.45535235 27.4992491 0 26.2581349 0 26.2581349 8.45535235"></polygon>
                            <path d="M31.3736328,2.41581496 C31.9434525,2.41581496 32.4391176,2.54236877 32.860628,2.7954764 C33.2821385,3.04858402 33.60998,3.38541187 33.8441524,3.80595993 C34.0783249,4.22650799 34.1954112,4.68988965 34.1954112,5.19610489 C34.1954112,5.27398417 34.1934597,5.35770438 34.1895568,5.44726555 C34.185654,5.5368267 34.1797997,5.63612277 34.171994,5.74515375 L34.171994,5.74515375 L29.6524651,5.74515375 L29.6565527,5.79732868 C29.7032234,6.33240262 29.8872473,6.74139997 30.2086246,7.02432076 C30.5403691,7.31636803 30.9248022,7.46239166 31.3619242,7.46239166 C31.7131829,7.46239166 32.0078499,7.38256541 32.2459253,7.2229129 C32.4840006,7.06326039 32.6615814,6.84714542 32.7786676,6.57456798 L32.7786676,6.57456798 L34.0197818,6.57456798 L34.0036564,6.62878494 C33.8428103,7.14999628 33.5379068,7.58751768 33.0889462,7.94134916 C32.6245041,8.30738174 32.0488302,8.49039802 31.3619242,8.49039802 C30.7921045,8.49039802 30.2866822,8.36384421 29.8456573,8.11073658 C29.4046325,7.85762895 29.0592281,7.50522525 28.8094441,7.05352549 C28.5596602,6.60182573 28.4347681,6.07614065 28.4347681,5.47647027 C28.4347681,4.86901196 28.5577087,4.33553896 28.8035898,3.87605127 C29.0494709,3.41656358 29.3929239,3.05831893 29.8339487,2.80131734 C30.2749735,2.54431576 30.7882016,2.41581496 31.3736328,2.41581496 Z M31.3619242,3.43213943 C30.9482195,3.43213943 30.5813492,3.55479928 30.2613135,3.80011899 C29.9412777,4.04543868 29.7461341,4.41341824 29.6758823,4.90405764 L29.6758823,4.90405764 L32.954297,4.90405764 C32.9308798,4.45235787 32.7708619,4.09411322 32.4742435,3.82932371 C32.1776249,3.56453419 31.8068519,3.43213943 31.3619242,3.43213943 Z" id="Combined-Shape"></path>
                            <path d="M38.0697948,2.41581496 C38.6396145,2.41581496 39.1352796,2.54236877 39.5567902,2.7954764 C39.9783006,3.04858402 40.306142,3.38541187 40.5403146,3.80595993 C40.774487,4.22650799 40.8915732,4.68988965 40.8915732,5.19610489 C40.8915732,5.27398417 40.8896219,5.35770438 40.885719,5.44726555 C40.8818161,5.5368267 40.8759617,5.63612277 40.868156,5.74515375 L40.868156,5.74515375 L36.3486271,5.74515375 L36.3527149,5.79732868 C36.3993855,6.33240262 36.5834095,6.74139997 36.9047868,7.02432076 C37.2365311,7.31636803 37.6209643,7.46239166 38.0580862,7.46239166 C38.409345,7.46239166 38.704012,7.38256541 38.9420873,7.2229129 C39.1801627,7.06326039 39.3577435,6.84714542 39.4748298,6.57456798 L39.4748298,6.57456798 L40.7159438,6.57456798 L40.6998185,6.62878494 C40.5389724,7.14999628 40.234069,7.58751768 39.7851083,7.94134916 C39.3206663,8.30738174 38.7449922,8.49039802 38.0580862,8.49039802 C37.4882665,8.49039802 36.9828443,8.36384421 36.5418195,8.11073658 C36.1007946,7.85762895 35.7553901,7.50522525 35.5056062,7.05352549 C35.2558222,6.60182573 35.1309303,6.07614065 35.1309303,5.47647027 C35.1309303,4.86901196 35.2538708,4.33553896 35.4997518,3.87605127 C35.745633,3.41656358 36.0890859,3.05831893 36.5301109,2.80131734 C36.9711357,2.54431576 37.4843636,2.41581496 38.0697948,2.41581496 Z M38.0580862,3.43213943 C37.6443815,3.43213943 37.2775113,3.55479928 36.9574755,3.80011899 C36.6374399,4.04543868 36.4422961,4.41341824 36.3720443,4.90405764 L36.3720443,4.90405764 L39.6504591,4.90405764 C39.6270418,4.45235787 39.467024,4.09411322 39.1704055,3.82932371 C38.8737871,3.56453419 38.5030139,3.43213943 38.0580862,3.43213943 Z" id="Combined-Shape"></path>
                        </g>
                    </g>
                </g>
                <g id="Group-5" fill="#000000">
                    <polygon id="Path" points="7.5 15.176 4.168 13.232 4.168 11.232 2.779 10.584 2.779 14.03 7.5 16.784 11.309 14.562 9.777 13.847"></polygon>
                    <polygon id="Path" points="15 11.685 15 4.375 7.5 0 0 4.375 0 4.691 0 6.223 0 7.756 0 9.288 0 15.625 7.5 20 14.373 15.991 15 15.625 15 14.75 15 13.218 13.611 12.57 12.221 11.922 10.832 11.274 7.889 9.902 4.168 8.167 4.168 6.768 4.232 6.731 4.295 6.694 7.5 4.824 10.832 6.768 10.832 9.742 12.221 10.39 12.221 5.97 7.5 3.216 2.779 5.97 2.779 5.987 2.779 7.519 2.779 9.052 4.168 9.699 8.921 11.916 10.832 12.807 11.574 13.153 12.221 13.455 13.611 14.103 13.611 14.827 12.841 15.276 7.5 18.392 1.389 14.827 1.389 9.936 1.389 8.403 1.389 6.871 1.389 5.338 1.389 5.173 7.5 1.608 13.611 5.173 13.611 11.038"></polygon>
                </g>
            </g>
        </g>
    </g>
</svg>