<svg width="138" height="40" viewBox="0 0 138 40" fill="none" xmlns="http://www.w3.org/2000/svg">
<path d="M15 30.352L8.336 26.464V22.464L5.558 21.168V28.06L15 33.568L22.618 29.124L19.554 27.694L15 30.352Z" fill="#0D0C22"/>
<path d="M30 23.37V8.75L15 0L0 8.75V9.382V12.446V15.512V18.576V31.25L15 40L28.746 31.982L30 31.25V29.5V26.436L27.222 25.14L24.442 23.844L21.664 22.548L15.778 19.804L8.336 16.334V13.536L8.464 13.462L8.59 13.388L15 9.648L21.664 13.536V19.484L24.442 20.78V11.94L15 6.432L5.558 11.94V11.974V15.038V18.104L8.336 19.398L17.842 23.832L21.664 25.614L23.148 26.306L24.442 26.91L27.222 28.206V29.654L25.682 30.552L15 36.784L2.778 29.654V19.872V16.806V13.742V10.676V10.346L15 3.216L27.222 10.346V22.076L30 23.37Z" fill="#0D0C22"/>
<path d="M41.04 26.0834C42.0045 26.0834 42.7875 25.9132 43.3889 25.5728C43.9904 25.2324 44.4896 24.7501 44.8868 24.126L45.04 26.08H46.6911V19.4111H41.6357V20.8068H44.8698C44.7677 21.9189 44.4187 22.8097 43.823 23.4792C43.2272 24.1487 42.3393 24.4834 41.1592 24.4834C39.9904 24.4834 39.0542 24.0863 38.3506 23.2919C37.6471 22.4976 37.2953 21.3912 37.2953 19.9728C37.2953 18.5543 37.6528 17.4423 38.3677 16.6366C39.0826 15.8309 40.0641 15.4281 41.3123 15.4281C42.1521 15.4281 42.8386 15.6097 43.3719 15.9728C43.9052 16.3359 44.2627 16.8352 44.4443 17.4706H46.4868C46.2145 16.3132 45.6244 15.4054 44.7166 14.7472C43.8088 14.0891 42.674 13.76 41.3123 13.76C40.1095 13.76 39.0684 14.0238 38.1889 14.5515C37.3095 15.0792 36.6315 15.8082 36.1549 16.7387C35.6783 17.6692 35.44 18.7416 35.44 19.9558C35.44 21.1813 35.6726 22.2536 36.1379 23.1728C36.6031 24.0919 37.2556 24.8068 38.0953 25.3175C38.935 25.8281 39.9166 26.0834 41.04 26.0834Z" fill="#0D0C22"/>
<path d="M49.8553 26.08V21.8757C49.8553 21.1835 49.9716 20.6417 50.2042 20.2502C50.4369 19.8587 50.7489 19.5807 51.1404 19.4162C51.5319 19.2516 51.9773 19.1694 52.4766 19.1694H52.9702V17.28C52.2213 17.28 51.583 17.4417 51.0553 17.7651C50.5277 18.0885 50.1163 18.5282 49.8213 19.0843L49.6681 17.28H48.0511V26.08H49.8553Z" fill="#0D0C22"/>
<path d="M58.1139 17.28C58.9149 17.28 59.6342 17.4633 60.2716 17.83C60.909 18.1967 61.4167 18.71 61.7947 19.37C62.1726 20.03 62.3616 20.8 62.3616 21.68C62.3616 22.56 62.1726 23.33 61.7947 23.99C61.4167 24.65 60.9062 25.1633 60.2631 25.53C59.6201 25.8967 58.898 26.08 58.097 26.08C57.296 26.08 56.5767 25.8967 55.9393 25.53C55.3019 25.1633 54.797 24.65 54.4247 23.99C54.0524 23.33 53.8662 22.56 53.8662 21.68C53.8662 20.8 54.0552 20.03 54.4331 19.37C54.8111 18.71 55.3216 18.1967 55.9647 17.83C56.6077 17.4633 57.3242 17.28 58.1139 17.28ZM58.1139 18.82C57.6852 18.82 57.2875 18.9272 56.9208 19.1415C56.5542 19.3559 56.258 19.6746 56.0324 20.0977C55.8067 20.5208 55.6939 21.0482 55.6939 21.68C55.6939 22.3118 55.8067 22.8392 56.0324 23.2623C56.258 23.6854 56.5513 24.0041 56.9124 24.2185C57.2734 24.4328 57.6683 24.54 58.097 24.54C58.5257 24.54 58.9234 24.4328 59.2901 24.2185C59.6567 24.0041 59.9529 23.6854 60.1785 23.2623C60.4042 22.8392 60.517 22.3118 60.517 21.68C60.517 21.0482 60.407 20.5208 60.187 20.0977C59.967 19.6746 59.6736 19.3559 59.307 19.1415C58.9403 18.9272 58.5426 18.82 58.1139 18.82Z" fill="#0D0C22"/>
<path d="M67.598 26.08L69.5384 19.0842L71.4789 26.08H73.3342L75.8193 17.28H74.015L72.381 24.0034L70.5427 17.28H68.5342L66.6959 24.0034L65.0619 17.28H63.2576L65.7427 26.08H67.598Z" fill="#0D0C22"/>
<path d="M82.9478 26.0834C83.8443 26.0834 84.5989 25.9217 85.2116 25.5983C85.8244 25.2749 86.284 24.855 86.5904 24.3387C86.8968 23.8224 87.0499 23.2636 87.0499 22.6621C87.0499 21.9813 86.9109 21.4196 86.6329 20.977C86.3549 20.5345 85.9833 20.177 85.518 19.9047C85.0528 19.6323 84.5251 19.3997 83.9351 19.2068C83.3223 18.9912 82.7776 18.8011 82.301 18.6366C81.8244 18.4721 81.4499 18.265 81.1776 18.0153C80.9053 17.7657 80.7691 17.4082 80.7691 16.943C80.7691 16.421 80.9535 16.0125 81.3223 15.7175C81.6911 15.4224 82.1592 15.2806 82.7265 15.2919C83.1691 15.2919 83.5436 15.3827 83.8499 15.5643C84.1563 15.7458 84.389 15.9756 84.5478 16.2536C84.7067 16.5316 84.7861 16.8238 84.7861 17.1302H86.6925C86.6811 16.4607 86.5109 15.8735 86.1819 15.3685C85.8528 14.8636 85.396 14.4692 84.8116 14.1855C84.2272 13.9019 83.5492 13.76 82.7776 13.76C81.9946 13.76 81.3109 13.899 80.7265 14.177C80.1421 14.455 79.6882 14.8437 79.3648 15.343C79.0414 15.8423 78.8854 16.4267 78.8968 17.0962C78.8968 17.8905 79.1265 18.5316 79.5861 19.0196C80.0457 19.5075 80.7351 19.9047 81.6542 20.2111C82.1194 20.3699 82.562 20.5175 82.9819 20.6536C83.4017 20.7898 83.7733 20.943 84.0968 21.1132C84.4202 21.2834 84.6755 21.499 84.8627 21.76C85.0499 22.021 85.1436 22.3614 85.1436 22.7813C85.1436 23.3033 84.9478 23.7316 84.5563 24.0664C84.1648 24.4011 83.623 24.5685 82.9308 24.5685C82.1478 24.5685 81.5407 24.3472 81.1095 23.9047C80.6783 23.4621 80.457 22.9231 80.4457 22.2877H78.5393C78.5507 23.0706 78.7407 23.7458 79.1095 24.3132C79.4783 24.8806 79.9918 25.3175 80.6499 25.6238C81.3081 25.9302 82.0741 26.0834 82.9478 26.0834Z" fill="#0D0C22"/>
<path d="M89.3123 15.5648C89.5739 15.5648 89.7897 15.4792 89.9597 15.308C90.1297 15.1367 90.2147 14.9216 90.2147 14.6624C90.2147 14.4033 90.1297 14.1881 89.9597 14.0168C89.7897 13.8456 89.5739 13.76 89.3123 13.76C89.0508 13.76 88.835 13.8456 88.665 14.0168C88.495 14.1881 88.4099 14.4033 88.4099 14.6624C88.4099 14.9216 88.495 15.1367 88.665 15.308C88.835 15.4792 89.0508 15.5648 89.3123 15.5648Z" fill="#0D0C22"/>
<path d="M90.2142 26.08V17.28H88.4099V26.08H90.2142Z" fill="#0D0C22"/>
<path d="M93.379 26.08V21.5694C93.379 20.6843 93.5804 20.0034 93.9832 19.5268C94.3861 19.0502 94.8996 18.8119 95.5237 18.8119C96.7832 18.8119 97.413 19.6289 97.413 21.263V26.08H99.2173V21.5694C99.2173 20.6843 99.4187 20.0034 99.8215 19.5268C100.224 19.0502 100.744 18.8119 101.379 18.8119C102.627 18.8119 103.251 19.6289 103.251 21.263V26.08H105.056V21.0757C105.056 19.8162 104.755 18.8687 104.153 18.2332C103.552 17.5977 102.724 17.28 101.668 17.28C101.067 17.28 100.508 17.4218 99.9918 17.7055C99.4754 17.9892 99.0641 18.375 98.7577 18.863C98.2357 17.8077 97.3052 17.28 95.9662 17.28C95.3762 17.28 94.857 17.4048 94.4088 17.6545C93.9606 17.9041 93.6003 18.2445 93.3279 18.6757L93.1747 17.28H91.5747V26.08H93.379Z" fill="#0D0C22"/>
<path d="M108.033 17.28L108.22 18.7949C108.492 18.3977 108.867 18.046 109.343 17.7396C109.82 17.4332 110.433 17.28 111.182 17.28C111.999 17.28 112.719 17.4729 113.343 17.8587C113.967 18.2445 114.458 18.7722 114.816 19.4417C115.173 20.1112 115.352 20.8715 115.352 21.7226C115.352 22.5736 115.173 23.3311 114.816 23.9949C114.458 24.6587 113.967 25.1807 113.343 25.5608C112.719 25.941 111.993 26.1311 111.165 26.1311C110.506 26.1311 109.925 26.0006 109.42 25.7396C108.915 25.4786 108.515 25.1098 108.22 24.6332V29.6715H106.416V17.28H108.033ZM110.858 18.846C110.087 18.846 109.454 19.1126 108.96 19.646C108.467 20.1793 108.22 20.8658 108.22 21.7055C108.22 22.5566 108.467 23.246 108.96 23.7736C109.454 24.3013 110.087 24.5651 110.858 24.5651C111.63 24.5651 112.265 24.3013 112.765 23.7736C113.264 23.246 113.513 22.5566 113.513 21.7055C113.513 21.1495 113.4 20.6559 113.173 20.2247C112.946 19.7935 112.634 19.4559 112.237 19.2119C111.84 18.9679 111.38 18.846 110.858 18.846Z" fill="#0D0C22"/>
<path d="M118.516 26.08V13.76H116.712V26.08H118.516Z" fill="#0D0C22"/>
<path d="M124.148 17.28C124.977 17.28 125.697 17.4644 126.31 17.8332C126.923 18.202 127.399 18.6928 127.74 19.3055C128.08 19.9183 128.25 20.5935 128.25 21.3311C128.25 21.4445 128.248 21.5665 128.242 21.697C128.236 21.8275 128.228 21.9722 128.216 22.1311H121.646L121.652 22.2071C121.72 22.9867 121.988 23.5827 122.455 23.9949C122.937 24.4204 123.496 24.6332 124.131 24.6332C124.642 24.6332 125.07 24.5169 125.416 24.2843C125.763 24.0516 126.021 23.7367 126.191 23.3396H127.995L127.972 23.4186C127.738 24.178 127.295 24.8155 126.642 25.3311C125.967 25.8644 125.13 26.1311 124.131 26.1311C123.303 26.1311 122.568 25.9467 121.927 25.5779C121.286 25.2091 120.784 24.6956 120.421 24.0374C120.058 23.3793 119.876 22.6133 119.876 21.7396C119.876 20.8545 120.055 20.0772 120.412 19.4077C120.77 18.7382 121.269 18.2162 121.91 17.8417C122.551 17.4672 123.297 17.28 124.148 17.28ZM124.131 18.7609C123.53 18.7609 122.997 18.9396 122.531 19.297C122.066 19.6545 121.782 20.1906 121.68 20.9055H126.446C126.412 20.2474 126.18 19.7254 125.748 19.3396C125.317 18.9538 124.778 18.7609 124.131 18.7609Z" fill="#0D0C22"/>
<path d="M133.883 17.28C134.711 17.28 135.432 17.4644 136.045 17.8332C136.657 18.202 137.134 18.6928 137.474 19.3055C137.815 19.9183 137.985 20.5935 137.985 21.3311C137.985 21.4445 137.982 21.5665 137.976 21.697C137.971 21.8275 137.962 21.9722 137.951 22.1311H131.381L131.387 22.2071C131.454 22.9867 131.722 23.5827 132.189 23.9949C132.671 24.4204 133.23 24.6332 133.866 24.6332C134.376 24.6332 134.805 24.5169 135.151 24.2843C135.497 24.0516 135.755 23.7367 135.925 23.3396H137.73L137.706 23.4186C137.472 24.178 137.029 24.8155 136.376 25.3311C135.701 25.8644 134.864 26.1311 133.866 26.1311C133.037 26.1311 132.303 25.9467 131.662 25.5779C131.02 25.2091 130.518 24.6956 130.155 24.0374C129.792 23.3793 129.61 22.6133 129.61 21.7396C129.61 20.8545 129.789 20.0772 130.147 19.4077C130.504 18.7382 131.003 18.2162 131.645 17.8417C132.286 17.4672 133.032 17.28 133.883 17.28ZM133.866 18.7609C133.264 18.7609 132.731 18.9396 132.266 19.297C131.801 19.6545 131.517 20.1906 131.415 20.9055H136.181C136.147 20.2474 135.914 19.7254 135.483 19.3396C135.052 18.9538 134.513 18.7609 133.866 18.7609Z" fill="#0D0C22"/>
</svg>
