<?xml version="1.0" encoding="utf-8"?>
<!-- Generator: Adobe Illustrator 26.5.0, SVG Export Plug-In . SVG Version: 6.00 Build 0)  -->
<svg version="1.1" id="Layer_1" xmlns="http://www.w3.org/2000/svg" xmlns:xlink="http://www.w3.org/1999/xlink" x="0px" y="0px"
	 viewBox="0 0 15 20" style="enable-background:new 0 0 15 20;" xml:space="preserve">
<g>
	<polygon id="Path_00000022562293605359444240000003304223731522514608_" points="7.5,15.2 4.2,13.2 4.2,11.2 2.8,10.6 2.8,14 
		7.5,16.8 11.3,14.6 9.8,13.8 	"/>
	<polygon id="Path_00000010993131385697378250000001700650058175026361_" points="15,11.7 15,4.4 7.5,0 0,4.4 0,4.7 0,6.2 0,7.8 
		0,9.3 0,15.6 7.5,20 14.4,16 15,15.6 15,14.8 15,13.2 13.6,12.6 12.2,11.9 10.8,11.3 7.9,9.9 4.2,8.2 4.2,6.8 4.2,6.7 4.3,6.7 
		7.5,4.8 10.8,6.8 10.8,9.7 12.2,10.4 12.2,6 7.5,3.2 2.8,6 2.8,6 2.8,7.5 2.8,9.1 4.2,9.7 8.9,11.9 10.8,12.8 11.6,13.2 12.2,13.5 
		13.6,14.1 13.6,14.8 12.8,15.3 7.5,18.4 1.4,14.8 1.4,9.9 1.4,8.4 1.4,6.9 1.4,5.3 1.4,5.2 7.5,1.6 13.6,5.2 13.6,11 	"/>
</g>
</svg>
