<svg width="15" height="20" viewBox="0 0 15 20" fill="none" xmlns="http://www.w3.org/2000/svg">
<path d="M7.50005 15.2L4.20005 13.2V11.2L2.80005 10.6V14L7.50005 16.8L11.3 14.6L9.80005 13.8L7.50005 15.2Z" fill="black"/>
<path d="M15 11.7V4.4L7.5 0L0 4.4V4.7V6.2V7.8V9.3V15.6L7.5 20L14.4 16L15 15.6V14.8V13.2L13.6 12.6L12.2 11.9L10.8 11.3L7.9 9.9L4.2 8.2V6.8V6.7H4.3L7.5 4.8L10.8 6.8V9.7L12.2 10.4V6L7.5 3.2L2.8 6V7.5V9.1L4.2 9.7L8.9 11.9L10.8 12.8L11.6 13.2L12.2 13.5L13.6 14.1V14.8L12.8 15.3L7.5 18.4L1.4 14.8V9.9V8.4V6.9V5.3V5.2L7.5 1.6L13.6 5.2V11L15 11.7Z" fill="black"/>
</svg>
