<svg width="28" height="46" viewBox="0 0 28 46" fill="none" xmlns="http://www.w3.org/2000/svg">
<g opacity="0.5" filter="url(#filter0_f_609_11874)">
<circle cx="14.0001" cy="39.037" r="1.92593" fill="#070707"/>
</g>
<mask id="path-2-outside-1_609_11874" maskUnits="userSpaceOnUse" x="0" y="0" width="28" height="37" fill="black">
<rect fill="white" width="28" height="37"/>
<path fill-rule="evenodd" clip-rule="evenodd" d="M15.9261 26.8583C22.1924 25.9276 27 20.5253 27 14C27 6.8203 21.1797 1 14 1C6.8203 1 1 6.8203 1 14C1 20.5254 5.80774 25.9278 12.0742 26.8583V33.2593C12.0742 34.3229 12.9365 35.1852 14.0001 35.1852C15.0638 35.1852 15.9261 34.3229 15.9261 33.2593V26.8583Z"/>
</mask>
<path fill-rule="evenodd" clip-rule="evenodd" d="M15.9261 26.8583C22.1924 25.9276 27 20.5253 27 14C27 6.8203 21.1797 1 14 1C6.8203 1 1 6.8203 1 14C1 20.5254 5.80774 25.9278 12.0742 26.8583V33.2593C12.0742 34.3229 12.9365 35.1852 14.0001 35.1852C15.0638 35.1852 15.9261 34.3229 15.9261 33.2593V26.8583Z" fill="#8854FA"/>
<path d="M15.9261 26.8583L15.7792 25.8692L14.9261 25.9959V26.8583H15.9261ZM12.0742 26.8583H13.0742V25.9959L12.2211 25.8692L12.0742 26.8583ZM26 14C26 20.0224 21.5626 25.0102 15.7792 25.8692L16.073 27.8475C22.8222 26.8451 28 21.0281 28 14H26ZM14 2C20.6274 2 26 7.37258 26 14H28C28 6.26801 21.732 0 14 0V2ZM2 14C2 7.37258 7.37258 2 14 2V0C6.26801 0 0 6.26801 0 14H2ZM12.2211 25.8692C6.43756 25.0104 2 20.0225 2 14H0C0 21.0282 5.17791 26.8452 11.9273 27.8475L12.2211 25.8692ZM13.0742 33.2593V26.8583H11.0742V33.2593H13.0742ZM14.0001 34.1852C13.4888 34.1852 13.0742 33.7706 13.0742 33.2593H11.0742C11.0742 34.8752 12.3842 36.1852 14.0001 36.1852V34.1852ZM14.9261 33.2593C14.9261 33.7706 14.5115 34.1852 14.0001 34.1852V36.1852C15.6161 36.1852 16.9261 34.8752 16.9261 33.2593H14.9261ZM14.9261 26.8583V33.2593H16.9261V26.8583H14.9261Z" fill="white" mask="url(#path-2-outside-1_609_11874)"/>
<defs>
<filter id="filter0_f_609_11874" x="7.07422" y="32.1111" width="13.8521" height="13.8519" filterUnits="userSpaceOnUse" color-interpolation-filters="sRGB">
<feFlood flood-opacity="0" result="BackgroundImageFix"/>
<feBlend mode="normal" in="SourceGraphic" in2="BackgroundImageFix" result="shape"/>
<feGaussianBlur stdDeviation="2.5" result="effect1_foregroundBlur_609_11874"/>
</filter>
</defs>
</svg>
