<svg width="76" height="28" viewBox="0 0 76 28" fill="none" xmlns="http://www.w3.org/2000/svg">
<path d="M8.95796 9.47656L0 11.9617L6.06616 17.4697L8.95796 15.3966V9.47656Z" fill="#231F20"/>
<path d="M6.2959 18.0126L8.95751 26.5143V16.0264L6.2959 18.0126Z" fill="#231F20"/>
<path d="M25.9537 13.2612C27.7676 11.949 28.8537 9.90903 28.8703 7.55893C28.8978 3.37285 25.4258 0 21.2397 0H11.2893C10.0019 0 8.9585 1.04342 8.9585 2.33081V9.4776L20.8648 6.17505C21.1777 6.08822 21.3748 6.50172 21.1115 6.69056L8.9585 15.3977V16.0262L21.1432 7.29704C21.4051 7.10958 21.7331 7.42522 21.5539 7.694L8.95987 26.5141C8.95987 27.3343 9.62562 28 10.4457 28H21.627C26.1342 28 29.8489 24.3349 29.7648 19.8277C29.7125 17.0214 28.2831 14.6726 25.9551 13.2612H25.9537Z" fill="#231F20"/>
<path d="M46.0097 15.6186C44.8795 14.5062 43.3716 13.8929 41.7603 13.8929C40.5418 13.8929 39.4887 14.3643 38.7237 14.9473V9.08789H35.1924V26.3822H38.7251V25.4518C39.6211 26.1809 40.7706 26.611 41.905 26.611C45.3357 26.611 47.9243 23.908 47.9243 20.3229C47.9243 18.5048 47.2448 16.8343 46.0097 15.6186ZM38.7251 20.3229C38.7251 18.7447 40.0566 17.4118 41.6307 17.4118C42.3612 17.4118 43.049 17.693 43.5673 18.203C44.0993 18.7268 44.3916 19.4283 44.3916 20.1809C44.3916 21.7592 43.0614 23.092 41.486 23.092C40.7554 23.092 40.0676 22.8108 39.5494 22.3008C39.0173 21.7771 38.7251 21.0741 38.7251 20.3229Z" fill="#231F20"/>
<path d="M51.7687 8.40039H48.2373V26.3811H51.7687V8.40039Z" fill="#231F20"/>
<path d="M56.2985 14.123H52.7671V26.3836H56.2985V14.123Z" fill="#231F20"/>
<path d="M54.6068 12.9029C55.6971 12.9029 56.5516 12.0401 56.553 10.9401C56.553 10.3957 56.3242 9.85811 55.9245 9.4639C55.5275 9.07245 55.0079 8.85742 54.4634 8.85742C53.3911 8.85742 52.5186 9.72717 52.5186 10.7982C52.5186 11.355 52.7501 11.9022 53.154 12.2992C53.5496 12.6893 54.0665 12.9029 54.6095 12.9029H54.6068Z" fill="#231F20"/>
<path d="M62.2087 21.4044L65.146 14.1225H62.5037V11.0557H58.971V14.1225H56.8662V17.6415H58.971V22.0577C58.971 23.7283 59.3252 24.8544 60.0847 25.6029C60.7739 26.281 61.7814 26.6105 63.1667 26.6105C63.7649 26.6105 64.4706 26.5305 65.0178 26.4037L65.2191 22.3472H62.9806C62.4954 22.3472 62.0833 21.8455 62.2074 21.403L62.2087 21.4044Z" fill="#231F20"/>
<path d="M75.9433 14.1225H66.5374L66.0935 18.1046H69.0777C69.6194 18.1046 70.0425 18.7165 69.8068 19.1576L65.1328 26.3816H75.8661V23.046H71.5518L75.9419 16.7179V14.1211L75.9433 14.1225Z" fill="#231F20"/>
<path d="M35.4668 3.87728V0.0664062H36.7206C37.0186 0.0664062 37.2639 0.115403 37.4565 0.213397C37.6491 0.311391 37.7917 0.443864 37.8844 0.610816C37.9771 0.777768 38.0234 0.966497 38.0234 1.177C38.0234 1.38388 37.978 1.57079 37.8871 1.73774C37.7963 1.9047 37.6545 2.03808 37.4619 2.13789C37.2693 2.23769 37.0222 2.2876 36.7206 2.2876H35.9247V3.87728H35.4668ZM35.9247 1.90107H36.7097C37.0149 1.90107 37.2321 1.83665 37.3611 1.7078C37.4901 1.57896 37.5546 1.40203 37.5546 1.177C37.5546 0.94835 37.4901 0.769602 37.3611 0.640759C37.2321 0.511915 37.0149 0.447493 36.7097 0.447493H35.9247V1.90107Z" fill="#0D0D0D"/>
<path d="M40.3567 3.94153C39.9824 3.94153 39.6544 3.85896 39.3728 3.69382C39.0911 3.52868 38.8713 3.29731 38.7132 2.9997C38.5551 2.70209 38.4761 2.35911 38.4761 1.97076C38.4761 1.58242 38.5551 1.24035 38.7132 0.944551C38.8713 0.648755 39.0911 0.417381 39.3728 0.250429C39.6544 0.0834762 39.9824 0 40.3567 0C40.7347 0 41.0645 0.0834762 41.3461 0.250429C41.6278 0.417381 41.8467 0.648755 42.003 0.944551C42.1593 1.24035 42.2374 1.58242 42.2374 1.97076C42.2374 2.35911 42.1593 2.70209 42.003 2.9997C41.8467 3.29731 41.6278 3.52868 41.3461 3.69382C41.0645 3.85896 40.7347 3.94153 40.3567 3.94153ZM40.3567 3.53866C40.6366 3.53866 40.8828 3.47606 41.0954 3.35084C41.308 3.22563 41.4733 3.04597 41.5914 2.81188C41.7095 2.57778 41.7686 2.29741 41.7686 1.97076C41.7686 1.64412 41.7095 1.36465 41.5914 1.13237C41.4733 0.900091 41.308 0.721343 41.0954 0.596129C40.8828 0.470914 40.6366 0.408307 40.3567 0.408307C40.0769 0.408307 39.8307 0.470914 39.6181 0.596129C39.4055 0.721343 39.2401 0.900091 39.122 1.13237C39.0039 1.36465 38.9449 1.64412 38.9449 1.97076C38.9449 2.29741 39.0039 2.57778 39.122 2.81188C39.2401 3.04597 39.4055 3.22563 39.6181 3.35084C39.8307 3.47606 40.0769 3.53866 40.3567 3.53866Z" fill="#0D0D0D"/>
<path d="M43.6819 3.88272L42.6353 0.0664062H43.1259L43.949 3.33831L44.8866 0.0664062H45.3936L46.3039 3.33831L47.1379 0.0664062H47.6285L46.5601 3.87728H46.0368L45.1264 0.730586L44.1943 3.87728L43.6819 3.88272Z" fill="#0D0D0D"/>
<path d="M48.168 3.87728V0.0664062H50.5283V0.442049H48.6259V1.77041H50.3648V2.14061H48.6259V3.50163H50.5283V3.87728H48.168Z" fill="#0D0D0D"/>
<path d="M51.2427 3.87728V0.0664062H52.4746C52.7726 0.0664062 53.0161 0.115403 53.2051 0.213397C53.3941 0.311391 53.534 0.445678 53.6248 0.61626C53.7157 0.786842 53.7611 0.975571 53.7611 1.18245C53.7611 1.42199 53.6966 1.63794 53.5676 1.83029C53.4386 2.02265 53.2378 2.15875 52.9653 2.2386L53.7993 3.87728H53.2596L52.4855 2.30393H52.4528H51.7006V3.87728H51.2427ZM51.7006 1.94462H52.4419C52.7363 1.94462 52.9507 1.87385 53.0852 1.7323C53.2196 1.59075 53.2869 1.40928 53.2869 1.18789C53.2869 0.962868 53.2205 0.78412 53.0879 0.651647C52.9553 0.519174 52.7381 0.452937 52.4365 0.452937H51.7006V1.94462Z" fill="#0D0D0D"/>
<path d="M54.4756 3.87728V0.0664062H56.836V0.442049H54.9335V1.77041H56.6724V2.14061H54.9335V3.50163H56.836V3.87728H54.4756Z" fill="#0D0D0D"/>
<path d="M57.5498 3.87728V0.0664062H58.7218C59.3941 0.0664062 59.8893 0.236988 60.2073 0.578152C60.5252 0.919315 60.6842 1.38751 60.6842 1.98273C60.6842 2.56706 60.5252 3.0289 60.2073 3.36825C59.8893 3.7076 59.3941 3.87728 58.7218 3.87728H57.5498ZM58.0077 3.49619H58.7109C59.0816 3.49619 59.3769 3.4354 59.5967 3.31381C59.8166 3.19223 59.9738 3.01802 60.0683 2.79118C60.1627 2.56434 60.21 2.29486 60.21 1.98273C60.21 1.66334 60.1627 1.38932 60.0683 1.16067C59.9738 0.932018 59.8166 0.755992 59.5967 0.632593C59.3769 0.509193 59.0816 0.447493 58.7109 0.447493H58.0077V3.49619Z" fill="#0D0D0D"/>
<path d="M62.7881 3.87728V0.0664062H64.1291C64.398 0.0664062 64.6206 0.109052 64.7969 0.194343C64.9731 0.279633 65.1048 0.395774 65.1921 0.542765C65.2793 0.689756 65.3229 0.853986 65.3229 1.03546C65.3229 1.28225 65.2566 1.47643 65.1239 1.61797C64.9913 1.75952 64.8323 1.85751 64.6469 1.91196C64.7887 1.93736 64.9177 1.99362 65.034 2.08072C65.1503 2.16783 65.242 2.27671 65.3093 2.40737C65.3765 2.53803 65.4101 2.68139 65.4101 2.83745C65.4101 3.02981 65.3629 3.20493 65.2684 3.36281C65.1739 3.52069 65.034 3.6459 64.8486 3.73845C64.6633 3.831 64.438 3.87728 64.1727 3.87728H62.7881ZM63.246 1.7323H64.0964C64.3399 1.7323 64.527 1.67514 64.6578 1.56081C64.7887 1.44649 64.8541 1.2877 64.8541 1.08445C64.8541 0.892095 64.7896 0.737845 64.6606 0.621704C64.5316 0.505564 64.338 0.447493 64.08 0.447493H63.246V1.7323ZM63.246 3.49619H64.1236C64.3853 3.49619 64.587 3.4354 64.7287 3.31381C64.8704 3.19223 64.9413 3.02255 64.9413 2.80479C64.9413 2.59065 64.8668 2.41916 64.7178 2.29032C64.5688 2.16148 64.3671 2.09706 64.1127 2.09706H63.246V3.49619Z" fill="#0D0D0D"/>
<path d="M67.0183 3.87728V2.42915L65.7754 0.0664062H66.2933L67.2472 1.99362L68.2012 0.0664062H68.7136L67.4762 2.42915V3.87728H67.0183Z" fill="#0D0D0D"/>
</svg>
