<svg width="51" height="36" viewBox="0 0 51 36" fill="none" xmlns="http://www.w3.org/2000/svg">
<path d="M48.7612 6.85714C46.853 3.6 43.7863 1.30286 40.1743 0.411429C39.0499 0.137143 37.9254 0 36.8009 0C34.2794 0 31.7919 0.685714 29.577 2.05714C26.374 4.01143 24.091 7.13143 23.1709 10.8C22.3531 14.0914 22.6598 17.9657 24.0909 22.32C24.8065 24.5486 25.8288 26.88 27.0895 29.2457C27.737 30.48 28.4525 31.68 29.2022 32.88C29.577 33.4971 29.9859 34.08 30.3948 34.6629C30.6333 35.0057 30.8378 35.28 30.9741 35.4857C31.0763 35.6229 31.1785 35.76 31.383 36L31.5534 35.8971C32.3371 35.4857 36.5624 33.2914 40.8218 29.9314C46.0352 25.8171 49.3064 21.5657 50.2605 17.6229C51.2487 13.92 50.7035 10.1143 48.7612 6.85714ZM43.6841 14.7086C43.2411 16.4914 42.1507 18 40.5832 18.9257C39.4928 19.5771 38.3002 19.92 37.0735 19.92C36.5283 19.92 35.949 19.8514 35.4038 19.7143C33.6319 19.2686 32.1326 18.1714 31.2126 16.5943C30.2585 15.0171 29.9859 13.1657 30.4289 11.4171C30.8719 9.63429 31.9623 8.12571 33.5297 7.2C35.0972 6.24 36.9372 5.96571 38.675 6.41143C40.4469 6.85714 41.9462 7.95429 42.8663 9.53143C43.8204 11.1086 44.093 12.9257 43.6841 14.7086Z" fill="#692BE0"/>
<path fill-rule="evenodd" clip-rule="evenodd" d="M11.9263 12.5486C11.347 12.5486 10.9041 12.9943 10.9041 13.5772C10.9041 14.16 11.347 14.6057 11.9263 14.6057H20.7176C20.7176 13.92 20.7517 13.2343 20.8199 12.5486H11.9263Z" fill="#692BE0"/>
<path opacity="0.5" fill-rule="evenodd" clip-rule="evenodd" d="M6.47428 14.6057H8.85952C9.4388 14.6057 9.88177 14.16 9.88177 13.5772C9.88177 12.9943 9.4388 12.5486 8.85952 12.5486H6.47428C5.895 12.5486 5.45203 12.9943 5.45203 13.5772C5.45203 14.16 5.895 14.6057 6.47428 14.6057Z" fill="#692BE0"/>
<path fill-rule="evenodd" clip-rule="evenodd" d="M3.4075 21.12H1.02225C0.442975 21.12 0 21.5657 0 22.1486C0 22.7314 0.442975 23.1771 1.02225 23.1771H3.4075C3.98677 23.1771 4.42975 22.7314 4.42975 22.1486C4.42975 21.6 3.98677 21.12 3.4075 21.12Z" fill="#692BE0"/>
<path opacity="0.5" fill-rule="evenodd" clip-rule="evenodd" d="M21.6376 21.12H6.47428C5.895 21.12 5.45203 21.5657 5.45203 22.1486C5.45203 22.7314 5.895 23.1771 6.47428 23.1771H22.251C22.2169 23.1086 22.1828 23.04 22.1828 22.9714C21.9784 22.3543 21.808 21.7371 21.6376 21.12Z" fill="#692BE0"/>
<path fill-rule="evenodd" clip-rule="evenodd" d="M21.808 8.43433H1.02225C0.442975 8.43433 0 8.88004 0 9.4629C0 10.0458 0.442975 10.4915 1.02225 10.4915H21.1946C21.1946 10.4229 21.2287 10.3543 21.2287 10.32C21.3991 9.66861 21.6035 9.05147 21.808 8.43433Z" fill="#692BE0"/>
<path opacity="0.2" fill-rule="evenodd" clip-rule="evenodd" d="M14.3116 25.5771H11.9263C11.347 25.5771 10.9041 26.0229 10.9041 26.6057C10.9041 27.1886 11.347 27.6343 11.9263 27.6343H14.3116C14.8908 27.6343 15.3338 27.1886 15.3338 26.6057C15.3338 26.0571 14.8908 25.5771 14.3116 25.5771Z" fill="#692BE0"/>
<path fill-rule="evenodd" clip-rule="evenodd" d="M17.3782 25.5771C16.7989 25.5771 16.356 26.0229 16.356 26.6057C16.356 27.1886 16.7989 27.6343 17.3782 27.6343H24.0228C23.7162 26.9486 23.4095 26.2629 23.1369 25.5771H17.3782Z" fill="#692BE0"/>
<path fill-rule="evenodd" clip-rule="evenodd" d="M14.6523 17.0057C14.073 17.0057 13.63 17.4515 13.63 18.0343C13.63 18.6172 14.073 19.0629 14.6523 19.0629H21.1606C21.0243 18.3772 20.922 17.6915 20.8539 17.0057H14.6523Z" fill="#692BE0"/>
</svg>
