<svg width="51" height="36" viewBox="0 0 51 36" fill="none" xmlns="http://www.w3.org/2000/svg">
<path d="M48.7613 6.85714C46.8531 3.6 43.7863 1.30286 40.1744 0.411429C39.0499 0.137143 37.9254 0 36.8009 0C34.2794 0 31.7919 0.685714 29.577 2.05714C26.374 4.01143 24.091 7.13143 23.1709 10.8C22.3531 14.0914 22.6598 17.9657 24.091 22.32C24.8065 24.5486 25.8288 26.88 27.0896 29.2457C27.737 30.48 28.4526 31.68 29.2022 32.88C29.577 33.4971 29.9859 34.08 30.3948 34.6629C30.6334 35.0057 30.8378 35.28 30.9741 35.4857C31.0763 35.6229 31.1786 35.76 31.383 36L31.5534 35.8971C32.3371 35.4857 36.5624 33.2914 40.8218 29.9314C46.0353 25.8171 49.3064 21.5657 50.2605 17.6229C51.2487 13.92 50.7035 10.1143 48.7613 6.85714ZM43.6841 14.7086C43.2411 16.4914 42.1507 18 40.5833 18.9257C39.4929 19.5771 38.3002 19.92 37.0735 19.92C36.5283 19.92 35.9491 19.8514 35.4039 19.7143C33.632 19.2686 32.1327 18.1714 31.2126 16.5943C30.2585 15.0171 29.9859 13.1657 30.4289 11.4171C30.8719 9.63429 31.9623 8.12571 33.5297 7.2C35.0972 6.24 36.9372 5.96571 38.6751 6.41143C40.447 6.85714 41.9463 7.95429 42.8663 9.53143C43.8204 11.1086 44.093 12.9257 43.6841 14.7086Z" fill="white"/>
<path fill-rule="evenodd" clip-rule="evenodd" d="M11.9262 12.5486C11.347 12.5486 10.904 12.9943 10.904 13.5772C10.904 14.16 11.347 14.6057 11.9262 14.6057H20.7176C20.7176 13.92 20.7517 13.2343 20.8198 12.5486H11.9262Z" fill="white"/>
<path fill-rule="evenodd" clip-rule="evenodd" d="M6.47423 14.6057H8.85948C9.43875 14.6057 9.88173 14.16 9.88173 13.5772C9.88173 12.9943 9.43875 12.5486 8.85948 12.5486H6.47423C5.89496 12.5486 5.45198 12.9943 5.45198 13.5772C5.45198 14.16 5.89496 14.6057 6.47423 14.6057Z" fill="white"/>
<path fill-rule="evenodd" clip-rule="evenodd" d="M3.4075 21.12H1.02225C0.442975 21.12 0 21.5657 0 22.1486C0 22.7314 0.442975 23.1771 1.02225 23.1771H3.4075C3.98677 23.1771 4.42975 22.7314 4.42975 22.1486C4.42975 21.6 3.98677 21.12 3.4075 21.12Z" fill="white"/>
<path fill-rule="evenodd" clip-rule="evenodd" d="M21.6376 21.12H6.47423C5.89496 21.12 5.45198 21.5657 5.45198 22.1486C5.45198 22.7314 5.89496 23.1771 6.47423 23.1771H22.2509C22.2169 23.1086 22.1828 23.04 22.1828 22.9714C21.9783 22.3543 21.808 21.7371 21.6376 21.12Z" fill="white"/>
<path fill-rule="evenodd" clip-rule="evenodd" d="M21.808 8.4343H1.02225C0.442975 8.4343 0 8.88001 0 9.46287C0 10.0457 0.442975 10.4914 1.02225 10.4914H21.1946C21.1946 10.4229 21.2287 10.3543 21.2287 10.32C21.3991 9.66858 21.6035 9.05144 21.808 8.4343Z" fill="white"/>
<path fill-rule="evenodd" clip-rule="evenodd" d="M14.3115 25.5771H11.9262C11.347 25.5771 10.904 26.0228 10.904 26.6057C10.904 27.1885 11.347 27.6343 11.9262 27.6343H14.3115C14.8908 27.6343 15.3337 27.1885 15.3337 26.6057C15.3337 26.0571 14.8908 25.5771 14.3115 25.5771Z" fill="white"/>
<path fill-rule="evenodd" clip-rule="evenodd" d="M17.3782 25.5771C16.7989 25.5771 16.3559 26.0228 16.3559 26.6057C16.3559 27.1885 16.7989 27.6343 17.3782 27.6343H24.0228C23.7161 26.9485 23.4094 26.2628 23.1368 25.5771H17.3782Z" fill="white"/>
<path fill-rule="evenodd" clip-rule="evenodd" d="M14.6523 17.0057C14.073 17.0057 13.63 17.4514 13.63 18.0343C13.63 18.6171 14.073 19.0629 14.6523 19.0629H21.1606C21.0243 18.3771 20.9221 17.6914 20.8539 17.0057H14.6523Z" fill="white"/>
</svg>
