<svg width="143" height="268" viewBox="0 0 143 268" fill="none" xmlns="http://www.w3.org/2000/svg">
<g filter="url(#filter0_dddd_1_2)">
<path d="M25 16C25 13.7909 26.7909 12 29 12H72C74.2091 12 76 13.7909 76 16V28C76 30.2091 74.2091 32 72 32H29C26.7909 32 25 30.2091 25 28V16Z" fill="url(#paint0_linear_1_2)"/>
</g>
<g clip-path="url(#clip0_1_2)">
<path fill-rule="evenodd" clip-rule="evenodd" d="M38.5431 16.6512C38.3214 16.625 38.0507 16.625 37.733 16.625H32.2666C31.9489 16.625 31.6782 16.625 31.4565 16.6512C31.2195 16.6792 31.0009 16.7406 30.803 16.8882C30.6063 17.0351 30.4832 17.2277 30.3843 17.4478C30.291 17.6555 30.206 17.9198 30.1051 18.2332L30.0988 18.2527L29.757 19.3148L29.7495 19.338C29.6614 19.6111 29.5909 19.8301 29.6425 20.1612C29.6639 20.2984 29.6913 20.411 29.7377 20.5152C29.7813 20.6133 29.8356 20.6885 29.8773 20.746L29.8835 20.7546C29.9201 20.8053 29.959 20.8547 30 20.9027V23.4103C30 24.0874 30 24.6456 30.0594 25.0876C30.1218 25.5514 30.2577 25.9612 30.5858 26.2892C30.9138 26.6172 31.3236 26.7533 31.7875 26.8156C32.2294 26.8751 32.7877 26.875 33.4647 26.875H35.0174C35.3004 26.875 35.527 26.6403 35.517 26.3574C35.5076 26.0883 35.2866 25.875 35.0174 25.875H33.5C32.7788 25.875 32.2881 25.874 31.9207 25.8245C31.5677 25.7771 31.4042 25.6934 31.2929 25.5821C31.1816 25.4708 31.0979 25.3073 31.0505 24.9543C31.0011 24.5869 31 24.0963 31 23.375V21.6307C31.358 21.7878 31.7459 21.875 32.1224 21.875C32.6623 21.875 33.1606 21.697 33.561 21.3964C33.9612 21.6968 34.4598 21.875 34.9995 21.875C35.5395 21.875 36.038 21.6969 36.4383 21.3962C36.8386 21.6967 37.3373 21.875 37.8772 21.875C38.7218 21.875 39.6241 21.4359 40.1162 20.7546L40.1223 20.746C40.164 20.6884 40.2184 20.6133 40.262 20.5152C40.3083 20.411 40.3357 20.2984 40.3571 20.1612C40.4088 19.8301 40.3382 19.6111 40.2501 19.338L40.2427 19.3148L39.8945 18.2332C39.7937 17.9198 39.7086 17.6555 39.6153 17.4478C39.5164 17.2277 39.3934 17.0351 39.1966 16.8882C38.9987 16.7406 38.7802 16.6792 38.5431 16.6512Z" fill="white"/>
<path fill-rule="evenodd" clip-rule="evenodd" d="M32 24.5C32 24.2239 32.2239 24 32.5 24H34.5C34.7761 24 35 24.2239 35 24.5C35 24.7761 34.7761 25 34.5 25H32.5C32.2239 25 32 24.7761 32 24.5Z" fill="white"/>
<path fill-rule="evenodd" clip-rule="evenodd" d="M38.25 22.375C37.0832 22.375 36.125 23.305 36.125 24.4671C36.125 25.1292 36.4581 25.6239 36.8035 26.0197C36.9266 26.1607 37.0619 26.3006 37.1883 26.4313C37.2362 26.4808 37.283 26.5291 37.3272 26.5756C37.4953 26.7523 37.6398 26.9149 37.7514 27.0808C37.8448 27.2196 38.0117 27.375 38.2529 27.375C38.4982 27.375 38.6646 27.215 38.7551 27.0708C38.8611 26.9018 39.0013 26.7397 39.1665 26.5655C39.2205 26.5086 39.28 26.4477 39.3417 26.3846C39.4565 26.267 39.579 26.1415 39.6876 26.0199C40.0357 25.6305 40.375 25.1426 40.375 24.4671C40.375 23.305 39.4169 22.375 38.25 22.375ZM38.2466 25.25C37.8343 25.25 37.5 24.9142 37.5 24.5C37.5 24.0858 37.8343 23.75 38.2466 23.75H38.2534C38.6657 23.75 39 24.0858 39 24.5C39 24.9142 38.6657 25.25 38.2534 25.25H38.2466Z" fill="white"/>
</g>
<path d="M50.4941 26.07C50.0274 26.07 49.6074 25.99 49.2341 25.83C48.8608 25.6633 48.5674 25.43 48.3541 25.13C48.1408 24.83 48.0341 24.48 48.0341 24.08H49.2541C49.2808 24.38 49.3974 24.6267 49.6041 24.82C49.8174 25.0133 50.1141 25.11 50.4941 25.11C50.8874 25.11 51.1941 25.0167 51.4141 24.83C51.6341 24.6367 51.7441 24.39 51.7441 24.09C51.7441 23.8567 51.6741 23.6667 51.5341 23.52C51.4008 23.3733 51.2308 23.26 51.0241 23.18C50.8241 23.1 50.5441 23.0133 50.1841 22.92C49.7308 22.8 49.3608 22.68 49.0741 22.56C48.7941 22.4333 48.5541 22.24 48.3541 21.98C48.1541 21.72 48.0541 21.3733 48.0541 20.94C48.0541 20.54 48.1541 20.19 48.3541 19.89C48.5541 19.59 48.8341 19.36 49.1941 19.2C49.5541 19.04 49.9708 18.96 50.4441 18.96C51.1174 18.96 51.6674 19.13 52.0941 19.47C52.5274 19.8033 52.7674 20.2633 52.8141 20.85H51.5541C51.5341 20.5967 51.4141 20.38 51.1941 20.2C50.9741 20.02 50.6841 19.93 50.3241 19.93C49.9974 19.93 49.7308 20.0133 49.5241 20.18C49.3174 20.3467 49.2141 20.5867 49.2141 20.9C49.2141 21.1133 49.2774 21.29 49.4041 21.43C49.5374 21.5633 49.7041 21.67 49.9041 21.75C50.1041 21.83 50.3774 21.9167 50.7241 22.01C51.1841 22.1367 51.5574 22.2633 51.8441 22.39C52.1374 22.5167 52.3841 22.7133 52.5841 22.98C52.7908 23.24 52.8941 23.59 52.8941 24.03C52.8941 24.3833 52.7974 24.7167 52.6041 25.03C52.4174 25.3433 52.1408 25.5967 51.7741 25.79C51.4141 25.9767 50.9874 26.07 50.4941 26.07ZM55.5693 21.42V24.47C55.5693 24.6767 55.6159 24.8267 55.7093 24.92C55.8093 25.0067 55.9759 25.05 56.2093 25.05H56.9093V26H56.0093C55.4959 26 55.1026 25.88 54.8293 25.64C54.5559 25.4 54.4193 25.01 54.4193 24.47V21.42H53.7693V20.49H54.4193V19.12H55.5693V20.49H56.9093V21.42H55.5693ZM57.58 23.22C57.58 22.6667 57.6933 22.1767 57.92 21.75C58.1533 21.3233 58.4666 20.9933 58.86 20.76C59.26 20.52 59.7 20.4 60.18 20.4C60.6133 20.4 60.99 20.4867 61.31 20.66C61.6366 20.8267 61.8966 21.0367 62.09 21.29V20.49H63.24V26H62.09V25.18C61.8966 25.44 61.6333 25.6567 61.3 25.83C60.9666 26.0033 60.5866 26.09 60.16 26.09C59.6866 26.09 59.2533 25.97 58.86 25.73C58.4666 25.4833 58.1533 25.1433 57.92 24.71C57.6933 24.27 57.58 23.7733 57.58 23.22ZM62.09 23.24C62.09 22.86 62.01 22.53 61.85 22.25C61.6966 21.97 61.4933 21.7567 61.24 21.61C60.9866 21.4633 60.7133 21.39 60.42 21.39C60.1266 21.39 59.8533 21.4633 59.6 21.61C59.3466 21.75 59.14 21.96 58.98 22.24C58.8266 22.5133 58.75 22.84 58.75 23.22C58.75 23.6 58.8266 23.9333 58.98 24.22C59.14 24.5067 59.3466 24.7267 59.6 24.88C59.86 25.0267 60.1333 25.1 60.42 25.1C60.7133 25.1 60.9866 25.0267 61.24 24.88C61.4933 24.7333 61.6966 24.52 61.85 24.24C62.01 23.9533 62.09 23.62 62.09 23.24ZM65.8773 21.29C66.044 21.01 66.264 20.7933 66.5373 20.64C66.8173 20.48 67.1473 20.4 67.5273 20.4V21.58H67.2373C66.7906 21.58 66.4506 21.6933 66.2173 21.92C65.9906 22.1467 65.8773 22.54 65.8773 23.1V26H64.7373V20.49H65.8773V21.29ZM69.9052 21.42V24.47C69.9052 24.6767 69.9519 24.8267 70.0452 24.92C70.1452 25.0067 70.3119 25.05 70.5452 25.05H71.2452V26H70.3452C69.8319 26 69.4385 25.88 69.1652 25.64C68.8919 25.4 68.7552 25.01 68.7552 24.47V21.42H68.1052V20.49H68.7552V19.12H69.9052V20.49H71.2452V21.42H69.9052Z" fill="black"/>
<defs>
<filter id="filter0_dddd_1_2" x="-42" y="0" width="185" height="268" filterUnits="userSpaceOnUse" color-interpolation-filters="sRGB">
<feFlood flood-opacity="0" result="BackgroundImageFix"/>
<feColorMatrix in="SourceAlpha" type="matrix" values="0 0 0 0 0 0 0 0 0 0 0 0 0 0 0 0 0 0 127 0" result="hardAlpha"/>
<feOffset dy="11"/>
<feGaussianBlur stdDeviation="11.5"/>
<feColorMatrix type="matrix" values="0 0 0 0 0.180392 0 0 0 0 0.180392 0 0 0 0 0.180392 0 0 0 0.1 0"/>
<feBlend mode="normal" in2="BackgroundImageFix" result="effect1_dropShadow_1_2"/>
<feColorMatrix in="SourceAlpha" type="matrix" values="0 0 0 0 0 0 0 0 0 0 0 0 0 0 0 0 0 0 127 0" result="hardAlpha"/>
<feOffset dy="42"/>
<feGaussianBlur stdDeviation="21"/>
<feColorMatrix type="matrix" values="0 0 0 0 0.180392 0 0 0 0 0.180392 0 0 0 0 0.180392 0 0 0 0.09 0"/>
<feBlend mode="normal" in2="effect1_dropShadow_1_2" result="effect2_dropShadow_1_2"/>
<feColorMatrix in="SourceAlpha" type="matrix" values="0 0 0 0 0 0 0 0 0 0 0 0 0 0 0 0 0 0 127 0" result="hardAlpha"/>
<feOffset dy="95"/>
<feGaussianBlur stdDeviation="28.5"/>
<feColorMatrix type="matrix" values="0 0 0 0 0.180392 0 0 0 0 0.180392 0 0 0 0 0.180392 0 0 0 0.05 0"/>
<feBlend mode="normal" in2="effect2_dropShadow_1_2" result="effect3_dropShadow_1_2"/>
<feColorMatrix in="SourceAlpha" type="matrix" values="0 0 0 0 0 0 0 0 0 0 0 0 0 0 0 0 0 0 127 0" result="hardAlpha"/>
<feOffset dy="169"/>
<feGaussianBlur stdDeviation="33.5"/>
<feColorMatrix type="matrix" values="0 0 0 0 0.180392 0 0 0 0 0.180392 0 0 0 0 0.180392 0 0 0 0.01 0"/>
<feBlend mode="normal" in2="effect3_dropShadow_1_2" result="effect4_dropShadow_1_2"/>
<feBlend mode="normal" in="SourceGraphic" in2="effect4_dropShadow_1_2" result="shape"/>
</filter>
<linearGradient id="paint0_linear_1_2" x1="76" y1="22" x2="25" y2="22" gradientUnits="userSpaceOnUse">
<stop stop-color="white"/>
<stop offset="0.53" stop-color="white"/>
<stop offset="0.665" stop-color="#FF7D00"/>
<stop offset="1" stop-color="#FF7D00"/>
</linearGradient>
<clipPath id="clip0_1_2">
<rect width="12" height="12" fill="white" transform="translate(29 16)"/>
</clipPath>
</defs>
</svg>
