<svg width="51" height="20" viewBox="0 0 51 20" fill="none" xmlns="http://www.w3.org/2000/svg">
<path d="M0 4C0 1.79086 1.79086 0 4 0H47C49.2091 0 51 1.79086 51 4V16C51 18.2091 49.2091 20 47 20H4C1.79086 20 0 18.2091 0 16V4Z" fill="url(#paint0_linear_1366_2945)"/>
<g clip-path="url(#clip0_1366_2945)">
<path fill-rule="evenodd" clip-rule="evenodd" d="M13.5431 4.65119C13.3214 4.62498 13.0507 4.62499 12.733 4.625H7.26665C6.9489 4.62499 6.6782 4.62498 6.4565 4.65119C6.21946 4.67922 6.00089 4.74055 5.80302 4.88825C5.60625 5.03512 5.48317 5.22773 5.38433 5.44777C5.29101 5.6555 5.20596 5.91976 5.10509 6.2332L5.09883 6.25265L4.75697 7.31477L4.74948 7.33802C4.66144 7.61114 4.59087 7.83009 4.64253 8.16116C4.66395 8.29837 4.6913 8.41096 4.73765 8.51523C4.78126 8.61331 4.83562 8.68845 4.87728 8.74603L4.88346 8.75459C4.9201 8.80531 4.95901 8.8547 5 8.90266V11.4103C4.99999 12.0874 4.99997 12.6457 5.05938 13.0876C5.12175 13.5515 5.25774 13.9611 5.58579 14.2892C5.91385 14.6172 6.32356 14.7533 6.78747 14.8156C7.22935 14.8751 7.78766 14.875 8.46472 14.875H10.0174C10.3004 14.875 10.527 14.6403 10.517 14.3574C10.5076 14.0883 10.2866 13.875 10.0174 13.875H8.5C7.77876 13.875 7.28813 13.8739 6.92072 13.8245C6.56769 13.7771 6.40418 13.6934 6.2929 13.5821C6.18161 13.4708 6.09793 13.3073 6.05046 12.9543C6.00107 12.5868 6 12.0963 6 11.375V9.6307C6.35798 9.78775 6.74594 9.875 7.12245 9.875C7.66228 9.875 8.16064 9.69695 8.56097 9.3964C8.96119 9.69675 9.45975 9.875 9.99945 9.875C10.5395 9.875 11.038 9.69685 11.4383 9.39615C11.8386 9.69665 12.3373 9.875 12.8772 9.875C13.7218 9.875 14.6241 9.4359 15.1162 8.75459L15.1223 8.74602C15.164 8.68844 15.2184 8.61331 15.262 8.51523C15.3083 8.41096 15.3357 8.29837 15.3571 8.16116C15.4088 7.83009 15.3382 7.61114 15.2501 7.33802L15.2427 7.31477L14.8945 6.23319C14.7937 5.91976 14.7086 5.6555 14.6153 5.44777C14.5164 5.22773 14.3934 5.03512 14.1966 4.88825C13.9987 4.74055 13.7802 4.67922 13.5431 4.65119Z" fill="white"/>
<path fill-rule="evenodd" clip-rule="evenodd" d="M7 12.5C7 12.2239 7.22386 12 7.5 12H9.5C9.77615 12 10 12.2239 10 12.5C10 12.7761 9.77615 13 9.5 13H7.5C7.22386 13 7 12.7761 7 12.5Z" fill="white"/>
<path fill-rule="evenodd" clip-rule="evenodd" d="M13.25 10.375C12.0832 10.375 11.125 11.305 11.125 12.4671C11.125 13.1292 11.4581 13.6239 11.8035 14.0197C11.9266 14.1607 12.0619 14.3006 12.1883 14.4313C12.2362 14.4808 12.283 14.5291 12.3272 14.5756C12.4953 14.7523 12.6398 14.9149 12.7514 15.0808C12.8448 15.2196 13.0117 15.375 13.2529 15.375C13.4982 15.375 13.6646 15.215 13.7551 15.0708C13.8611 14.9018 14.0013 14.7397 14.1665 14.5655C14.2205 14.5086 14.28 14.4477 14.3417 14.3846C14.4565 14.267 14.579 14.1415 14.6876 14.0199C15.0357 13.6305 15.375 13.1426 15.375 12.4671C15.375 11.305 14.4168 10.375 13.25 10.375ZM13.2466 13.25C12.8343 13.25 12.5 12.9142 12.5 12.5C12.5 12.0858 12.8343 11.75 13.2466 11.75H13.2534C13.6657 11.75 14 12.0858 14 12.5C14 12.9142 13.6657 13.25 13.2534 13.25H13.2466Z" fill="white"/>
</g>
<path d="M44.9055 9.41999V12.47C44.9055 12.6767 44.9521 12.8267 45.0455 12.92C45.1455 13.0067 45.3121 13.05 45.5455 13.05H46.2455V14H45.3455C44.8321 14 44.4388 13.88 44.1655 13.64C43.8921 13.4 43.7555 13.01 43.7555 12.47V9.41999H43.1055V8.49H43.7555V7.12H44.9055V8.49H46.2455V9.41999H44.9055Z" fill="black"/>
<path d="M40.8773 9.29002C41.044 9.01002 41.264 8.79336 41.5373 8.64002C41.8173 8.48002 42.1473 8.40002 42.5273 8.40002V9.58002H42.2373C41.7906 9.58002 41.4506 9.69336 41.2173 9.92002C40.9906 10.1467 40.8773 10.54 40.8773 11.1V14H39.7373V8.49002H40.8773V9.29002Z" fill="black"/>
<path d="M32.5801 11.22C32.5801 10.6667 32.6934 10.1767 32.9201 9.75002C33.1534 9.32336 33.4667 8.99336 33.8601 8.76002C34.2601 8.52002 34.7001 8.40002 35.1801 8.40002C35.6134 8.40002 35.9901 8.48669 36.3101 8.66002C36.6367 8.82669 36.8967 9.03669 37.0901 9.29002V8.49002H38.2401V14H37.0901V13.18C36.8967 13.44 36.6334 13.6567 36.3001 13.83C35.9667 14.0034 35.5867 14.09 35.1601 14.09C34.6867 14.09 34.2534 13.97 33.8601 13.73C33.4667 13.4834 33.1534 13.1434 32.9201 12.71C32.6934 12.27 32.5801 11.7734 32.5801 11.22ZM37.0901 11.24C37.0901 10.86 37.0101 10.53 36.8501 10.25C36.6967 9.97002 36.4934 9.75669 36.2401 9.61002C35.9867 9.46336 35.7134 9.39002 35.4201 9.39002C35.1267 9.39002 34.8534 9.46336 34.6001 9.61002C34.3467 9.75002 34.1401 9.96002 33.9801 10.24C33.8267 10.5134 33.7501 10.84 33.7501 11.22C33.7501 11.6 33.8267 11.9334 33.9801 12.22C34.1401 12.5067 34.3467 12.7267 34.6001 12.88C34.8601 13.0267 35.1334 13.1 35.4201 13.1C35.7134 13.1 35.9867 13.0267 36.2401 12.88C36.4934 12.7334 36.6967 12.52 36.8501 12.24C37.0101 11.9534 37.0901 11.62 37.0901 11.24Z" fill="black"/>
<path d="M30.5695 9.41999V12.47C30.5695 12.6767 30.6162 12.8267 30.7095 12.92C30.8095 13.0067 30.9762 13.05 31.2095 13.05H31.9095V14H31.0095C30.4962 14 30.1029 13.88 29.8295 13.64C29.5562 13.4 29.4195 13.01 29.4195 12.47V9.41999H28.7695V8.49H29.4195V7.12H30.5695V8.49H31.9095V9.41999H30.5695Z" fill="black"/>
<path d="M25.4942 14.07C25.0275 14.07 24.6075 13.99 24.2342 13.83C23.8608 13.6634 23.5675 13.43 23.3542 13.13C23.1408 12.83 23.0342 12.48 23.0342 12.08H24.2542C24.2808 12.38 24.3975 12.6267 24.6042 12.82C24.8175 13.0134 25.1142 13.11 25.4942 13.11C25.8875 13.11 26.1942 13.0167 26.4142 12.83C26.6342 12.6367 26.7442 12.39 26.7442 12.09C26.7442 11.8567 26.6742 11.6667 26.5342 11.52C26.4008 11.3734 26.2308 11.26 26.0242 11.18C25.8242 11.1 25.5442 11.0134 25.1842 10.92C24.7308 10.8 24.3608 10.68 24.0742 10.56C23.7942 10.4334 23.5542 10.24 23.3542 9.98002C23.1542 9.72002 23.0542 9.37336 23.0542 8.94002C23.0542 8.54002 23.1542 8.19002 23.3542 7.89002C23.5542 7.59002 23.8342 7.36002 24.1942 7.20002C24.5542 7.04002 24.9708 6.96002 25.4442 6.96002C26.1175 6.96002 26.6675 7.13002 27.0942 7.47002C27.5275 7.80336 27.7675 8.26336 27.8142 8.85002H26.5542C26.5342 8.59669 26.4142 8.38002 26.1942 8.20002C25.9742 8.02002 25.6842 7.93002 25.3242 7.93002C24.9975 7.93002 24.7308 8.01336 24.5242 8.18002C24.3175 8.34669 24.2142 8.58669 24.2142 8.90002C24.2142 9.11336 24.2775 9.29002 24.4042 9.43002C24.5375 9.56336 24.7042 9.67002 24.9042 9.75002C25.1042 9.83002 25.3775 9.91669 25.7242 10.01C26.1842 10.1367 26.5575 10.2634 26.8442 10.39C27.1375 10.5167 27.3842 10.7134 27.5842 10.98C27.7908 11.24 27.8942 11.59 27.8942 12.03C27.8942 12.3834 27.7975 12.7167 27.6042 13.03C27.4175 13.3434 27.1408 13.5967 26.7742 13.79C26.4142 13.9767 25.9875 14.07 25.4942 14.07Z" fill="black"/>
<defs>
<linearGradient id="paint0_linear_1366_2945" x1="51" y1="10" x2="0" y2="10" gradientUnits="userSpaceOnUse">
<stop stop-color="white"/>
<stop offset="0.53" stop-color="white"/>
<stop offset="0.665" stop-color="#FF7D00"/>
<stop offset="1" stop-color="#FF7D00"/>
</linearGradient>
<clipPath id="clip0_1366_2945">
<rect width="12" height="12" fill="white" transform="translate(4 4)"/>
</clipPath>
</defs>
</svg>
