<svg width="51" height="20" viewBox="0 0 51 20" fill="none" xmlns="http://www.w3.org/2000/svg">
<path d="M0 4C0 1.79086 1.79086 0 4 0H47C49.2091 0 51 1.79086 51 4V16C51 18.2091 49.2091 20 47 20H4C1.79086 20 0 18.2091 0 16V4Z" fill="url(#paint0_linear_1989_4126)"/>
<g clip-path="url(#clip0_1989_4126)">
<path fill-rule="evenodd" clip-rule="evenodd" d="M13.5431 4.65119C13.3214 4.62498 13.0507 4.62499 12.733 4.625H7.26665C6.9489 4.62499 6.6782 4.62498 6.4565 4.65119C6.21946 4.67922 6.00089 4.74055 5.80302 4.88825C5.60625 5.03512 5.48317 5.22773 5.38433 5.44777C5.29101 5.6555 5.20596 5.91976 5.10509 6.2332L5.09883 6.25265L4.75697 7.31477L4.74948 7.33802C4.66144 7.61114 4.59087 7.83009 4.64253 8.16116C4.66395 8.29837 4.6913 8.41096 4.73765 8.51523C4.78126 8.61331 4.83562 8.68845 4.87728 8.74603L4.88346 8.75459C4.9201 8.80531 4.95901 8.8547 5 8.90266V11.4103C4.99999 12.0874 4.99997 12.6457 5.05938 13.0876C5.12175 13.5515 5.25774 13.9611 5.58579 14.2892C5.91385 14.6172 6.32356 14.7533 6.78747 14.8156C7.22935 14.8751 7.78766 14.875 8.46472 14.875H10.0174C10.3004 14.875 10.527 14.6403 10.517 14.3574C10.5076 14.0883 10.2866 13.875 10.0174 13.875H8.5C7.77876 13.875 7.28813 13.8739 6.92072 13.8245C6.56769 13.7771 6.40418 13.6934 6.2929 13.5821C6.18161 13.4708 6.09793 13.3073 6.05046 12.9543C6.00107 12.5868 6 12.0963 6 11.375V9.6307C6.35798 9.78775 6.74594 9.875 7.12245 9.875C7.66228 9.875 8.16064 9.69695 8.56097 9.3964C8.96119 9.69675 9.45975 9.875 9.99945 9.875C10.5395 9.875 11.038 9.69685 11.4383 9.39615C11.8386 9.69665 12.3373 9.875 12.8772 9.875C13.7218 9.875 14.6241 9.4359 15.1162 8.75459L15.1223 8.74602C15.164 8.68844 15.2184 8.61331 15.262 8.51523C15.3083 8.41096 15.3357 8.29837 15.3571 8.16116C15.4088 7.83009 15.3382 7.61114 15.2501 7.33802L15.2427 7.31477L14.8945 6.23319C14.7937 5.91976 14.7086 5.6555 14.6153 5.44777C14.5164 5.22773 14.3934 5.03512 14.1966 4.88825C13.9987 4.74055 13.7802 4.67922 13.5431 4.65119Z" fill="white"/>
<path fill-rule="evenodd" clip-rule="evenodd" d="M7 12.5C7 12.2239 7.22386 12 7.5 12H9.5C9.77615 12 10 12.2239 10 12.5C10 12.7761 9.77615 13 9.5 13H7.5C7.22386 13 7 12.7761 7 12.5Z" fill="white"/>
<path fill-rule="evenodd" clip-rule="evenodd" d="M13.25 10.375C12.0832 10.375 11.125 11.305 11.125 12.4671C11.125 13.1292 11.4581 13.6239 11.8035 14.0197C11.9266 14.1607 12.0619 14.3006 12.1883 14.4313C12.2362 14.4808 12.283 14.5291 12.3272 14.5756C12.4953 14.7523 12.6398 14.9149 12.7514 15.0808C12.8448 15.2196 13.0117 15.375 13.2529 15.375C13.4982 15.375 13.6646 15.215 13.7551 15.0708C13.8611 14.9018 14.0013 14.7397 14.1665 14.5655C14.2205 14.5086 14.28 14.4477 14.3417 14.3846C14.4565 14.267 14.579 14.1415 14.6876 14.0199C15.0357 13.6305 15.375 13.1426 15.375 12.4671C15.375 11.305 14.4168 10.375 13.25 10.375ZM13.2466 13.25C12.8343 13.25 12.5 12.9142 12.5 12.5C12.5 12.0858 12.8343 11.75 13.2466 11.75H13.2534C13.6657 11.75 14 12.0858 14 12.5C14 12.9142 13.6657 13.25 13.2534 13.25H13.2466Z" fill="white"/>
</g>
<path d="M25.4941 14.07C25.0274 14.07 24.6074 13.99 24.2341 13.83C23.8608 13.6633 23.5674 13.43 23.3541 13.13C23.1408 12.83 23.0341 12.48 23.0341 12.08H24.2541C24.2808 12.38 24.3974 12.6267 24.6041 12.82C24.8174 13.0133 25.1141 13.11 25.4941 13.11C25.8874 13.11 26.1941 13.0167 26.4141 12.83C26.6341 12.6367 26.7441 12.39 26.7441 12.09C26.7441 11.8567 26.6741 11.6667 26.5341 11.52C26.4008 11.3733 26.2308 11.26 26.0241 11.18C25.8241 11.1 25.5441 11.0133 25.1841 10.92C24.7308 10.8 24.3608 10.68 24.0741 10.56C23.7941 10.4333 23.5541 10.24 23.3541 9.98C23.1541 9.72 23.0541 9.37333 23.0541 8.94C23.0541 8.54 23.1541 8.19 23.3541 7.89C23.5541 7.59 23.8341 7.36 24.1941 7.2C24.5541 7.04 24.9708 6.96 25.4441 6.96C26.1174 6.96 26.6674 7.13 27.0941 7.47C27.5274 7.80333 27.7674 8.26333 27.8141 8.85H26.5541C26.5341 8.59667 26.4141 8.38 26.1941 8.2C25.9741 8.02 25.6841 7.93 25.3241 7.93C24.9974 7.93 24.7308 8.01333 24.5241 8.18C24.3174 8.34667 24.2141 8.58667 24.2141 8.9C24.2141 9.11333 24.2774 9.29 24.4041 9.43C24.5374 9.56333 24.7041 9.67 24.9041 9.75C25.1041 9.83 25.3774 9.91667 25.7241 10.01C26.1841 10.1367 26.5574 10.2633 26.8441 10.39C27.1374 10.5167 27.3841 10.7133 27.5841 10.98C27.7908 11.24 27.8941 11.59 27.8941 12.03C27.8941 12.3833 27.7974 12.7167 27.6041 13.03C27.4174 13.3433 27.1408 13.5967 26.7741 13.79C26.4141 13.9767 25.9874 14.07 25.4941 14.07ZM30.5693 9.42V12.47C30.5693 12.6767 30.6159 12.8267 30.7093 12.92C30.8093 13.0067 30.9759 13.05 31.2093 13.05H31.9093V14H31.0093C30.4959 14 30.1026 13.88 29.8293 13.64C29.5559 13.4 29.4193 13.01 29.4193 12.47V9.42H28.7693V8.49H29.4193V7.12H30.5693V8.49H31.9093V9.42H30.5693ZM32.58 11.22C32.58 10.6667 32.6933 10.1767 32.92 9.75C33.1533 9.32333 33.4666 8.99333 33.86 8.76C34.26 8.52 34.7 8.4 35.18 8.4C35.6133 8.4 35.99 8.48667 36.31 8.66C36.6366 8.82667 36.8966 9.03667 37.09 9.29V8.49H38.24V14H37.09V13.18C36.8966 13.44 36.6333 13.6567 36.3 13.83C35.9666 14.0033 35.5866 14.09 35.16 14.09C34.6866 14.09 34.2533 13.97 33.86 13.73C33.4666 13.4833 33.1533 13.1433 32.92 12.71C32.6933 12.27 32.58 11.7733 32.58 11.22ZM37.09 11.24C37.09 10.86 37.01 10.53 36.85 10.25C36.6966 9.97 36.4933 9.75667 36.24 9.61C35.9866 9.46333 35.7133 9.39 35.42 9.39C35.1266 9.39 34.8533 9.46333 34.6 9.61C34.3466 9.75 34.14 9.96 33.98 10.24C33.8266 10.5133 33.75 10.84 33.75 11.22C33.75 11.6 33.8266 11.9333 33.98 12.22C34.14 12.5067 34.3466 12.7267 34.6 12.88C34.86 13.0267 35.1333 13.1 35.42 13.1C35.7133 13.1 35.9866 13.0267 36.24 12.88C36.4933 12.7333 36.6966 12.52 36.85 12.24C37.01 11.9533 37.09 11.62 37.09 11.24ZM40.8773 9.29C41.044 9.01 41.264 8.79333 41.5373 8.64C41.8173 8.48 42.1473 8.4 42.5273 8.4V9.58H42.2373C41.7906 9.58 41.4506 9.69333 41.2173 9.92C40.9906 10.1467 40.8773 10.54 40.8773 11.1V14H39.7373V8.49H40.8773V9.29ZM44.9052 9.42V12.47C44.9052 12.6767 44.9519 12.8267 45.0452 12.92C45.1452 13.0067 45.3119 13.05 45.5452 13.05H46.2452V14H45.3452C44.8319 14 44.4385 13.88 44.1652 13.64C43.8919 13.4 43.7552 13.01 43.7552 12.47V9.42H43.1052V8.49H43.7552V7.12H44.9052V8.49H46.2452V9.42H44.9052Z" fill="black"/>
<defs>
<linearGradient id="paint0_linear_1989_4126" x1="51" y1="10" x2="0" y2="10" gradientUnits="userSpaceOnUse">
<stop stop-color="white"/>
<stop offset="0.53" stop-color="white"/>
<stop offset="0.665" stop-color="#0066FF"/>
<stop offset="1" stop-color="#0066FF"/>
</linearGradient>
<clipPath id="clip0_1989_4126">
<rect width="12" height="12" fill="white" transform="translate(4 4)"/>
</clipPath>
</defs>
</svg>
