<svg width="47" height="20" viewBox="0 0 47 20" fill="none" xmlns="http://www.w3.org/2000/svg">
<path d="M0 4C0 1.79086 1.79086 0 4 0H43C45.2091 0 47 1.79086 47 4V16C47 18.2091 45.2091 20 43 20H4C1.79086 20 0 18.2091 0 16V4Z" fill="url(#paint0_linear_1989_4140)"/>
<path d="M14.6556 6.28513C14.5902 6.25541 14.5175 6.24513 14.4464 6.25552C14.3753 6.26591 14.3086 6.29653 14.2544 6.34373C12.9419 7.47904 11.83 6.92873 10.5414 6.29076C9.20641 5.62935 7.69281 4.88076 6.00437 6.34373C5.96403 6.3787 5.93162 6.42188 5.90931 6.47038C5.887 6.51888 5.8753 6.57159 5.875 6.62498V14.5C5.875 14.5994 5.91451 14.6948 5.98484 14.7651C6.05516 14.8355 6.15054 14.875 6.25 14.875C6.34946 14.875 6.44484 14.8355 6.51517 14.7651C6.58549 14.6948 6.625 14.5994 6.625 14.5V12.4267C7.88078 11.4348 8.96266 11.9697 10.2086 12.5865C10.9773 12.9667 11.8052 13.3764 12.693 13.3764C13.3459 13.3764 14.0308 13.1537 14.747 12.5326C14.7874 12.4977 14.8198 12.4545 14.8421 12.406C14.8644 12.3575 14.8761 12.3048 14.8764 12.2514V6.62498C14.876 6.55313 14.855 6.48291 14.8159 6.42266C14.7767 6.36242 14.7211 6.31468 14.6556 6.28513ZM6.625 11.5206V9.1506C7.41484 8.62185 8.155 8.60732 8.875 8.80654V11.2319C8.16578 11.0533 7.41578 11.0645 6.625 11.5206ZM8.875 6.38451C9.30859 6.51717 9.74734 6.73373 10.2086 6.96201C10.7364 7.2231 11.2919 7.49779 11.875 7.64451V10.0698C12.5945 10.269 13.3347 10.2545 14.125 9.72529V12.0742C13.3342 12.6986 12.6123 12.7173 11.875 12.4919V10.0698C10.8616 9.78857 9.88844 9.08545 8.875 8.80654V6.38451Z" fill="white"/>
<path d="M24.1322 7.97V10.01H26.5322V10.94H24.1322V13.07H26.8322V14H22.9922V7.04H26.8322V7.97H24.1322ZM31.0163 8.4C31.4497 8.4 31.8363 8.49 32.1763 8.67C32.523 8.85 32.793 9.11667 32.9863 9.47C33.1797 9.82333 33.2763 10.25 33.2763 10.75V14H32.1463V10.92C32.1463 10.4267 32.023 10.05 31.7763 9.79C31.5297 9.52333 31.193 9.39 30.7663 9.39C30.3397 9.39 29.9997 9.52333 29.7463 9.79C29.4997 10.05 29.3763 10.4267 29.3763 10.92V14H28.2363V8.49H29.3763V9.12C29.563 8.89333 29.7997 8.71667 30.0863 8.59C30.3797 8.46333 30.6897 8.4 31.0163 8.4ZM34.3505 11.22C34.3505 10.6667 34.4638 10.1767 34.6905 9.75C34.9238 9.32333 35.2371 8.99333 35.6305 8.76C36.0305 8.52 36.4738 8.4 36.9605 8.4C37.3205 8.4 37.6738 8.48 38.0205 8.64C38.3738 8.79333 38.6538 9 38.8605 9.26V6.6H40.0105V14H38.8605V13.17C38.6738 13.4367 38.4138 13.6567 38.0805 13.83C37.7538 14.0033 37.3771 14.09 36.9505 14.09C36.4705 14.09 36.0305 13.97 35.6305 13.73C35.2371 13.4833 34.9238 13.1433 34.6905 12.71C34.4638 12.27 34.3505 11.7733 34.3505 11.22ZM38.8605 11.24C38.8605 10.86 38.7805 10.53 38.6205 10.25C38.4671 9.97 38.2638 9.75667 38.0105 9.61C37.7571 9.46333 37.4838 9.39 37.1905 9.39C36.8971 9.39 36.6238 9.46333 36.3705 9.61C36.1171 9.75 35.9105 9.96 35.7505 10.24C35.5971 10.5133 35.5205 10.84 35.5205 11.22C35.5205 11.6 35.5971 11.9333 35.7505 12.22C35.9105 12.5067 36.1171 12.7267 36.3705 12.88C36.6305 13.0267 36.9038 13.1 37.1905 13.1C37.4838 13.1 37.7571 13.0267 38.0105 12.88C38.2638 12.7333 38.4671 12.52 38.6205 12.24C38.7805 11.9533 38.8605 11.62 38.8605 11.24Z" fill="black"/>
<defs>
<linearGradient id="paint0_linear_1989_4140" x1="47" y1="10" x2="0" y2="10" gradientUnits="userSpaceOnUse">
<stop stop-color="white"/>
<stop offset="0.53" stop-color="white"/>
<stop offset="0.665" stop-color="#0066FF"/>
<stop offset="1" stop-color="#0066FF"/>
</linearGradient>
</defs>
</svg>
