<svg width="181" height="145" viewBox="0 0 181 145" fill="none" xmlns="http://www.w3.org/2000/svg">
<g filter="url(#filter0_dddd_1_2)">
<path d="M67 16C67 13.7909 68.7909 12 71 12H110C112.209 12 114 13.7909 114 16V28C114 30.2091 112.209 32 110 32H71C68.7909 32 67 30.2091 67 28V16Z" fill="url(#paint0_linear_1_2)"/>
</g>
<path d="M81.6556 18.2852C81.5902 18.2554 81.5175 18.2452 81.4464 18.2555C81.3753 18.2659 81.3086 18.2966 81.2544 18.3438C79.9419 19.4791 78.83 18.9288 77.5414 18.2908C76.2064 17.6294 74.6928 16.8808 73.0044 18.3438C72.964 18.3787 72.9316 18.4219 72.9093 18.4704C72.887 18.5189 72.8753 18.5716 72.875 18.625V26.5C72.875 26.5995 72.9145 26.6948 72.9848 26.7652C73.0552 26.8355 73.1505 26.875 73.25 26.875C73.3495 26.875 73.4448 26.8355 73.5152 26.7652C73.5855 26.6948 73.625 26.5995 73.625 26.5V24.4267C74.8808 23.4349 75.9627 23.9697 77.2086 24.5866C77.9773 24.9667 78.8052 25.3764 79.693 25.3764C80.3459 25.3764 81.0308 25.1538 81.747 24.5327C81.7874 24.4977 81.8198 24.4545 81.8421 24.406C81.8644 24.3575 81.8761 24.3048 81.8764 24.2514V18.625C81.876 18.5532 81.855 18.4829 81.8159 18.4227C81.7767 18.3624 81.7211 18.3147 81.6556 18.2852ZM73.625 23.5206V21.1506C74.4148 20.6219 75.155 20.6074 75.875 20.8066V23.2319C75.1658 23.0533 74.4158 23.0645 73.625 23.5206ZM75.875 18.3845C76.3086 18.5172 76.7473 18.7338 77.2086 18.962C77.7364 19.2231 78.2919 19.4978 78.875 19.6445V22.0699C79.5945 22.2691 80.3347 22.2545 81.125 21.7253V24.0742C80.3342 24.6986 79.6123 24.7174 78.875 24.4919V22.0699C77.8616 21.7886 76.8884 21.0855 75.875 20.8066V18.3845Z" fill="white"/>
<path d="M91.1322 19.97V22.01H93.5322V22.94H91.1322V25.07H93.8322V26H89.9922V19.04H93.8322V19.97H91.1322ZM98.0163 20.4C98.4497 20.4 98.8363 20.49 99.1763 20.67C99.523 20.85 99.793 21.1167 99.9863 21.47C100.18 21.8233 100.276 22.25 100.276 22.75V26H99.1463V22.92C99.1463 22.4267 99.023 22.05 98.7763 21.79C98.5297 21.5233 98.193 21.39 97.7663 21.39C97.3397 21.39 96.9997 21.5233 96.7463 21.79C96.4997 22.05 96.3763 22.4267 96.3763 22.92V26H95.2363V20.49H96.3763V21.12C96.563 20.8933 96.7997 20.7167 97.0863 20.59C97.3797 20.4633 97.6897 20.4 98.0163 20.4ZM101.35 23.22C101.35 22.6667 101.464 22.1767 101.69 21.75C101.924 21.3233 102.237 20.9933 102.63 20.76C103.03 20.52 103.474 20.4 103.96 20.4C104.32 20.4 104.674 20.48 105.02 20.64C105.374 20.7933 105.654 21 105.86 21.26V18.6H107.01V26H105.86V25.17C105.674 25.4367 105.414 25.6567 105.08 25.83C104.754 26.0033 104.377 26.09 103.95 26.09C103.47 26.09 103.03 25.97 102.63 25.73C102.237 25.4833 101.924 25.1433 101.69 24.71C101.464 24.27 101.35 23.7733 101.35 23.22ZM105.86 23.24C105.86 22.86 105.78 22.53 105.62 22.25C105.467 21.97 105.264 21.7567 105.01 21.61C104.757 21.4633 104.484 21.39 104.19 21.39C103.897 21.39 103.624 21.4633 103.37 21.61C103.117 21.75 102.91 21.96 102.75 22.24C102.597 22.5133 102.52 22.84 102.52 23.22C102.52 23.6 102.597 23.9333 102.75 24.22C102.91 24.5067 103.117 24.7267 103.37 24.88C103.63 25.0267 103.904 25.1 104.19 25.1C104.484 25.1 104.757 25.0267 105.01 24.88C105.264 24.7333 105.467 24.52 105.62 24.24C105.78 23.9533 105.86 23.62 105.86 23.24Z" fill="black"/>
<defs>
<filter id="filter0_dddd_1_2" x="0" y="0" width="181" height="268" filterUnits="userSpaceOnUse" color-interpolation-filters="sRGB">
<feFlood flood-opacity="0" result="BackgroundImageFix"/>
<feColorMatrix in="SourceAlpha" type="matrix" values="0 0 0 0 0 0 0 0 0 0 0 0 0 0 0 0 0 0 127 0" result="hardAlpha"/>
<feOffset dy="11"/>
<feGaussianBlur stdDeviation="11.5"/>
<feColorMatrix type="matrix" values="0 0 0 0 0.180392 0 0 0 0 0.180392 0 0 0 0 0.180392 0 0 0 0.1 0"/>
<feBlend mode="normal" in2="BackgroundImageFix" result="effect1_dropShadow_1_2"/>
<feColorMatrix in="SourceAlpha" type="matrix" values="0 0 0 0 0 0 0 0 0 0 0 0 0 0 0 0 0 0 127 0" result="hardAlpha"/>
<feOffset dy="42"/>
<feGaussianBlur stdDeviation="21"/>
<feColorMatrix type="matrix" values="0 0 0 0 0.180392 0 0 0 0 0.180392 0 0 0 0 0.180392 0 0 0 0.09 0"/>
<feBlend mode="normal" in2="effect1_dropShadow_1_2" result="effect2_dropShadow_1_2"/>
<feColorMatrix in="SourceAlpha" type="matrix" values="0 0 0 0 0 0 0 0 0 0 0 0 0 0 0 0 0 0 127 0" result="hardAlpha"/>
<feOffset dy="95"/>
<feGaussianBlur stdDeviation="28.5"/>
<feColorMatrix type="matrix" values="0 0 0 0 0.180392 0 0 0 0 0.180392 0 0 0 0 0.180392 0 0 0 0.05 0"/>
<feBlend mode="normal" in2="effect2_dropShadow_1_2" result="effect3_dropShadow_1_2"/>
<feColorMatrix in="SourceAlpha" type="matrix" values="0 0 0 0 0 0 0 0 0 0 0 0 0 0 0 0 0 0 127 0" result="hardAlpha"/>
<feOffset dy="169"/>
<feGaussianBlur stdDeviation="33.5"/>
<feColorMatrix type="matrix" values="0 0 0 0 0.180392 0 0 0 0 0.180392 0 0 0 0 0.180392 0 0 0 0.01 0"/>
<feBlend mode="normal" in2="effect3_dropShadow_1_2" result="effect4_dropShadow_1_2"/>
<feBlend mode="normal" in="SourceGraphic" in2="effect4_dropShadow_1_2" result="shape"/>
</filter>
<linearGradient id="paint0_linear_1_2" x1="114" y1="22" x2="67" y2="22" gradientUnits="userSpaceOnUse">
<stop stop-color="white"/>
<stop offset="0.53" stop-color="white"/>
<stop offset="0.665" stop-color="#0066FF"/>
<stop offset="1" stop-color="#0066FF"/>
</linearGradient>
</defs>
</svg>
