<svg width="40" height="40" viewBox="0 0 40 40" fill="none" xmlns="http://www.w3.org/2000/svg">
<circle opacity="0.1" cx="20" cy="20" r="20" fill="#2E2E2E"/>
<path fill-rule="evenodd" clip-rule="evenodd" d="M19.9775 12.2361H20.0229C20.4592 12.2361 20.8203 12.2361 21.1185 12.2615C21.4311 12.2881 21.7135 12.3449 21.9859 12.4798C22.4712 12.7201 22.778 13.1019 22.9934 13.4848C23.1603 13.7817 23.2899 14.1152 23.3998 14.3979C23.4257 14.4646 23.4505 14.5284 23.4745 14.5883L23.581 14.8544C23.6333 14.9853 23.6595 15.0508 23.7136 15.0879C23.7677 15.1251 23.839 15.1261 23.9815 15.1279C24.6469 15.1366 25.1497 15.1743 25.5912 15.3596C26.2757 15.6469 26.8313 16.1768 27.1554 16.8478C27.3 17.1472 27.3736 17.4689 27.4222 17.8424C27.4698 18.2066 27.4975 18.6559 27.5322 19.2181L27.6477 21.0922C27.7343 22.4958 27.8027 23.605 27.7389 24.4749C27.6733 25.3682 27.4638 26.0969 26.9236 26.6795C26.3823 27.2635 25.6747 27.5222 24.7954 27.6448C23.9412 27.7639 22.8434 27.7639 21.4569 27.7639H18.5433C17.1569 27.7639 16.0591 27.7639 15.2049 27.6448C14.3256 27.5222 13.6179 27.2635 13.0767 26.6795C12.5365 26.0969 12.327 25.3682 12.2614 24.4749C12.1975 23.605 12.2659 22.4958 12.3525 21.0922L12.4681 19.218C12.5028 18.6558 12.5305 18.2065 12.578 17.8424C12.6267 17.4689 12.7003 17.1472 12.8449 16.8478C13.1689 16.1768 13.7245 15.6469 14.409 15.3596C14.8506 15.1742 15.3535 15.1366 16.0189 15.1279C16.1614 15.1261 16.2327 15.1251 16.2868 15.0879C16.341 15.0508 16.3671 14.9853 16.4195 14.8544L16.5259 14.5883C16.5499 14.5284 16.5747 14.4646 16.6006 14.3979C16.7105 14.1152 16.8401 13.7817 17.0071 13.4848C17.2225 13.1019 17.5292 12.7201 18.0145 12.4798C18.2869 12.3449 18.5693 12.2881 18.8819 12.2615C19.1801 12.2361 19.5412 12.2361 19.9775 12.2361ZM19.2794 15.6667C19.2794 15.2678 19.6013 14.9444 19.9984 14.9444C20.3926 14.9444 20.7239 15.2679 20.7239 15.6667C20.7239 16.0654 20.3926 16.3889 19.9984 16.3889C19.6013 16.3889 19.2794 16.0655 19.2794 15.6667ZM20.0016 18.5556C18.4061 18.5556 17.1127 19.849 17.1127 21.4444C17.1127 23.0399 18.4061 24.3333 20.0016 24.3333C21.5971 24.3333 22.8905 23.0399 22.8905 21.4444C22.8905 19.849 21.5971 18.5556 20.0016 18.5556Z" fill="#0066FF"/>
</svg>
