<svg width="18" height="18" viewBox="0 0 18 18" fill="none" xmlns="http://www.w3.org/2000/svg">
<g id="Frame">
<path id="Vector" fill-rule="evenodd" clip-rule="evenodd" d="M12.984 1.44794C11.9765 1.31249 10.6859 1.31249 9.0429 1.3125H8.9571C7.31409 1.31249 6.02358 1.31249 5.01602 1.44794C3.98353 1.58676 3.16433 1.87704 2.52068 2.52068C1.87704 3.16433 1.58676 3.98353 1.44794 5.01602C1.31249 6.02358 1.31249 7.31409 1.3125 8.9571V9.0429C1.31249 10.6859 1.31249 11.9765 1.44794 12.984C1.58676 14.0165 1.87704 14.8357 2.52068 15.4793C3.16433 16.123 3.98353 16.4132 5.01602 16.5521C6.02357 16.6875 7.31407 16.6875 8.9571 16.6875H9.0429C10.6859 16.6875 11.9765 16.6875 12.984 16.5521C14.0165 16.4132 14.8357 16.123 15.4793 15.4793C16.123 14.8357 16.4132 14.0165 16.5521 12.984C16.6875 11.9765 16.6875 10.6859 16.6875 9.0429V8.9571C16.6875 7.31407 16.6875 6.02357 16.5521 5.01602C16.4132 3.98353 16.123 3.16433 15.4793 2.52068C14.8357 1.87704 14.0165 1.58676 12.984 1.44794ZM11.7803 7.28035C12.0732 6.98747 12.0732 6.51259 11.7803 6.21969C11.4875 5.92679 11.0126 5.92677 10.7197 6.21965L8.99985 7.93935L7.28031 6.21994C6.98741 5.92706 6.51254 5.92708 6.21965 6.21998C5.92677 6.51289 5.92679 6.98776 6.21969 7.28064L7.93913 9L6.21969 10.7194C5.92679 11.0123 5.92677 11.4872 6.21965 11.78C6.51254 12.0729 6.98741 12.0729 7.28031 11.78L8.99985 10.0607L10.7197 11.7803C11.0126 12.0732 11.4875 12.0732 11.7803 11.7803C12.0732 11.4874 12.0732 11.0126 11.7803 10.7197L10.0606 9L11.7803 7.28035Z" fill="white"/>
</g>
</svg>
