<svg width="120" height="120" viewBox="0 0 120 120" fill="none" xmlns="http://www.w3.org/2000/svg">
<circle opacity="0.1" cx="60" cy="60" r="60" fill="url(#paint0_linear_2304_13257)"/>
<circle cx="60" cy="60" r="35" fill="#FF756C"/>
<path fill-rule="evenodd" clip-rule="evenodd" d="M66.1778 42.1548C65.527 41.504 64.4717 41.504 63.8209 42.1548C63.17 42.8057 63.17 43.861 63.8209 44.5119L68.4757 49.1667L63.8209 53.8215C63.17 54.4724 63.17 55.5277 63.8209 56.1785C64.4717 56.8294 65.527 56.8294 66.1778 56.1785L70.8327 51.5237L75.4875 56.1785C76.1384 56.8294 77.1937 56.8294 77.8445 56.1785C78.4954 55.5277 78.4954 54.4724 77.8445 53.8215L73.1897 49.1667L77.8445 44.5119C78.4954 43.861 78.4954 42.8057 77.8445 42.1548C77.1937 41.504 76.1384 41.504 75.4875 42.1548L70.8327 46.8097L66.1778 42.1548ZM60.9563 43.4376C61.091 43.5412 61.16 43.801 61.2979 44.3206C61.4655 44.9519 61.7968 45.5488 62.292 46.0439L64.7077 48.4596C65.041 48.7929 65.2077 48.9596 65.2077 49.1667C65.2077 49.3738 65.041 49.5405 64.7077 49.8738L62.292 52.2894C60.795 53.7865 60.795 56.2136 62.292 57.7105C63.789 59.2077 66.2162 59.2077 67.7132 57.7105L70.1288 55.295C70.4622 54.9616 70.6289 54.795 70.836 54.795C71.043 54.795 71.2097 54.9616 71.543 55.2949L73.9587 57.7105C74.4532 58.2052 75.0492 58.5362 75.6797 58.704C76.1988 58.8422 76.4584 58.9114 76.5619 59.046C76.6655 59.1807 76.6657 59.3969 76.6659 59.8292L76.666 60.7094V60.9574C76.666 64.584 76.666 67.4754 76.3614 69.7422C76.0467 72.0829 75.3799 74.0059 73.8592 75.5265C72.3385 77.0472 70.4155 77.714 68.0749 78.0287C65.808 78.3334 62.9167 78.3334 59.29 78.3334H59.042C55.4153 78.3334 52.5241 78.3334 50.2572 78.0287C47.9166 77.714 45.9936 77.0472 44.4729 75.5265C42.9523 74.0059 42.2854 72.0829 41.9707 69.7422C41.666 67.4754 41.666 64.584 41.666 60.9575V60.7092C41.666 57.0825 41.666 54.1914 41.9707 51.9245C42.2854 49.5839 42.9523 47.6609 44.4729 46.1403C45.9936 44.6196 47.9166 43.9528 50.2572 43.6381C52.5241 43.3333 55.4154 43.3333 59.042 43.3334H59.2902L60.1727 43.3335C60.6054 43.3338 60.8217 43.3339 60.9563 43.4376ZM50.297 74.6654C50.4279 74.6864 50.563 74.7062 50.7024 74.725C52.7214 74.9965 55.388 75 59.167 75C62.9462 75 65.6128 74.9965 67.6317 74.725C69.6027 74.46 70.705 73.9675 71.5032 73.1694C72.3012 72.3714 72.7937 71.269 73.0587 69.298C73.2215 68.0879 73.2879 66.6449 73.315 64.8692C70.9415 63.4725 68.805 62.9162 66.861 62.9167C64.644 62.9172 62.5592 63.6424 60.5404 64.872C56.9623 67.0515 53.7971 70.6672 50.6746 74.2342L50.297 74.6654Z" fill="white"/>
<defs>
<linearGradient id="paint0_linear_2304_13257" x1="60" y1="0" x2="60" y2="120" gradientUnits="userSpaceOnUse">
<stop stop-color="#FF756C"/>
<stop offset="1" stop-color="#FF756C" stop-opacity="0"/>
</linearGradient>
</defs>
</svg>
