<svg width="343" height="240" viewBox="0 0 343 240" fill="none" xmlns="http://www.w3.org/2000/svg">
<rect x="0.5" y="0.5" width="342" height="239" rx="11.5" fill="#EDF2F6" stroke="#DDE4EE"/>
<path fill-rule="evenodd" clip-rule="evenodd" d="M172.161 97.25H171.839C167.124 97.25 163.365 97.2499 160.419 97.6461C157.376 98.0552 154.876 98.9221 152.899 100.899C150.922 102.876 150.055 105.376 149.646 108.419C149.25 111.365 149.25 115.124 149.25 119.839V120.161C149.25 124.876 149.25 128.635 149.646 131.581C150.055 134.624 150.922 137.124 152.899 139.101C154.876 141.078 157.376 141.945 160.419 142.354C163.366 142.75 167.124 142.75 171.839 142.75H172.161C176.876 142.75 180.634 142.75 183.581 142.354C186.624 141.945 189.124 141.078 191.101 139.101C193.078 137.124 193.945 134.624 194.354 131.581C194.75 128.635 194.75 124.876 194.75 120.161V119.839C194.75 115.124 194.75 111.366 194.354 108.419C193.945 105.376 193.078 102.876 191.101 100.899C189.124 98.9221 186.624 98.0552 183.581 97.6461C180.635 97.2499 176.876 97.25 172.161 97.25ZM157.917 110.25C157.917 107.857 159.857 105.917 162.25 105.917C164.643 105.917 166.583 107.857 166.583 110.25C166.583 112.643 164.643 114.583 162.25 114.583C159.857 114.583 157.917 112.643 157.917 110.25ZM160.997 138.059C160.733 138.024 160.481 137.985 160.24 137.943C164.367 132.951 168.573 127.908 173.298 124.74C176.028 122.91 178.835 121.779 181.802 121.64C184.403 121.517 187.251 122.151 190.408 123.927C190.386 126.854 190.311 129.141 190.06 131.004C189.716 133.566 189.076 134.999 188.038 136.037C187.001 137.074 185.568 137.715 183.005 138.059C180.381 138.412 176.914 138.417 172.001 138.417C167.089 138.417 163.622 138.412 160.997 138.059Z" fill="#899499"/>
</svg>
