<svg width="52" height="52" viewBox="0 0 52 52" fill="none" xmlns="http://www.w3.org/2000/svg">
<g id="Frame">
<path id="Vector" fill-rule="evenodd" clip-rule="evenodd" d="M26.1614 3.25H25.8388C21.1243 3.24996 17.3655 3.24991 14.4185 3.64611C11.3757 4.05522 8.87582 4.92213 6.89897 6.89897C4.92213 8.87582 4.05522 11.3757 3.64611 14.4185C3.24991 17.3655 3.24996 21.124 3.25 25.8386V26.1614C3.24996 30.8759 3.24991 34.6346 3.64611 37.5815C4.05522 40.6244 4.92213 43.1243 6.89897 45.1011C8.87582 47.078 11.3757 47.9449 14.4185 48.3539C17.3655 48.75 21.1241 48.75 25.8388 48.75H26.1612C30.8759 48.75 34.6344 48.75 37.5815 48.3539C40.6244 47.9449 43.1243 47.078 45.1011 45.1011C47.078 43.1243 47.9449 40.6244 48.3539 37.5815C48.75 34.6346 48.75 30.8759 48.75 26.1612V25.8388C48.75 21.1241 48.75 17.3655 48.3539 14.4185C47.9449 11.3757 47.078 8.87582 45.1011 6.89897C43.1243 4.92213 40.6244 4.05522 37.5815 3.64611C34.6346 3.24991 30.8759 3.24996 26.1614 3.25ZM11.9167 16.25C11.9167 13.8568 13.8568 11.9167 16.25 11.9167C18.6432 11.9167 20.5833 13.8568 20.5833 16.25C20.5833 18.6432 18.6432 20.5833 16.25 20.5833C13.8568 20.5833 11.9167 18.6432 11.9167 16.25ZM14.9973 44.0592C14.7331 44.0236 14.4809 43.9851 14.2399 43.943C18.367 38.9515 22.5732 33.9081 27.2976 30.7402C30.0276 28.9098 32.8354 27.7791 35.8022 27.6397C38.4033 27.5173 41.251 28.1509 44.4084 29.9271C44.3861 32.8543 44.3109 35.1412 44.0605 37.0041C43.716 39.5664 43.0757 40.9994 42.0383 42.0368C41.0007 43.0744 39.5677 43.7147 37.0054 44.0592C34.3809 44.4121 30.9142 44.4167 26.0013 44.4167C21.0886 44.4167 17.6219 44.4121 14.9973 44.0592Z" fill="#899499"/>
</g>
</svg>
