<svg width="20" height="20" viewBox="0 0 20 20" fill="none" xmlns="http://www.w3.org/2000/svg">
<g id="information-square">
<path id="Vector" d="M2.08398 10C2.08398 6.26806 2.08398 4.40209 3.24335 3.24271C4.40273 2.08334 6.2687 2.08334 10.0007 2.08334C13.7326 2.08334 15.5986 2.08334 16.758 3.24271C17.9173 4.40209 17.9173 6.26806 17.9173 10C17.9173 13.7319 17.9173 15.5979 16.758 16.7573C15.5986 17.9167 13.7326 17.9167 10.0007 17.9167C6.2687 17.9167 4.40273 17.9167 3.24335 16.7573C2.08398 15.5979 2.08398 13.7319 2.08398 10Z" fill="#F4900C"/>
<path id="Vector_2" d="M10.2025 14.1667V9.99999C10.2025 9.60716 10.2025 9.41074 10.0804 9.28866C9.95839 9.16666 9.76197 9.16666 9.36914 9.16666" stroke="white" stroke-width="1.5" stroke-linecap="round" stroke-linejoin="round"/>
<path id="Vector_3" d="M9.99414 6.66666H10.0031" stroke="white" stroke-width="2" stroke-linecap="round" stroke-linejoin="round"/>
</g>
</svg>
