<svg width="24" height="24" viewBox="0 0 24 24" fill="none" xmlns="http://www.w3.org/2000/svg">
<path fill-rule="evenodd" clip-rule="evenodd" d="M9.62892 4H14.3711C15.8616 3.99999 17.0423 3.99998 17.9766 4.11508C18.9355 4.23325 19.725 4.48134 20.3846 5.04553C20.6083 5.23693 20.8134 5.45078 20.997 5.68401C21.5382 6.37147 21.7763 7.19445 21.8896 8.19423C22 9.1679 22 10.3988 22 11.9525V12.0475C22 13.6012 22 14.8321 21.8896 15.8059C21.7763 16.8055 21.5382 17.6285 20.997 18.316C20.8134 18.5492 20.6083 18.7631 20.3846 18.9545C19.725 19.5186 18.9355 19.7668 17.9766 19.8849C17.0424 20 15.8615 20 14.3711 20H9.62883C8.13841 20 6.95762 20 6.02349 19.8849C5.06445 19.7668 4.27496 19.5186 3.61547 18.9545C3.39174 18.7631 3.18659 18.5492 3.00298 18.316C2.46175 17.6285 2.22377 16.8055 2.1104 15.8059C1.99998 14.832 1.99999 13.6012 2 12.0474V11.9526C1.99999 10.3988 1.99998 9.168 2.1104 8.19423C2.22377 7.19445 2.46175 6.37147 3.00298 5.68401C3.18659 5.45078 3.39174 5.23693 3.61547 5.04553C4.27496 4.48134 5.06445 4.23325 6.02349 4.11508C6.95765 3.99998 8.13845 3.99999 9.62892 4ZM6.4186 9.57576C6.4186 9.04019 6.83509 8.60606 7.34884 8.60606H8.27907C8.79282 8.60606 9.2093 9.04019 9.2093 9.57576C9.2093 10.1113 8.79282 10.5455 8.27907 10.5455H7.34884C6.83508 10.5455 6.4186 10.1113 6.4186 9.57576ZM10.6047 9.57576C10.6047 9.04019 11.0211 8.60606 11.5349 8.60606H12.4651C12.9789 8.60606 13.3953 9.04019 13.3953 9.57576C13.3953 10.1113 12.9789 10.5455 12.4651 10.5455H11.5349C11.0211 10.5455 10.6047 10.1113 10.6047 9.57576ZM15.7209 8.60606C15.2072 8.60606 14.7907 9.04019 14.7907 9.57576C14.7907 10.1113 15.2072 10.5455 15.7209 10.5455H16.6512C17.1649 10.5455 17.5814 10.1113 17.5814 9.57576C17.5814 9.04019 17.1649 8.60606 16.6512 8.60606H15.7209ZM6.4186 14.4242C6.4186 13.8887 6.83509 13.4545 7.34884 13.4545H16.6512C17.1649 13.4545 17.5814 13.8887 17.5814 14.4242C17.5814 14.9598 17.1649 15.3939 16.6512 15.3939H7.34884C6.83508 15.3939 6.4186 14.9598 6.4186 14.4242Z" fill="white"/>
</svg>
