<svg width="120" height="120" viewBox="0 0 120 120" fill="none" xmlns="http://www.w3.org/2000/svg">
<circle opacity="0.1" cx="60" cy="60" r="60" fill="url(#paint0_linear_2304_13267)"/>
<circle cx="60" cy="60" r="35" fill="#E09F3E"/>
<path fill-rule="evenodd" clip-rule="evenodd" d="M59.0452 43.75H59.1688C60.0303 43.75 60.846 43.75 61.6148 43.7538C62.5133 43.7582 63.2382 44.4902 63.2338 45.3888C63.2293 46.2873 62.4973 47.0121 61.5988 47.0077C60.8387 47.004 60.0307 47.004 59.1663 47.004C55.4773 47.004 52.8741 47.0074 50.9032 47.2724C48.9792 47.5311 47.9031 48.0119 47.124 48.791C46.3449 49.5701 45.8641 50.6462 45.6054 52.5702C45.3404 54.5411 45.337 57.1442 45.337 60.8333C45.337 64.5225 45.3404 67.1255 45.6054 69.0965C45.8641 71.0205 46.3449 72.0967 47.124 72.8757C47.9031 73.6548 48.9792 74.1355 50.9032 74.3943C52.8741 74.6592 55.4773 74.6627 59.1663 74.6627C62.8555 74.6627 65.4585 74.6592 67.4295 74.3943C69.3535 74.1355 70.4297 73.6548 71.2087 72.8757C71.9878 72.0967 72.4685 71.0205 72.7273 69.0965C72.9922 67.1255 72.9957 64.5225 72.9957 60.8333C72.9957 59.969 72.9957 59.161 72.992 58.4008C72.9875 57.5023 73.7123 56.7703 74.6108 56.7658C75.5095 56.7615 76.2415 57.4863 76.2458 58.3848C76.2497 59.1538 76.2497 59.9695 76.2497 60.8312V60.9545C76.2497 64.4947 76.2497 67.3172 75.9522 69.53C75.645 71.815 74.994 73.6922 73.5097 75.1767C72.0252 76.661 70.148 77.312 67.863 77.6192C65.6502 77.9167 62.8277 77.9167 59.2875 77.9167H59.0452C55.505 77.9167 52.6826 77.9167 50.4696 77.6192C48.1847 77.312 46.3075 76.661 44.8231 75.1767C43.3386 73.6922 42.6877 71.815 42.3805 69.53C42.0829 67.3172 42.083 64.4947 42.083 60.9545V60.7122C42.083 57.172 42.0829 54.3496 42.3805 52.1366C42.6877 49.8517 43.3386 47.9745 44.8231 46.4901C46.3075 45.0056 48.1847 44.3547 50.4696 44.0475C52.6826 43.7499 55.5049 43.75 59.0452 43.75Z" fill="white"/>
<path d="M55.8337 54.1667C55.8337 56.0077 54.3413 57.5 52.5003 57.5C50.6594 57.5 49.167 56.0077 49.167 54.1667C49.167 52.3258 50.6594 50.8334 52.5003 50.8334C54.3413 50.8334 55.8337 52.3258 55.8337 54.1667Z" fill="white"/>
<path d="M47.5 75.8333C54.7874 67.125 62.9568 55.6401 74.9958 63.404C74.9958 67.2205 74.9958 69.1288 74.3825 70.6376C73.5358 72.7208 71.8833 74.3735 69.8002 75.22C68.2912 75.8333 66.383 75.8333 62.5665 75.8333H47.5Z" fill="white"/>
<path fill-rule="evenodd" clip-rule="evenodd" d="M65 48.0792C65 44.5377 67.871 41.6666 71.4126 41.6666C74.9542 41.6666 77.8253 44.5377 77.8253 48.0792C77.8253 49.3387 77.4622 50.5133 76.8349 51.5043L78.7502 53.4134C79.3043 53.9657 79.3057 54.8626 78.7533 55.4168C78.201 55.9709 77.3041 55.9723 76.7499 55.4199L74.83 53.5063C73.8407 54.1306 72.6689 54.4919 71.4126 54.4919C67.871 54.4919 65 51.6209 65 48.0792ZM71.4126 44.5C69.4359 44.5 67.8333 46.1025 67.8333 48.0792C67.8333 50.056 69.4359 51.6585 71.4126 51.6585C73.3894 51.6585 74.9919 50.056 74.9919 48.0792C74.9919 46.1025 73.3894 44.5 71.4126 44.5Z" fill="white"/>
<defs>
<linearGradient id="paint0_linear_2304_13267" x1="60" y1="0" x2="60" y2="120" gradientUnits="userSpaceOnUse">
<stop stop-color="#E09F3E"/>
<stop offset="1" stop-color="#E09F3E" stop-opacity="0"/>
</linearGradient>
</defs>
</svg>
