<svg width="26" height="26" viewBox="0 0 26 26" fill="none" xmlns="http://www.w3.org/2000/svg">
<circle cx="13" cy="13" r="13" fill="white"/>
<path fill-rule="evenodd" clip-rule="evenodd" d="M17.4231 15.1329C17.3784 15.8639 17.3429 16.4441 17.2701 16.9074C17.1954 17.3826 17.076 17.7784 16.837 18.1245C16.6184 18.4412 16.3369 18.7085 16.0105 18.9093C15.6536 19.1289 15.2552 19.2249 14.781 19.2708L11.2076 19.2708C10.7329 19.2248 10.334 19.1286 9.97693 18.9086C9.65028 18.7074 9.36871 18.4396 9.15016 18.1224C8.91126 17.7757 8.79216 17.3794 8.71808 16.9035C8.64585 16.4395 8.61113 15.8585 8.56738 15.1264L8.1875 8.77084H17.8125L17.4231 15.1329ZM11.5417 16.4772C11.3 16.4772 11.1042 16.2814 11.1042 16.0397V12.5397C11.1042 12.2981 11.3 12.1022 11.5417 12.1022C11.7833 12.1022 11.9792 12.2981 11.9792 12.5397V16.0397C11.9792 16.2814 11.7833 16.4772 11.5417 16.4772ZM14.8958 12.5397C14.8958 12.2981 14.6999 12.1022 14.4583 12.1022C14.2167 12.1022 14.0208 12.2981 14.0208 12.5397V16.0397C14.0208 16.2814 14.2167 16.4772 14.4583 16.4772C14.6999 16.4772 14.8958 16.2814 14.8958 16.0397V12.5397Z" fill="#FF756C"/>
<path fill-rule="evenodd" clip-rule="evenodd" d="M13.7853 6.74829C14.1149 6.77777 14.4247 6.87836 14.6908 7.07678C14.8875 7.22353 15.0242 7.40317 15.141 7.59771C15.2492 7.77799 15.3582 8.00276 15.4817 8.25774L15.7307 8.77125H18.2494C18.5715 8.77125 18.8327 9.03242 18.8327 9.35458C18.8327 9.67675 18.5715 9.93791 18.2494 9.93791C14.7492 9.93791 11.2495 9.93791 7.74935 9.93791C7.42719 9.93791 7.16602 9.67675 7.16602 9.35458C7.16602 9.03242 7.42719 8.77125 7.74935 8.77125H10.3217L10.5293 8.31593C10.6498 8.05156 10.7559 7.81873 10.8625 7.6319C10.9774 7.43038 11.1136 7.24389 11.3127 7.09111C11.582 6.88449 11.8981 6.77974 12.2351 6.74906C12.4889 6.72596 12.7447 6.72914 12.9994 6.72954C13.2973 6.73002 13.5652 6.7286 13.7853 6.74829ZM11.6039 8.77125H14.4342C14.3019 8.4986 14.2174 8.32579 14.1407 8.19812C14.0285 8.01126 13.8941 7.92935 13.6813 7.91032C13.5301 7.89679 13.333 7.89625 13.0195 7.89625C12.6982 7.89625 12.4959 7.89681 12.3409 7.91092C12.1227 7.93078 11.9866 8.01582 11.8758 8.21006C11.8032 8.33734 11.7241 8.50774 11.6039 8.77125Z" fill="#FF756C"/>
</svg>
