<svg width="18" height="18" viewBox="0 0 18 18" fill="none" xmlns="http://www.w3.org/2000/svg">
<g id="Frame">
<path id="Vector" fill-rule="evenodd" clip-rule="evenodd" d="M9.0429 1.3125C10.6859 1.31249 11.9765 1.31249 12.984 1.44794C14.0165 1.58676 14.8357 1.87704 15.4793 2.52068C16.123 3.16433 16.4132 3.98353 16.5521 5.01602C16.6875 6.02358 16.6875 7.31411 16.6875 8.9571V9.0429C16.6875 10.6859 16.6875 11.9765 16.5521 12.984C16.4132 14.0165 16.123 14.8357 15.4793 15.4793C14.8357 16.123 14.0165 16.4132 12.984 16.5521C11.9765 16.6875 10.6859 16.6875 9.0429 16.6875H8.9571C7.31407 16.6875 6.02358 16.6875 5.01602 16.5521C3.98353 16.4132 3.16433 16.123 2.52068 15.4793C1.87704 14.8357 1.58676 14.0165 1.44794 12.984C1.31249 11.9765 1.31249 10.6859 1.3125 9.0429V8.9571C1.31249 7.31408 1.31249 6.02358 1.44794 5.01602C1.58676 3.98353 1.87704 3.16433 2.52068 2.52068C3.16433 1.87704 3.98353 1.58676 5.01602 1.44794C6.02358 1.31249 7.31409 1.31249 8.9571 1.3125H9.0429ZM12.6581 6.01529C12.8569 6.3787 12.7234 6.83443 12.36 7.03317C11.3315 7.59563 10.3656 8.77313 9.62805 9.9024C9.26858 10.4529 8.98013 10.9655 8.78175 11.3403C8.68275 11.5273 8.6067 11.6791 8.55593 11.7829L8.4822 11.9369C8.36633 12.1902 8.11958 12.3587 7.84148 12.374C7.5633 12.3893 7.2995 12.2492 7.15649 12.0101C6.92345 11.6205 6.55315 11.2649 6.20998 10.9936C6.04323 10.8617 5.89314 10.7578 5.78603 10.6877L5.62831 10.589C5.2687 10.3837 5.14348 9.9258 5.34864 9.5661C5.55385 9.20625 6.01189 9.08093 6.37169 9.28613L6.60797 9.4329C6.74462 9.52238 6.93203 9.65228 7.14029 9.8169C7.29944 9.94275 7.47738 10.094 7.65705 10.2683C7.84965 9.92228 8.0904 9.51375 8.37218 9.0822C9.1347 7.91468 10.2688 6.46715 11.6403 5.71712C12.0037 5.51837 12.4594 5.65187 12.6581 6.01529Z" fill="#38B58B"/>
</g>
</svg>
