<svg width="46" height="46" viewBox="0 0 46 46" fill="none" xmlns="http://www.w3.org/2000/svg">
<g id="Group 21856">
<g id="Ellipse 16" filter="url(#filter0_b_408_11426)">
<circle cx="23" cy="23" r="23" fill="#2E2E2E" fill-opacity="0.6"/>
</g>
<g id="Group 21855">
<path id="Vector" d="M27.8125 13.375H18.1875C17.8228 13.375 17.4731 13.5199 17.2152 13.7777C16.9574 14.0356 16.8125 14.3853 16.8125 14.75V18.6455C16.8132 18.9429 16.9097 19.2322 17.0875 19.4705L18.875 21.8545V31.25C18.875 31.6147 19.0199 31.9644 19.2777 32.2223C19.5356 32.4801 19.8853 32.625 20.25 32.625H25.75C26.1147 32.625 26.4644 32.4801 26.7223 32.2223C26.9801 31.9644 27.125 31.6147 27.125 31.25V21.8545L28.9125 19.4705C29.0903 19.2322 29.1868 18.9429 29.1875 18.6455V14.75C29.1875 14.3853 29.0426 14.0356 28.7848 13.7777C28.5269 13.5199 28.1772 13.375 27.8125 13.375ZM23.6875 25.0625C23.6875 25.2448 23.6151 25.4197 23.4861 25.5486C23.3572 25.6776 23.1823 25.75 23 25.75C22.8177 25.75 22.6428 25.6776 22.5139 25.5486C22.3849 25.4197 22.3125 25.2448 22.3125 25.0625V22.3125C22.3125 22.1302 22.3849 21.9553 22.5139 21.8264C22.6428 21.6974 22.8177 21.625 23 21.625C23.1823 21.625 23.3572 21.6974 23.4861 21.8264C23.6151 21.9553 23.6875 22.1302 23.6875 22.3125V25.0625ZM18.1875 16.8125V14.75H27.8125V16.8125H18.1875Z" fill="white"/>
</g>
</g>
<defs>
<filter id="filter0_b_408_11426" x="-4" y="-4" width="54" height="54" filterUnits="userSpaceOnUse" color-interpolation-filters="sRGB">
<feFlood flood-opacity="0" result="BackgroundImageFix"/>
<feGaussianBlur in="BackgroundImageFix" stdDeviation="2"/>
<feComposite in2="SourceAlpha" operator="in" result="effect1_backgroundBlur_408_11426"/>
<feBlend mode="normal" in="SourceGraphic" in2="effect1_backgroundBlur_408_11426" result="shape"/>
</filter>
</defs>
</svg>
