<svg width="120" height="120" viewBox="0 0 120 120" fill="none" xmlns="http://www.w3.org/2000/svg">
<circle opacity="0.1" cx="60" cy="60" r="60" fill="url(#paint0_linear_2304_13241)"/>
<circle cx="60" cy="60" r="35" fill="#38B58B"/>
<path fill-rule="evenodd" clip-rule="evenodd" d="M77.2223 44.9048C78.09 44.5975 78.5444 43.645 78.237 42.7774C77.9297 41.9097 76.9774 41.4555 76.1097 41.7628C74.646 42.2811 73.247 43.2697 72.0194 44.3464C70.7744 45.4382 69.6103 46.7058 68.6215 47.8911C67.8893 48.7688 67.242 49.6149 66.7167 50.3328C66.2353 49.7564 65.756 49.3351 65.2988 49.0304C64.8415 48.7255 64.4235 48.549 64.077 48.45C63.905 48.4009 63.7539 48.3717 63.6279 48.3549C63.5775 48.3482 63.4502 48.3407 63.376 48.3364C63.3577 48.3353 63.3425 48.3344 63.3327 48.3338C62.4122 48.3338 61.666 49.08 61.666 50.0005C61.666 50.8683 62.3293 51.5812 63.1767 51.6599C63.2143 51.6727 63.3094 51.7102 63.4499 51.8039C63.782 52.0253 64.4409 52.6102 65.1754 54.0792C65.444 54.6164 65.9809 54.9676 66.5809 54.9983C67.1805 55.029 67.7507 54.7343 68.0729 54.2275C68.1095 54.1711 68.2165 54.0064 68.2899 53.8964C68.4364 53.6763 68.653 53.3568 68.9284 52.9668C69.4802 52.1852 70.2614 51.1289 71.1812 50.0264C72.104 48.9201 73.146 47.7919 74.2172 46.8525C75.3055 45.8979 76.333 45.2198 77.2223 44.9048ZM66.2233 47.6441C66.387 47.7532 66.6088 47.7243 66.7318 47.5706C66.9277 47.3259 67.1312 47.0763 67.3417 46.824C67.764 46.3178 68.2208 45.7924 68.7058 45.2677C69.2507 44.678 69.5232 44.3832 69.4217 44.0982C69.32 43.8132 68.9477 43.7607 68.2032 43.6557L68.0749 43.6381C65.808 43.3333 62.9167 43.3333 59.2902 43.3333H59.0418C55.4153 43.3333 52.5241 43.3333 50.2572 43.6381C47.9166 43.9527 45.9936 44.6196 44.4729 46.1402C42.9523 47.6609 42.2854 49.5839 41.9707 51.9245C41.666 54.1914 41.666 57.0827 41.666 60.7092V60.9575C41.666 64.5842 41.666 67.4754 41.9707 69.7422C42.2854 72.0829 42.9523 74.0059 44.4729 75.5265C45.9936 77.0472 47.9166 77.714 50.2572 78.0287C52.5241 78.3334 55.4153 78.3334 59.042 78.3334H59.29C62.9167 78.3334 65.808 78.3334 68.0749 78.0287C70.4155 77.714 72.3385 77.0472 73.8592 75.5265C75.3799 74.0059 76.0467 72.0829 76.3614 69.7422C76.666 67.4754 76.666 64.584 76.666 60.9573V60.7093C76.666 57.0827 76.666 54.1914 76.3614 51.9245C76.2359 50.9918 76.0545 50.1254 75.7857 49.3244C75.6052 48.7871 75.515 48.5184 75.244 48.4547C74.9732 48.391 74.7645 48.5993 74.3475 49.016C73.6954 49.6675 73.0577 50.3791 72.4609 51.0945C71.5774 52.1537 70.8237 53.1724 70.29 53.9284C70.0244 54.3047 69.8162 54.6118 69.6768 54.8209C69.612 54.9184 69.5145 55.0681 69.4742 55.1303C68.8292 56.1385 67.6924 56.7245 66.4955 56.6632C65.2959 56.6018 64.2218 55.8995 63.6845 54.825C63.1827 53.8213 62.7752 53.4003 62.6065 53.2546C61.1142 52.9226 59.9993 51.5928 59.9993 50.0009C59.9993 48.16 61.4917 46.6676 63.3327 46.6676C63.3685 46.6676 63.44 46.671 63.44 46.671C63.44 46.671 63.6553 46.6845 63.694 46.6876C63.7242 46.69 63.7852 46.695 63.8482 46.7033C64.0512 46.7304 64.282 46.7757 64.5349 46.8479C65.0455 46.9938 65.6212 47.2426 66.2233 47.6441ZM50.2941 74.6649C50.4259 74.686 50.562 74.7062 50.7024 74.725C52.7214 74.9965 55.388 75 59.167 75C62.9462 75 65.6128 74.9965 67.6317 74.725C69.6027 74.46 70.705 73.9675 71.5032 73.1694C72.3012 72.3714 72.7937 71.269 73.0587 69.298C73.2214 68.0882 73.2879 66.646 73.315 64.8712C70.9402 63.473 68.8025 62.9162 66.8579 62.9167C64.6407 62.9173 62.5559 63.6423 60.537 64.872C56.9592 67.0515 53.7939 70.6672 50.6714 74.234L50.2941 74.6649Z" fill="white"/>
<defs>
<linearGradient id="paint0_linear_2304_13241" x1="60" y1="0" x2="60" y2="120" gradientUnits="userSpaceOnUse">
<stop stop-color="#38B58B"/>
<stop offset="1" stop-color="#38B58B" stop-opacity="0"/>
</linearGradient>
</defs>
</svg>
